<?xml version="1.0" encoding="utf-8" standalone="no"?>
<!DOCTYPE svg PUBLIC "-//W3C//DTD SVG 1.1//EN"
  "http://www.w3.org/Graphics/SVG/1.1/DTD/svg11.dtd">
<svg xmlns:xlink="http://www.w3.org/1999/xlink" width="585.040625pt" height="370.83745pt" viewBox="0 0 585.040625 370.83745" xmlns="http://www.w3.org/2000/svg" version="1.1">
 <metadata>
  <rdf:RDF xmlns:dc="http://purl.org/dc/elements/1.1/" xmlns:cc="http://creativecommons.org/ns#" xmlns:rdf="http://www.w3.org/1999/02/22-rdf-syntax-ns#">
   <cc:Work>
    <dc:type rdf:resource="http://purl.org/dc/dcmitype/StillImage"/>
    <dc:date>2024-03-15T12:43:28.045662</dc:date>
    <dc:format>image/svg+xml</dc:format>
    <dc:creator>
     <cc:Agent>
      <dc:title>Matplotlib v3.5.2, https://matplotlib.org/</dc:title>
     </cc:Agent>
    </dc:creator>
   </cc:Work>
  </rdf:RDF>
 </metadata>
 <defs>
  <style type="text/css">*{stroke-linejoin: round; stroke-linecap: butt}</style>
 </defs>
 <g id="figure_1">
  <g id="patch_1">
   <path d="M 0 370.83745 
L 585.040625 370.83745 
L 585.040625 0 
L 0 0 
z
" style="fill: #ffffff"/>
  </g>
  <g id="axes_1">
   <g id="patch_2">
    <path d="M 27.040625 340.4812 
L 585.040625 340.4812 
L 585.040625 52.1932 
L 27.040625 52.1932 
z
" style="fill: #ffffff"/>
   </g>
   <g id="matplotlib.axis_1">
    <g id="xtick_1">
     <g id="line2d_1">
      <path d="M 52.404261 340.4812 
L 52.404261 52.1932 
" clip-path="url(#p0734ce43f7)" style="fill: none; stroke: #b0b0b0; stroke-width: 0.8; stroke-linecap: square"/>
     </g>
     <g id="line2d_2">
      <defs>
       <path id="m29aa7afd26" d="M 0 0 
L 0 3.5 
" style="stroke: #000000; stroke-width: 0.8"/>
      </defs>
      <g>
       <use xlink:href="#m29aa7afd26" x="52.404261" y="340.4812" style="stroke: #000000; stroke-width: 0.8"/>
      </g>
     </g>
     <g id="text_1">
      <!-- 0 -->
      <g transform="translate(49.223011 355.079637)scale(0.1 -0.1)">
       <defs>
        <path id="DejaVuSans-30" d="M 2034 4250 
Q 1547 4250 1301 3770 
Q 1056 3291 1056 2328 
Q 1056 1369 1301 889 
Q 1547 409 2034 409 
Q 2525 409 2770 889 
Q 3016 1369 3016 2328 
Q 3016 3291 2770 3770 
Q 2525 4250 2034 4250 
z
M 2034 4750 
Q 2819 4750 3233 4129 
Q 3647 3509 3647 2328 
Q 3647 1150 3233 529 
Q 2819 -91 2034 -91 
Q 1250 -91 836 529 
Q 422 1150 422 2328 
Q 422 3509 836 4129 
Q 1250 4750 2034 4750 
z
" transform="scale(0.015625)"/>
       </defs>
       <use xlink:href="#DejaVuSans-30"/>
      </g>
     </g>
    </g>
    <g id="xtick_2">
     <g id="line2d_3">
      <path d="M 154.55044 340.4812 
L 154.55044 52.1932 
" clip-path="url(#p0734ce43f7)" style="fill: none; stroke: #b0b0b0; stroke-width: 0.8; stroke-linecap: square"/>
     </g>
     <g id="line2d_4">
      <g>
       <use xlink:href="#m29aa7afd26" x="154.55044" y="340.4812" style="stroke: #000000; stroke-width: 0.8"/>
      </g>
     </g>
     <g id="text_2">
      <!-- 20 -->
      <g transform="translate(148.18794 355.079637)scale(0.1 -0.1)">
       <defs>
        <path id="DejaVuSans-32" d="M 1228 531 
L 3431 531 
L 3431 0 
L 469 0 
L 469 531 
Q 828 903 1448 1529 
Q 2069 2156 2228 2338 
Q 2531 2678 2651 2914 
Q 2772 3150 2772 3378 
Q 2772 3750 2511 3984 
Q 2250 4219 1831 4219 
Q 1534 4219 1204 4116 
Q 875 4013 500 3803 
L 500 4441 
Q 881 4594 1212 4672 
Q 1544 4750 1819 4750 
Q 2544 4750 2975 4387 
Q 3406 4025 3406 3419 
Q 3406 3131 3298 2873 
Q 3191 2616 2906 2266 
Q 2828 2175 2409 1742 
Q 1991 1309 1228 531 
z
" transform="scale(0.015625)"/>
       </defs>
       <use xlink:href="#DejaVuSans-32"/>
       <use xlink:href="#DejaVuSans-30" x="63.623047"/>
      </g>
     </g>
    </g>
    <g id="xtick_3">
     <g id="line2d_5">
      <path d="M 256.696618 340.4812 
L 256.696618 52.1932 
" clip-path="url(#p0734ce43f7)" style="fill: none; stroke: #b0b0b0; stroke-width: 0.8; stroke-linecap: square"/>
     </g>
     <g id="line2d_6">
      <g>
       <use xlink:href="#m29aa7afd26" x="256.696618" y="340.4812" style="stroke: #000000; stroke-width: 0.8"/>
      </g>
     </g>
     <g id="text_3">
      <!-- 40 -->
      <g transform="translate(250.334118 355.079637)scale(0.1 -0.1)">
       <defs>
        <path id="DejaVuSans-34" d="M 2419 4116 
L 825 1625 
L 2419 1625 
L 2419 4116 
z
M 2253 4666 
L 3047 4666 
L 3047 1625 
L 3713 1625 
L 3713 1100 
L 3047 1100 
L 3047 0 
L 2419 0 
L 2419 1100 
L 313 1100 
L 313 1709 
L 2253 4666 
z
" transform="scale(0.015625)"/>
       </defs>
       <use xlink:href="#DejaVuSans-34"/>
       <use xlink:href="#DejaVuSans-30" x="63.623047"/>
      </g>
     </g>
    </g>
    <g id="xtick_4">
     <g id="line2d_7">
      <path d="M 358.842797 340.4812 
L 358.842797 52.1932 
" clip-path="url(#p0734ce43f7)" style="fill: none; stroke: #b0b0b0; stroke-width: 0.8; stroke-linecap: square"/>
     </g>
     <g id="line2d_8">
      <g>
       <use xlink:href="#m29aa7afd26" x="358.842797" y="340.4812" style="stroke: #000000; stroke-width: 0.8"/>
      </g>
     </g>
     <g id="text_4">
      <!-- 60 -->
      <g transform="translate(352.480297 355.079637)scale(0.1 -0.1)">
       <defs>
        <path id="DejaVuSans-36" d="M 2113 2584 
Q 1688 2584 1439 2293 
Q 1191 2003 1191 1497 
Q 1191 994 1439 701 
Q 1688 409 2113 409 
Q 2538 409 2786 701 
Q 3034 994 3034 1497 
Q 3034 2003 2786 2293 
Q 2538 2584 2113 2584 
z
M 3366 4563 
L 3366 3988 
Q 3128 4100 2886 4159 
Q 2644 4219 2406 4219 
Q 1781 4219 1451 3797 
Q 1122 3375 1075 2522 
Q 1259 2794 1537 2939 
Q 1816 3084 2150 3084 
Q 2853 3084 3261 2657 
Q 3669 2231 3669 1497 
Q 3669 778 3244 343 
Q 2819 -91 2113 -91 
Q 1303 -91 875 529 
Q 447 1150 447 2328 
Q 447 3434 972 4092 
Q 1497 4750 2381 4750 
Q 2619 4750 2861 4703 
Q 3103 4656 3366 4563 
z
" transform="scale(0.015625)"/>
       </defs>
       <use xlink:href="#DejaVuSans-36"/>
       <use xlink:href="#DejaVuSans-30" x="63.623047"/>
      </g>
     </g>
    </g>
    <g id="xtick_5">
     <g id="line2d_9">
      <path d="M 460.988975 340.4812 
L 460.988975 52.1932 
" clip-path="url(#p0734ce43f7)" style="fill: none; stroke: #b0b0b0; stroke-width: 0.8; stroke-linecap: square"/>
     </g>
     <g id="line2d_10">
      <g>
       <use xlink:href="#m29aa7afd26" x="460.988975" y="340.4812" style="stroke: #000000; stroke-width: 0.8"/>
      </g>
     </g>
     <g id="text_5">
      <!-- 80 -->
      <g transform="translate(454.626475 355.079637)scale(0.1 -0.1)">
       <defs>
        <path id="DejaVuSans-38" d="M 2034 2216 
Q 1584 2216 1326 1975 
Q 1069 1734 1069 1313 
Q 1069 891 1326 650 
Q 1584 409 2034 409 
Q 2484 409 2743 651 
Q 3003 894 3003 1313 
Q 3003 1734 2745 1975 
Q 2488 2216 2034 2216 
z
M 1403 2484 
Q 997 2584 770 2862 
Q 544 3141 544 3541 
Q 544 4100 942 4425 
Q 1341 4750 2034 4750 
Q 2731 4750 3128 4425 
Q 3525 4100 3525 3541 
Q 3525 3141 3298 2862 
Q 3072 2584 2669 2484 
Q 3125 2378 3379 2068 
Q 3634 1759 3634 1313 
Q 3634 634 3220 271 
Q 2806 -91 2034 -91 
Q 1263 -91 848 271 
Q 434 634 434 1313 
Q 434 1759 690 2068 
Q 947 2378 1403 2484 
z
M 1172 3481 
Q 1172 3119 1398 2916 
Q 1625 2713 2034 2713 
Q 2441 2713 2670 2916 
Q 2900 3119 2900 3481 
Q 2900 3844 2670 4047 
Q 2441 4250 2034 4250 
Q 1625 4250 1398 4047 
Q 1172 3844 1172 3481 
z
" transform="scale(0.015625)"/>
       </defs>
       <use xlink:href="#DejaVuSans-38"/>
       <use xlink:href="#DejaVuSans-30" x="63.623047"/>
      </g>
     </g>
    </g>
    <g id="xtick_6">
     <g id="line2d_11">
      <path d="M 563.135154 340.4812 
L 563.135154 52.1932 
" clip-path="url(#p0734ce43f7)" style="fill: none; stroke: #b0b0b0; stroke-width: 0.8; stroke-linecap: square"/>
     </g>
     <g id="line2d_12">
      <g>
       <use xlink:href="#m29aa7afd26" x="563.135154" y="340.4812" style="stroke: #000000; stroke-width: 0.8"/>
      </g>
     </g>
     <g id="text_6">
      <!-- 100 -->
      <g transform="translate(553.591404 355.079637)scale(0.1 -0.1)">
       <defs>
        <path id="DejaVuSans-31" d="M 794 531 
L 1825 531 
L 1825 4091 
L 703 3866 
L 703 4441 
L 1819 4666 
L 2450 4666 
L 2450 531 
L 3481 531 
L 3481 0 
L 794 0 
L 794 531 
z
" transform="scale(0.015625)"/>
       </defs>
       <use xlink:href="#DejaVuSans-31"/>
       <use xlink:href="#DejaVuSans-30" x="63.623047"/>
       <use xlink:href="#DejaVuSans-30" x="127.246094"/>
      </g>
     </g>
    </g>
    <g id="text_7">
     <!-- Track progress [%] -->
     <g transform="translate(259.55 368.757762)scale(0.1 -0.1)">
      <defs>
       <path id="DejaVuSans-54" d="M -19 4666 
L 3928 4666 
L 3928 4134 
L 2272 4134 
L 2272 0 
L 1638 0 
L 1638 4134 
L -19 4134 
L -19 4666 
z
" transform="scale(0.015625)"/>
       <path id="DejaVuSans-72" d="M 2631 2963 
Q 2534 3019 2420 3045 
Q 2306 3072 2169 3072 
Q 1681 3072 1420 2755 
Q 1159 2438 1159 1844 
L 1159 0 
L 581 0 
L 581 3500 
L 1159 3500 
L 1159 2956 
Q 1341 3275 1631 3429 
Q 1922 3584 2338 3584 
Q 2397 3584 2469 3576 
Q 2541 3569 2628 3553 
L 2631 2963 
z
" transform="scale(0.015625)"/>
       <path id="DejaVuSans-61" d="M 2194 1759 
Q 1497 1759 1228 1600 
Q 959 1441 959 1056 
Q 959 750 1161 570 
Q 1363 391 1709 391 
Q 2188 391 2477 730 
Q 2766 1069 2766 1631 
L 2766 1759 
L 2194 1759 
z
M 3341 1997 
L 3341 0 
L 2766 0 
L 2766 531 
Q 2569 213 2275 61 
Q 1981 -91 1556 -91 
Q 1019 -91 701 211 
Q 384 513 384 1019 
Q 384 1609 779 1909 
Q 1175 2209 1959 2209 
L 2766 2209 
L 2766 2266 
Q 2766 2663 2505 2880 
Q 2244 3097 1772 3097 
Q 1472 3097 1187 3025 
Q 903 2953 641 2809 
L 641 3341 
Q 956 3463 1253 3523 
Q 1550 3584 1831 3584 
Q 2591 3584 2966 3190 
Q 3341 2797 3341 1997 
z
" transform="scale(0.015625)"/>
       <path id="DejaVuSans-63" d="M 3122 3366 
L 3122 2828 
Q 2878 2963 2633 3030 
Q 2388 3097 2138 3097 
Q 1578 3097 1268 2742 
Q 959 2388 959 1747 
Q 959 1106 1268 751 
Q 1578 397 2138 397 
Q 2388 397 2633 464 
Q 2878 531 3122 666 
L 3122 134 
Q 2881 22 2623 -34 
Q 2366 -91 2075 -91 
Q 1284 -91 818 406 
Q 353 903 353 1747 
Q 353 2603 823 3093 
Q 1294 3584 2113 3584 
Q 2378 3584 2631 3529 
Q 2884 3475 3122 3366 
z
" transform="scale(0.015625)"/>
       <path id="DejaVuSans-6b" d="M 581 4863 
L 1159 4863 
L 1159 1991 
L 2875 3500 
L 3609 3500 
L 1753 1863 
L 3688 0 
L 2938 0 
L 1159 1709 
L 1159 0 
L 581 0 
L 581 4863 
z
" transform="scale(0.015625)"/>
       <path id="DejaVuSans-20" transform="scale(0.015625)"/>
       <path id="DejaVuSans-70" d="M 1159 525 
L 1159 -1331 
L 581 -1331 
L 581 3500 
L 1159 3500 
L 1159 2969 
Q 1341 3281 1617 3432 
Q 1894 3584 2278 3584 
Q 2916 3584 3314 3078 
Q 3713 2572 3713 1747 
Q 3713 922 3314 415 
Q 2916 -91 2278 -91 
Q 1894 -91 1617 61 
Q 1341 213 1159 525 
z
M 3116 1747 
Q 3116 2381 2855 2742 
Q 2594 3103 2138 3103 
Q 1681 3103 1420 2742 
Q 1159 2381 1159 1747 
Q 1159 1113 1420 752 
Q 1681 391 2138 391 
Q 2594 391 2855 752 
Q 3116 1113 3116 1747 
z
" transform="scale(0.015625)"/>
       <path id="DejaVuSans-6f" d="M 1959 3097 
Q 1497 3097 1228 2736 
Q 959 2375 959 1747 
Q 959 1119 1226 758 
Q 1494 397 1959 397 
Q 2419 397 2687 759 
Q 2956 1122 2956 1747 
Q 2956 2369 2687 2733 
Q 2419 3097 1959 3097 
z
M 1959 3584 
Q 2709 3584 3137 3096 
Q 3566 2609 3566 1747 
Q 3566 888 3137 398 
Q 2709 -91 1959 -91 
Q 1206 -91 779 398 
Q 353 888 353 1747 
Q 353 2609 779 3096 
Q 1206 3584 1959 3584 
z
" transform="scale(0.015625)"/>
       <path id="DejaVuSans-67" d="M 2906 1791 
Q 2906 2416 2648 2759 
Q 2391 3103 1925 3103 
Q 1463 3103 1205 2759 
Q 947 2416 947 1791 
Q 947 1169 1205 825 
Q 1463 481 1925 481 
Q 2391 481 2648 825 
Q 2906 1169 2906 1791 
z
M 3481 434 
Q 3481 -459 3084 -895 
Q 2688 -1331 1869 -1331 
Q 1566 -1331 1297 -1286 
Q 1028 -1241 775 -1147 
L 775 -588 
Q 1028 -725 1275 -790 
Q 1522 -856 1778 -856 
Q 2344 -856 2625 -561 
Q 2906 -266 2906 331 
L 2906 616 
Q 2728 306 2450 153 
Q 2172 0 1784 0 
Q 1141 0 747 490 
Q 353 981 353 1791 
Q 353 2603 747 3093 
Q 1141 3584 1784 3584 
Q 2172 3584 2450 3431 
Q 2728 3278 2906 2969 
L 2906 3500 
L 3481 3500 
L 3481 434 
z
" transform="scale(0.015625)"/>
       <path id="DejaVuSans-65" d="M 3597 1894 
L 3597 1613 
L 953 1613 
Q 991 1019 1311 708 
Q 1631 397 2203 397 
Q 2534 397 2845 478 
Q 3156 559 3463 722 
L 3463 178 
Q 3153 47 2828 -22 
Q 2503 -91 2169 -91 
Q 1331 -91 842 396 
Q 353 884 353 1716 
Q 353 2575 817 3079 
Q 1281 3584 2069 3584 
Q 2775 3584 3186 3129 
Q 3597 2675 3597 1894 
z
M 3022 2063 
Q 3016 2534 2758 2815 
Q 2500 3097 2075 3097 
Q 1594 3097 1305 2825 
Q 1016 2553 972 2059 
L 3022 2063 
z
" transform="scale(0.015625)"/>
       <path id="DejaVuSans-73" d="M 2834 3397 
L 2834 2853 
Q 2591 2978 2328 3040 
Q 2066 3103 1784 3103 
Q 1356 3103 1142 2972 
Q 928 2841 928 2578 
Q 928 2378 1081 2264 
Q 1234 2150 1697 2047 
L 1894 2003 
Q 2506 1872 2764 1633 
Q 3022 1394 3022 966 
Q 3022 478 2636 193 
Q 2250 -91 1575 -91 
Q 1294 -91 989 -36 
Q 684 19 347 128 
L 347 722 
Q 666 556 975 473 
Q 1284 391 1588 391 
Q 1994 391 2212 530 
Q 2431 669 2431 922 
Q 2431 1156 2273 1281 
Q 2116 1406 1581 1522 
L 1381 1569 
Q 847 1681 609 1914 
Q 372 2147 372 2553 
Q 372 3047 722 3315 
Q 1072 3584 1716 3584 
Q 2034 3584 2315 3537 
Q 2597 3491 2834 3397 
z
" transform="scale(0.015625)"/>
       <path id="DejaVuSans-5b" d="M 550 4863 
L 1875 4863 
L 1875 4416 
L 1125 4416 
L 1125 -397 
L 1875 -397 
L 1875 -844 
L 550 -844 
L 550 4863 
z
" transform="scale(0.015625)"/>
       <path id="DejaVuSans-25" d="M 4653 2053 
Q 4381 2053 4226 1822 
Q 4072 1591 4072 1178 
Q 4072 772 4226 539 
Q 4381 306 4653 306 
Q 4919 306 5073 539 
Q 5228 772 5228 1178 
Q 5228 1588 5073 1820 
Q 4919 2053 4653 2053 
z
M 4653 2450 
Q 5147 2450 5437 2106 
Q 5728 1763 5728 1178 
Q 5728 594 5436 251 
Q 5144 -91 4653 -91 
Q 4153 -91 3862 251 
Q 3572 594 3572 1178 
Q 3572 1766 3864 2108 
Q 4156 2450 4653 2450 
z
M 1428 4353 
Q 1159 4353 1004 4120 
Q 850 3888 850 3481 
Q 850 3069 1003 2837 
Q 1156 2606 1428 2606 
Q 1700 2606 1854 2837 
Q 2009 3069 2009 3481 
Q 2009 3884 1853 4118 
Q 1697 4353 1428 4353 
z
M 4250 4750 
L 4750 4750 
L 1831 -91 
L 1331 -91 
L 4250 4750 
z
M 1428 4750 
Q 1922 4750 2215 4408 
Q 2509 4066 2509 3481 
Q 2509 2891 2217 2550 
Q 1925 2209 1428 2209 
Q 931 2209 642 2551 
Q 353 2894 353 3481 
Q 353 4063 643 4406 
Q 934 4750 1428 4750 
z
" transform="scale(0.015625)"/>
       <path id="DejaVuSans-5d" d="M 1947 4863 
L 1947 -844 
L 622 -844 
L 622 -397 
L 1369 -397 
L 1369 4416 
L 622 4416 
L 622 4863 
L 1947 4863 
z
" transform="scale(0.015625)"/>
      </defs>
      <use xlink:href="#DejaVuSans-54"/>
      <use xlink:href="#DejaVuSans-72" x="46.333984"/>
      <use xlink:href="#DejaVuSans-61" x="87.447266"/>
      <use xlink:href="#DejaVuSans-63" x="148.726562"/>
      <use xlink:href="#DejaVuSans-6b" x="203.707031"/>
      <use xlink:href="#DejaVuSans-20" x="261.617188"/>
      <use xlink:href="#DejaVuSans-70" x="293.404297"/>
      <use xlink:href="#DejaVuSans-72" x="356.880859"/>
      <use xlink:href="#DejaVuSans-6f" x="395.744141"/>
      <use xlink:href="#DejaVuSans-67" x="456.925781"/>
      <use xlink:href="#DejaVuSans-72" x="520.402344"/>
      <use xlink:href="#DejaVuSans-65" x="559.265625"/>
      <use xlink:href="#DejaVuSans-73" x="620.789062"/>
      <use xlink:href="#DejaVuSans-73" x="672.888672"/>
      <use xlink:href="#DejaVuSans-20" x="724.988281"/>
      <use xlink:href="#DejaVuSans-5b" x="756.775391"/>
      <use xlink:href="#DejaVuSans-25" x="795.789062"/>
      <use xlink:href="#DejaVuSans-5d" x="890.808594"/>
     </g>
    </g>
   </g>
   <g id="matplotlib.axis_2">
    <g id="ytick_1">
     <g id="line2d_13">
      <path d="M 27.040625 302.0428 
L 585.040625 302.0428 
" clip-path="url(#p0734ce43f7)" style="fill: none; stroke: #b0b0b0; stroke-width: 0.8; stroke-linecap: square"/>
     </g>
     <g id="line2d_14">
      <defs>
       <path id="mb52769c3c0" d="M 0 0 
L -3.5 0 
" style="stroke: #000000; stroke-width: 0.8"/>
      </defs>
      <g>
       <use xlink:href="#mb52769c3c0" x="27.040625" y="302.0428" style="stroke: #000000; stroke-width: 0.8"/>
      </g>
     </g>
     <g id="text_8">
      <!-- 2 -->
      <g transform="translate(13.678125 305.842019)scale(0.1 -0.1)">
       <use xlink:href="#DejaVuSans-32"/>
      </g>
     </g>
    </g>
    <g id="ytick_2">
     <g id="line2d_15">
      <path d="M 27.040625 225.166 
L 585.040625 225.166 
" clip-path="url(#p0734ce43f7)" style="fill: none; stroke: #b0b0b0; stroke-width: 0.8; stroke-linecap: square"/>
     </g>
     <g id="line2d_16">
      <g>
       <use xlink:href="#mb52769c3c0" x="27.040625" y="225.166" style="stroke: #000000; stroke-width: 0.8"/>
      </g>
     </g>
     <g id="text_9">
      <!-- 4 -->
      <g transform="translate(13.678125 228.965219)scale(0.1 -0.1)">
       <use xlink:href="#DejaVuSans-34"/>
      </g>
     </g>
    </g>
    <g id="ytick_3">
     <g id="line2d_17">
      <path d="M 27.040625 148.2892 
L 585.040625 148.2892 
" clip-path="url(#p0734ce43f7)" style="fill: none; stroke: #b0b0b0; stroke-width: 0.8; stroke-linecap: square"/>
     </g>
     <g id="line2d_18">
      <g>
       <use xlink:href="#mb52769c3c0" x="27.040625" y="148.2892" style="stroke: #000000; stroke-width: 0.8"/>
      </g>
     </g>
     <g id="text_10">
      <!-- 6 -->
      <g transform="translate(13.678125 152.088419)scale(0.1 -0.1)">
       <use xlink:href="#DejaVuSans-36"/>
      </g>
     </g>
    </g>
    <g id="ytick_4">
     <g id="line2d_19">
      <path d="M 27.040625 71.4124 
L 585.040625 71.4124 
" clip-path="url(#p0734ce43f7)" style="fill: none; stroke: #b0b0b0; stroke-width: 0.8; stroke-linecap: square"/>
     </g>
     <g id="line2d_20">
      <g>
       <use xlink:href="#mb52769c3c0" x="27.040625" y="71.4124" style="stroke: #000000; stroke-width: 0.8"/>
      </g>
     </g>
     <g id="text_11">
      <!-- 8 -->
      <g transform="translate(13.678125 75.211619)scale(0.1 -0.1)">
       <use xlink:href="#DejaVuSans-38"/>
      </g>
     </g>
    </g>
    <g id="text_12">
     <!-- Speed [m/s] -->
     <g transform="translate(7.598437 226.662981)rotate(-90)scale(0.1 -0.1)">
      <defs>
       <path id="DejaVuSans-53" d="M 3425 4513 
L 3425 3897 
Q 3066 4069 2747 4153 
Q 2428 4238 2131 4238 
Q 1616 4238 1336 4038 
Q 1056 3838 1056 3469 
Q 1056 3159 1242 3001 
Q 1428 2844 1947 2747 
L 2328 2669 
Q 3034 2534 3370 2195 
Q 3706 1856 3706 1288 
Q 3706 609 3251 259 
Q 2797 -91 1919 -91 
Q 1588 -91 1214 -16 
Q 841 59 441 206 
L 441 856 
Q 825 641 1194 531 
Q 1563 422 1919 422 
Q 2459 422 2753 634 
Q 3047 847 3047 1241 
Q 3047 1584 2836 1778 
Q 2625 1972 2144 2069 
L 1759 2144 
Q 1053 2284 737 2584 
Q 422 2884 422 3419 
Q 422 4038 858 4394 
Q 1294 4750 2059 4750 
Q 2388 4750 2728 4690 
Q 3069 4631 3425 4513 
z
" transform="scale(0.015625)"/>
       <path id="DejaVuSans-64" d="M 2906 2969 
L 2906 4863 
L 3481 4863 
L 3481 0 
L 2906 0 
L 2906 525 
Q 2725 213 2448 61 
Q 2172 -91 1784 -91 
Q 1150 -91 751 415 
Q 353 922 353 1747 
Q 353 2572 751 3078 
Q 1150 3584 1784 3584 
Q 2172 3584 2448 3432 
Q 2725 3281 2906 2969 
z
M 947 1747 
Q 947 1113 1208 752 
Q 1469 391 1925 391 
Q 2381 391 2643 752 
Q 2906 1113 2906 1747 
Q 2906 2381 2643 2742 
Q 2381 3103 1925 3103 
Q 1469 3103 1208 2742 
Q 947 2381 947 1747 
z
" transform="scale(0.015625)"/>
       <path id="DejaVuSans-6d" d="M 3328 2828 
Q 3544 3216 3844 3400 
Q 4144 3584 4550 3584 
Q 5097 3584 5394 3201 
Q 5691 2819 5691 2113 
L 5691 0 
L 5113 0 
L 5113 2094 
Q 5113 2597 4934 2840 
Q 4756 3084 4391 3084 
Q 3944 3084 3684 2787 
Q 3425 2491 3425 1978 
L 3425 0 
L 2847 0 
L 2847 2094 
Q 2847 2600 2669 2842 
Q 2491 3084 2119 3084 
Q 1678 3084 1418 2786 
Q 1159 2488 1159 1978 
L 1159 0 
L 581 0 
L 581 3500 
L 1159 3500 
L 1159 2956 
Q 1356 3278 1631 3431 
Q 1906 3584 2284 3584 
Q 2666 3584 2933 3390 
Q 3200 3197 3328 2828 
z
" transform="scale(0.015625)"/>
       <path id="DejaVuSans-2f" d="M 1625 4666 
L 2156 4666 
L 531 -594 
L 0 -594 
L 1625 4666 
z
" transform="scale(0.015625)"/>
      </defs>
      <use xlink:href="#DejaVuSans-53"/>
      <use xlink:href="#DejaVuSans-70" x="63.476562"/>
      <use xlink:href="#DejaVuSans-65" x="126.953125"/>
      <use xlink:href="#DejaVuSans-65" x="188.476562"/>
      <use xlink:href="#DejaVuSans-64" x="250"/>
      <use xlink:href="#DejaVuSans-20" x="313.476562"/>
      <use xlink:href="#DejaVuSans-5b" x="345.263672"/>
      <use xlink:href="#DejaVuSans-6d" x="384.277344"/>
      <use xlink:href="#DejaVuSans-2f" x="481.689453"/>
      <use xlink:href="#DejaVuSans-73" x="515.380859"/>
      <use xlink:href="#DejaVuSans-5d" x="567.480469"/>
     </g>
    </g>
   </g>
   <g id="line2d_21">
    <path d="M 52.404261 371.83745 
L 52.444456 343.398728 
L 52.71128 334.259999 
L 52.71128 315.982539 
L 52.889163 306.84381 
L 52.889163 297.70508 
L 53.511752 279.427621 
L 53.511752 270.423662 
L 53.511752 288.701121 
L 53.511752 283.884461 
L 54.075048 280.245231 
L 54.341872 275.623107 
L 55.053402 266.748402 
L 55.053402 257.64548 
L 56.091052 248.626422 
L 56.535758 257.765151 
L 57.158348 266.903881 
L 57.158348 294.213405 
L 57.810584 292.122409 
L 57.810584 319.538598 
L 58.433174 310.399868 
L 58.433174 294.244502 
L 59.619059 285.105772 
L 59.619059 263.024759 
L 61.012473 258.518918 
L 61.190356 256.248783 
L 61.190356 232.335993 
L 62.554123 225.772427 
L 62.732006 219.531657 
L 63.117418 215.408829 
L 63.295301 211.480759 
L 63.295301 202.928375 
L 64.481186 200.542809 
L 65.222364 193.697009 
L 65.963542 189.479717 
L 66.348954 187.772941 
L 66.70472 191.092304 
L 67.83131 182.610806 
L 68.187075 181.565902 
L 68.928253 176.991103 
L 69.313666 177.98983 
L 69.669431 187.128559 
L 70.054844 186.297245 
L 70.410609 186.095866 
L 70.796022 185.684623 
L 71.151787 184.953012 
L 71.5372 182.033467 
L 71.892965 181.672356 
L 72.278378 181.984401 
L 72.634143 180.412594 
L 73.019556 180.296178 
L 74.383323 180.033892 
L 74.383323 195.638726 
L 74.561206 194.119806 
L 74.946618 192.054419 
L 75.302384 189.267986 
L 75.687796 197.778184 
L 76.043562 195.423019 
L 76.428974 193.638799 
L 76.78474 193.57202 
L 77.91133 189.72008 
L 79.097215 189.206251 
L 79.097215 187.501762 
L 79.45298 185.423566 
L 79.838393 184.703583 
L 80.194158 187.246734 
L 80.935336 183.750621 
L 81.320748 191.504645 
L 81.676514 188.900816 
L 81.884044 188.291689 
L 82.239809 190.923573 
L 82.625222 195.133623 
L 83.811106 195.178254 
L 83.811106 203.45583 
L 83.811106 202.411887 
L 84.374402 218.609916 
L 84.730167 213.349953 
L 85.293462 209.425244 
L 85.649228 206.620101 
L 86.03464 207.99054 
L 86.390406 209.867164 
L 86.597935 208.352277 
L 86.953701 213.39617 
L 87.339113 211.173082 
L 88.524998 213.079349 
L 88.524998 209.703381 
L 88.702881 209.141192 
L 89.058646 205.916405 
L 89.266176 211.693366 
L 89.621941 218.297218 
L 90.007354 217.030842 
L 90.185237 213.407987 
L 90.926415 212.660536 
L 91.28218 209.662022 
L 91.48971 212.881206 
L 92.230888 229.93458 
L 93.209243 225.003338 
L 93.209243 223.492552 
L 93.209243 223.955628 
L 93.416772 221.491226 
L 93.772538 221.108569 
L 93.950421 218.878482 
L 94.335833 218.854467 
L 94.691598 217.958392 
L 94.899128 227.097122 
L 95.254894 235.756356 
L 96.262896 244.895085 
L 96.262896 243.702197 
L 96.262896 252.840927 
L 96.262896 248.129864 
L 96.648308 249.720034 
L 97.44878 247.119494 
L 97.44878 256.258224 
L 97.44878 251.227014 
L 97.626663 247.587178 
L 97.834193 240.855241 
L 98.812548 239.303894 
L 98.812548 232.997676 
L 99.82055 231.868783 
L 99.82055 231.35904 
L 100.472786 240.497769 
L 100.917493 231.563699 
L 100.917493 240.702428 
L 102.844556 240.098429 
L 103.022438 249.237159 
L 103.022438 258.375888 
L 104.208323 267.514618 
L 104.208323 250.295499 
L 104.386206 250.925519 
L 104.386206 246.267347 
L 105.097737 250.601216 
L 105.097737 250.601216 
" clip-path="url(#p0734ce43f7)" style="fill: none; stroke: #ff3f34; stroke-opacity: 0.99; stroke-width: 2.4; stroke-linecap: square"/>
   </g>
   <g id="line2d_22">
    <path d="M 52.404261 371.83745 
L 52.444456 343.20751 
L 52.71128 334.068781 
L 52.71128 315.791322 
L 52.889163 306.652592 
L 52.889163 297.513862 
L 53.244928 288.375133 
L 53.244928 279.236403 
L 53.511752 270.097674 
L 53.511752 251.820214 
L 54.075048 242.681485 
L 54.341872 233.542755 
L 55.053402 224.404026 
L 55.320226 215.265296 
L 57.158348 198.471582 
L 57.158348 190.803589 
L 57.810584 183.673398 
L 57.810584 177.550959 
L 58.433174 171.967286 
L 59.619059 166.706831 
L 59.619059 159.120121 
L 61.012473 155.894114 
L 61.190356 152.796908 
L 61.190356 149.85137 
L 62.37624 147.159422 
L 62.732006 144.24564 
L 63.295301 141.524123 
L 63.295301 136.7431 
L 64.659068 134.439893 
L 65.222364 132.697025 
L 65.607776 130.93889 
L 67.445898 126.389765 
L 70.410609 122.296415 
L 70.973904 121.835378 
L 71.892965 120.831205 
L 72.45626 120.498061 
L 73.375321 120.337095 
L 74.383323 120.84993 
L 74.561206 121.885037 
L 74.946618 121.989503 
L 75.509913 121.986394 
L 76.043562 122.522076 
L 76.428974 126.701965 
L 77.525917 129.71525 
L 77.91133 135.291766 
L 79.097215 137.973125 
L 79.097215 140.849531 
L 80.194158 142.942045 
L 81.142866 141.972019 
L 81.676514 141.355788 
L 82.061926 140.39143 
L 82.625222 140.66645 
L 83.811106 141.588818 
L 83.811106 141.812722 
L 83.988989 143.895071 
L 85.293462 148.268436 
L 85.649228 148.22775 
L 86.212523 150.843794 
L 86.597935 155.253423 
L 87.131584 154.884893 
L 88.524998 154.871117 
L 88.524998 152.789367 
L 88.880763 152.748078 
L 89.266176 153.393011 
L 89.799824 155.356288 
L 90.541002 160.10775 
L 91.845475 178.009111 
L 93.209243 184.436209 
L 93.209243 190.479622 
L 93.416772 190.053048 
L 93.772538 190.515908 
L 94.15795 192.000056 
L 94.513716 195.676606 
L 94.691598 195.440658 
L 95.077011 196.048389 
L 96.262896 197.644095 
L 96.262896 201.069893 
L 97.44878 200.434086 
L 97.44878 197.934429 
L 97.626663 195.868036 
L 98.812548 193.86883 
L 98.812548 188.094603 
L 99.82055 184.434616 
L 100.650669 179.086968 
L 103.022438 173.633925 
L 103.022438 167.755234 
L 104.208323 162.667495 
L 104.386206 158.512287 
L 105.097737 155.213284 
L 105.720326 153.184144 
L 107.173035 150.625848 
L 107.173035 149.004981 
L 107.795624 146.320682 
L 107.795624 143.498481 
L 109.07045 138.486719 
L 109.69304 136.344704 
L 110.523159 134.069498 
L 110.523159 132.459944 
L 111.145749 130.907167 
L 111.975868 129.472497 
L 111.975868 128.491117 
L 112.598457 127.600575 
L 113.428577 126.687983 
L 113.428577 125.932483 
L 114.673756 124.109096 
L 115.503875 123.423585 
L 115.681758 122.923421 
L 116.126464 122.584771 
L 116.956584 122.246946 
L 117.579173 122.113743 
L 117.786703 122.327739 
L 118.23141 122.136531 
L 119.031882 122.520262 
L 119.684118 122.383019 
L 120.484591 123.070701 
L 120.484591 123.744301 
L 121.10718 124.120223 
L 122.559889 130.502707 
L 122.559889 135.044042 
L 124.012598 139.32078 
L 124.012598 138.760884 
L 124.664834 139.838332 
L 125.465306 139.628597 
L 125.465306 140.87273 
L 126.117543 140.606782 
L 126.740132 140.736357 
L 127.570252 139.982002 
L 127.570252 139.369817 
L 128.993313 137.659635 
L 128.993313 136.92331 
L 129.64555 136.010403 
L 130.268139 134.618883 
L 130.268139 133.342418 
L 131.720848 131.514648 
L 132.550967 131.024959 
L 132.550967 130.491141 
L 133.173557 129.737533 
L 134.003676 129.342973 
L 134.003676 128.857817 
L 135.248855 128.570965 
L 136.078974 128.034014 
L 136.078974 127.635958 
L 136.701564 127.095226 
L 137.531683 126.941554 
L 137.531683 126.350743 
L 138.154273 126.215875 
L 138.776862 125.850827 
L 139.606981 126.800156 
L 139.606981 126.286675 
L 140.229571 125.982651 
L 141.05969 125.781374 
L 141.68228 126.995532 
L 141.68228 126.824648 
L 142.334516 126.458961 
L 143.134988 126.252274 
L 143.787225 125.794097 
L 144.587697 126.25936 
L 144.587697 126.64652 
L 145.239934 126.494341 
L 146.040406 126.651581 
L 146.040406 126.577598 
L 146.662995 126.582749 
L 147.315232 126.385968 
L 148.115704 126.298749 
L 148.115704 126.096471 
L 148.767941 126.215871 
L 149.568413 125.898561 
L 149.568413 125.61961 
L 150.220649 125.326078 
L 150.843239 124.770151 
L 151.673358 124.257981 
L 151.673358 123.758038 
L 153.09642 122.800433 
L 153.748656 122.13632 
L 154.371246 122.729691 
L 156.654074 121.790244 
L 156.654074 121.365777 
L 157.276663 120.907935 
L 158.106783 120.522413 
L 158.106783 120.187439 
L 160.182081 118.652033 
L 160.182081 119.100313 
L 160.80467 119.740871 
L 161.63479 119.648835 
L 162.257379 119.45445 
L 162.879969 118.939949 
L 163.710088 119.820918 
L 163.710088 119.287321 
L 165.162797 118.847515 
L 165.162797 118.595563 
L 166.437623 117.807038 
L 167.238095 118.88572 
L 167.238095 118.560884 
L 167.890331 118.25269 
L 168.690804 118.632124 
L 169.34304 120.359901 
L 169.34304 120.35126 
L 170.143512 122.112331 
L 170.766102 123.152223 
L 171.418338 122.835837 
L 172.218811 124.503523 
L 172.218811 124.213522 
L 172.871047 123.934695 
L 173.493637 124.432326 
L 173.671519 126.851991 
L 174.560933 127.1431 
L 174.768463 128.938331 
L 175.213169 130.447906 
L 175.835759 130.25148 
L 176.280466 131.390843 
L 176.725172 131.925103 
L 177.377409 134.344104 
L 177.822116 137.057802 
L 178.266823 136.976664 
L 178.978353 137.445759 
L 179.156236 136.948151 
L 179.867767 136.683001 
L 180.312474 136.636687 
L 180.75718 136.290475 
L 181.290829 136.170851 
L 181.913418 135.915932 
L 182.447066 136.582674 
L 182.624949 137.477009 
L 183.33648 137.32085 
L 183.781186 138.221691 
L 184.314835 137.768596 
L 184.492717 138.531829 
L 185.293189 137.99427 
L 185.471072 137.066058 
L 186.182603 136.749929 
L 186.894134 136.6634 
L 186.894134 136.507653 
L 187.842842 135.993552 
L 187.842842 134.804256 
L 188.821196 133.672135 
L 188.821196 132.570169 
L 190.333199 130.199745 
L 190.511082 129.452797 
L 191.281907 129.178524 
L 191.489437 128.098913 
L 192.438145 127.273423 
L 192.438145 126.999645 
L 192.704969 126.22708 
L 193.683324 125.74803 
L 194.661679 125.571967 
L 194.661679 125.369955 
L 195.640033 124.918076 
L 195.640033 124.921663 
L 196.855565 124.514921 
L 196.855565 124.227185 
L 197.922861 124.170108 
L 198.100744 123.790411 
L 199.316276 123.171784 
L 200.561455 123.396459 
L 200.561455 124.418053 
L 200.828279 124.163609 
L 201.806634 125.754845 
L 201.806634 125.367327 
L 202.310635 125.138392 
L 203.28899 125.069858 
L 203.28899 125.326166 
L 203.822638 125.199889 
L 204.771346 124.742011 
L 204.771346 124.584227 
L 206.816997 123.394498 
L 208.032528 123.899097 
L 208.032528 125.529172 
L 208.299353 125.385664 
L 208.833001 125.870642 
L 210.048532 126.708625 
L 210.048532 126.366982 
L 210.315357 126.12734 
L 210.849005 125.967517 
L 211.382653 126.249654 
L 212.331361 127.663664 
L 212.331361 128.765714 
L 212.865009 129.690367 
L 214.614189 131.883014 
L 214.614189 133.181238 
L 214.881013 134.297474 
L 215.681485 134.222694 
L 216.985958 135.312234 
L 217.163841 136.505802 
L 217.163841 139.775448 
L 217.697489 140.418357 
L 218.468314 140.257302 
L 219.980317 140.776499 
L 219.980317 139.898169 
L 220.484318 140.133462 
L 221.017966 140.677892 
L 221.28479 141.713411 
L 222.500322 143.364635 
L 222.500322 147.672224 
L 223.300794 160.082723 
L 223.567618 166.742778 
L 224.101266 171.489708 
L 225.138915 175.675311 
L 225.316798 177.260674 
L 225.316798 179.44377 
L 226.11727 181.45594 
L 226.354447 182.708521 
L 227.154919 181.581453 
L 228.400098 181.04307 
L 228.400098 186.087189 
L 228.637275 189.237447 
L 229.170923 188.838623 
L 229.437747 192.970408 
L 229.704571 192.965502 
L 230.208572 192.371725 
L 230.475396 192.775184 
L 231.720575 194.94996 
L 233.143637 194.230993 
L 234.388816 193.987483 
L 234.388816 190.223201 
L 235.396818 188.218617 
L 235.396818 184.967882 
L 236.582703 181.386075 
L 236.582703 176.469329 
L 237.857529 170.528825 
L 237.857529 164.885029 
L 239.043413 159.949479 
L 239.043413 156.089888 
L 240.229298 152.999045 
L 240.229298 150.863656 
L 241.059417 149.094206 
L 241.85989 146.898886 
L 243.371893 144.655458 
L 243.638717 142.168753 
L 244.142718 139.689516 
L 244.409542 137.519765 
L 245.476838 133.95061 
L 245.714015 132.492754 
L 246.247663 131.067319 
L 246.781311 130.348437 
L 247.552136 130.269861 
L 248.085784 129.916611 
L 248.619432 132.443855 
L 248.856609 135.527219 
L 249.56814 139.009073 
L 249.834964 143.892698 
L 250.546495 146.05081 
L 250.813319 148.077392 
L 251.702733 149.133637 
L 252.147439 148.874553 
L 252.592146 149.566969 
L 253.570501 157.14133 
L 254.19309 157.044841 
L 254.667444 158.701634 
L 255.112151 158.35596 
L 255.556858 158.167349 
L 255.556858 157.951317 
L 256.35733 157.798775 
L 256.624154 157.325838 
L 257.246743 157.151479 
L 257.721097 158.576653 
L 257.721097 160.16272 
L 258.699452 162.346105 
L 258.966276 163.67786 
L 259.618513 163.338836 
L 259.618513 164.476742 
L 260.241102 165.624677 
L 260.241102 165.167395 
L 261.871694 169.677766 
L 261.871694 172.289336 
L 262.701813 178.327246 
L 262.701813 191.851025 
L 263.709815 193.155308 
L 264.332405 194.364633 
L 264.332405 196.664162 
L 264.332405 196.465361 
L 265.132877 198.989492 
L 265.132877 202.937782 
L 266.140879 204.909989 
L 266.140879 205.633356 
L 266.793115 206.021789 
L 267.237822 205.821826 
L 267.237822 205.495981 
L 267.860412 204.344977 
L 267.860412 202.56496 
L 269.846768 200.326438 
L 271.951714 197.75756 
L 271.951714 194.313993 
L 272.781833 191.454645 
L 272.781833 188.622418 
L 273.789835 185.561695 
L 273.789835 181.310163 
L 274.97572 177.246696 
L 276.547017 171.44939 
L 276.547017 160.509539 
L 277.910784 155.556933 
L 277.910784 148.965908 
L 279.719259 147.320308 
L 280.371495 146.929844 
L 280.371495 146.43065 
L 281.438791 146.240339 
L 281.438791 144.773992 
L 283.336207 137.791468 
L 284.22562 133.328397 
L 285.76727 128.922224 
L 286.834567 127.534758 
L 287.279273 127.099972 
L 288.435511 126.516094 
L 288.880218 126.528996 
L 289.591749 126.032236 
L 290.036455 126.077682 
L 290.510809 126.338186 
L 290.955516 126.206309 
L 291.84493 126.698839 
L 292.55646 126.644457 
L 293.17905 127.266692 
L 294.335287 127.096182 
L 294.602111 129.408886 
L 295.224701 131.129257 
L 295.936232 133.422606 
L 296.647763 138.67689 
L 297.270352 139.890829 
L 297.981883 142.682965 
L 298.248707 144.280702 
L 299.13812 146.816598 
L 299.582827 149.874639 
L 300.057181 151.471098 
L 300.768712 154.960516 
L 301.213419 154.760939 
L 301.450596 154.874977 
L 301.924949 154.3851 
L 302.369656 154.324363 
L 303.081187 155.276467 
L 303.525894 156.149232 
L 303.970601 159.455424 
L 304.237425 162.304317 
L 304.682131 163.090294 
L 305.126838 165.197644 
L 305.571545 165.498787 
L 306.016252 167.441433 
L 306.460958 170.404106 
L 306.994607 172.246995 
L 307.528255 178.753408 
L 308.180491 181.181101 
L 308.358374 179.94254 
L 308.980963 178.18427 
L 308.980963 176.821482 
L 309.988965 175.111114 
L 309.988965 174.294657 
L 310.878379 174.743315 
L 311.263791 175.211107 
L 312.064264 175.10112 
L 312.064264 174.554475 
L 313.072266 174.191426 
L 313.457678 175.549267 
L 313.724502 175.806958 
L 314.88074 175.635869 
L 315.384741 174.73946 
L 316.748508 173.610508 
L 316.748508 172.125779 
L 317.815804 171.654353 
L 317.993687 173.674081 
L 318.201217 174.169572 
L 318.823806 173.143824 
L 319.001689 172.022423 
L 319.624279 170.718771 
L 320.187574 167.882992 
L 320.365457 166.38571 
L 321.195576 165.31253 
L 321.195576 164.10186 
L 322.025695 163.242934 
L 322.025695 165.45328 
L 322.381461 164.935796 
L 322.766873 163.727278 
L 323.745228 163.652631 
L 323.745228 162.017062 
L 323.952758 161.069372 
L 325.316525 159.87814 
L 325.316525 159.102391 
L 326.50241 159.019854 
L 327.124999 164.895709 
L 327.124999 177.62171 
L 328.133001 184.08851 
L 328.963121 185.376925 
L 329.407827 187.305662 
L 329.674651 189.628194 
L 330.119358 189.447449 
L 330.564065 188.442646 
L 331.008772 185.445397 
L 331.898185 182.737123 
L 331.898185 179.535971 
L 332.609716 177.089387 
L 332.609716 175.039472 
L 333.854895 173.456442 
L 334.358896 173.793208 
L 334.62572 175.728941 
L 335.159368 180.960298 
L 335.426192 181.327778 
L 335.95984 181.21891 
L 336.197017 180.984358 
L 336.730665 181.192705 
L 337.975844 183.74554 
L 337.975844 182.696945 
L 338.687375 178.721908 
L 339.132082 173.818928 
L 339.132082 169.87548 
L 340.08079 165.331248 
L 341.177733 161.216983 
L 341.177733 157.405267 
L 341.978205 155.400614 
L 342.808324 154.799807 
L 342.808324 158.999439 
L 343.638444 164.028933 
L 343.638444 167.02803 
L 345.002211 169.316358 
L 345.002211 168.14393 
L 346.188096 166.495671 
L 346.751391 161.885467 
L 346.751391 152.454626 
L 348.115158 148.578034 
L 348.856336 142.23572 
L 349.419632 139.428928 
L 350.783399 137.355683 
L 350.783399 135.826632 
L 350.961282 135.950771 
L 351.346694 139.872907 
L 351.90999 139.626505 
L 352.265755 139.309128 
L 353.45164 137.96894 
L 353.45164 136.374294 
L 353.837052 134.417424 
L 354.845054 132.516856 
L 354.845054 130.616903 
L 356.030939 128.991826 
L 356.030939 127.580785 
L 356.208822 126.374138 
L 357.572589 126.049797 
L 357.572589 124.997728 
L 357.780119 124.210357 
L 358.966003 123.738703 
L 358.966003 123.482483 
L 359.974005 123.577132 
L 360.774478 123.482703 
L 360.774478 123.30821 
L 361.78248 123.140382 
L 361.78248 122.945413 
L 362.612599 122.591108 
L 363.383424 122.096561 
L 363.383424 121.157704 
L 364.183896 120.811762 
L 365.162251 121.040241 
L 365.99237 120.871017 
L 365.99237 120.983859 
L 366.644607 121.531783 
L 366.644607 121.148876 
L 367.652609 122.068627 
L 368.453081 121.471811 
L 368.453081 120.527741 
L 369.2832 120.370283 
L 370.083673 119.601275 
L 371.536381 119.377728 
L 371.536381 119.05148 
L 373.19662 118.76637 
L 373.819209 119.661985 
L 375.271918 118.899162 
L 375.894508 118.911507 
L 376.546744 120.70992 
L 376.90251 120.278025 
L 377.169334 120.21535 
L 377.791923 120.283568 
L 378.977808 120.085915 
L 379.244632 121.467898 
L 379.867221 122.598511 
L 380.519458 125.461979 
L 381.764637 124.98947 
L 382.416873 125.587588 
L 382.416873 125.920035 
L 383.662052 125.499385 
L 384.492172 129.507454 
L 384.492172 131.019978 
L 385.114761 133.830083 
L 385.766998 134.402818 
L 386.389587 136.817381 
L 387.012177 136.78265 
L 387.012177 140.020829 
L 387.664413 139.983456 
L 388.287003 141.741222 
L 388.909592 142.052914 
L 389.561829 142.917869 
L 389.561829 142.749289 
L 390.184418 142.330612 
L 390.807008 145.347791 
L 390.807008 145.992032 
L 391.637127 145.879729 
L 392.259716 148.349191 
L 392.911953 148.929606 
L 392.911953 150.996539 
L 393.534542 154.50882 
L 394.157132 158.892521 
L 394.809368 162.48864 
L 394.809368 167.193785 
L 395.431958 172.692827 
L 396.054547 175.837195 
L 396.054547 178.213393 
L 397.329373 185.449458 
L 397.329373 188.36576 
L 397.951963 188.833352 
L 398.6042 192.929986 
L 398.6042 193.660185 
L 399.226789 193.237043 
L 399.226789 196.102066 
L 399.849378 197.807028 
L 400.501615 197.683453 
L 400.501615 200.033109 
L 401.124204 199.438438 
L 401.568911 199.175586 
L 402.013618 198.651452 
L 402.013618 197.055796 
L 402.665855 195.757817 
L 402.903032 194.478289 
L 405.482331 192.383436 
L 406.401391 191.217343 
L 407.379746 191.117214 
L 407.379746 185.006439 
L 408.565631 180.791103 
L 408.565631 171.51439 
L 409.781163 168.091951 
L 409.781163 165.408224 
L 411.589637 163.201042 
L 411.589637 162.437065 
L 411.945402 162.83434 
L 412.330815 164.667723 
L 413.5167 165.164497 
L 413.5167 165.082631 
L 413.694582 164.199733 
L 415.087997 162.200771 
L 415.087997 158.51409 
L 415.888469 155.462511 
L 415.888469 152.777993 
L 416.896471 150.120087 
L 416.896471 147.507083 
L 418.527062 142.724281 
L 418.793886 140.662984 
L 420.068713 137.12208 
L 420.068713 135.961588 
L 420.869185 134.943813 
L 421.136009 134.239094 
L 422.410835 132.39551 
L 422.855542 131.049799 
L 423.478131 130.096895 
L 423.922838 128.984202 
L 424.575074 128.197109 
L 425.019781 127.923761 
L 425.731312 127.305649 
L 426.176019 127.207758 
L 428.132728 126.180816 
L 428.784965 126.027737 
L 430.830616 124.589609 
L 431.542147 124.124066 
L 431.986854 123.628782 
L 432.431561 123.341991 
L 432.876267 123.685099 
L 433.587798 123.508121 
L 434.032505 123.91596 
L 434.744036 124.078867 
L 435.01086 123.987239 
L 435.633449 124.132925 
L 436.34498 123.81142 
L 437.056511 123.340199 
L 437.323335 122.960397 
L 438.034866 122.831415 
L 438.30169 122.372718 
L 439.280045 121.819001 
L 440.228752 121.810457 
L 440.495576 122.19464 
L 441.740755 122.962237 
L 442.244756 122.755336 
L 442.778405 122.343358 
L 443.045229 121.870834 
L 443.756759 121.296152 
L 444.290407 121.091597 
L 444.794408 120.588804 
L 445.328057 120.559121 
L 445.861705 120.400815 
L 446.899354 119.533431 
L 447.937003 122.034432 
L 448.470651 121.742764 
L 448.737475 121.254471 
L 449.775124 121.118887 
L 449.953007 120.680447 
L 450.486655 120.957306 
L 451.020303 120.970766 
L 451.287127 120.352422 
L 451.791128 120.731854 
L 453.036307 120.652703 
L 453.569955 121.56257 
L 453.807132 122.440259 
L 454.34078 122.311111 
L 455.319135 121.713812 
L 455.585959 121.415813 
L 455.852783 121.335306 
L 456.890432 121.212403 
L 457.068315 121.697197 
L 457.601963 123.616826 
L 458.372788 123.562126 
L 458.580318 125.064693 
L 459.084319 127.174156 
L 459.884791 127.1303 
L 460.062674 128.956285 
L 460.596322 129.166029 
L 461.367147 130.876913 
L 461.54503 132.193329 
L 462.078678 133.400316 
L 462.790209 135.762953 
L 463.057033 138.265711 
L 463.827858 139.237122 
L 464.035388 139.896222 
L 464.539389 140.719362 
L 465.073037 140.536089 
L 465.784568 144.688022 
L 466.496098 145.299249 
L 466.762923 145.071223 
L 467.266924 144.939493 
L 467.71163 146.755881 
L 468.245278 147.584574 
L 468.689985 146.11048 
L 469.223633 145.392237 
L 469.490457 146.228285 
L 470.201988 147.199012 
L 470.468812 148.930978 
L 471.506461 148.128722 
L 472.484816 148.09363 
L 473.107406 148.75818 
L 473.552112 148.103307 
L 474.174702 148.62046 
L 475.004821 151.030852 
L 475.390234 153.834911 
L 476.012823 153.469005 
L 476.368589 152.902534 
L 477.376591 151.929591 
L 477.554473 150.667413 
L 478.117769 150.178418 
L 478.503181 148.828268 
L 478.858946 148.236554 
L 480.16342 144.917946 
L 480.519185 143.341831 
L 481.734717 142.409049 
L 482.090482 141.4104 
L 482.090482 140.672937 
L 483.098484 140.490591 
L 483.45425 139.460656 
L 483.45425 140.103837 
L 484.462252 140.020493 
L 484.462252 141.641212 
L 485.114488 141.15806 
L 485.91496 139.968228 
L 485.91496 138.498818 
L 486.53755 137.26131 
L 487.189786 136.240388 
L 487.990259 135.391617 
L 487.990259 134.906066 
L 488.434965 134.592214 
L 489.087202 133.825898 
L 489.709791 132.902364 
L 490.362028 132.438789 
L 490.984617 131.491967 
L 490.984617 130.566845 
L 492.259444 128.376685 
L 493.890035 126.670062 
L 493.890035 125.124499 
L 494.690507 123.625823 
L 495.520626 122.973464 
L 495.520626 122.758733 
L 496.321099 124.236677 
L 496.321099 128.555848 
L 497.329101 132.381908 
L 497.329101 137.342131 
L 498.337103 139.931968 
L 498.337103 139.129541 
L 499.345105 137.330225 
L 499.345105 135.080878 
L 500.353107 132.691805 
L 500.353107 130.961715 
L 501.538991 129.765236 
L 501.538991 128.757157 
L 502.546993 127.818986 
L 502.546993 127.183396 
L 503.554995 126.67877 
L 503.554995 126.225952 
L 504.53335 125.913948 
L 504.53335 125.285378 
L 505.541352 125.248594 
L 505.541352 124.903379 
L 506.727237 124.622472 
L 507.735239 124.240061 
L 507.735239 123.742455 
L 508.743241 124.826275 
L 508.743241 124.591387 
L 509.751243 125.383002 
L 509.751243 125.070562 
L 510.759245 124.972118 
L 510.759245 124.517518 
L 512.953132 124.348677 
L 512.953132 124.676757 
L 513.931486 124.629828 
L 514.939488 124.419802 
L 514.939488 126.350472 
L 515.94749 126.762116 
L 515.94749 126.669633 
L 516.955492 126.295978 
L 516.955492 126.134369 
L 518.141377 126.99662 
L 518.141377 126.672185 
L 519.149379 128.137143 
L 519.149379 127.807369 
L 520.157381 127.471131 
L 520.157381 126.933404 
L 521.165383 126.500963 
L 521.165383 126.271533 
L 523.35927 125.676407 
L 523.35927 125.355167 
L 524.337625 124.686698 
L 524.337625 124.483098 
L 525.345627 123.969666 
L 526.353629 123.828621 
L 526.353629 123.470452 
L 527.361631 123.056957 
L 527.361631 122.362634 
L 528.547515 122.04344 
L 528.547515 121.576049 
L 529.555517 121.02193 
L 529.555517 120.68782 
L 530.563519 120.857897 
L 530.563519 120.640208 
L 531.541874 120.292928 
L 531.541874 120.108008 
L 532.549876 119.619992 
L 533.557878 119.559725 
L 533.557878 119.010646 
L 534.743763 118.856529 
L 534.743763 118.625085 
L 535.751765 118.24012 
L 535.751765 118.071205 
L 536.759767 118.037014 
L 536.759767 117.411343 
L 537.767769 118.212731 
L 537.767769 119.565849 
L 538.775771 120.603909 
L 539.754126 121.37399 
L 539.961656 123.470699 
L 539.961656 125.871274 
L 540.969658 128.220694 
L 541.948012 127.855547 
L 541.948012 127.627604 
L 542.956014 128.086885 
L 542.956014 128.507059 
L 543.964016 128.386505 
L 543.964016 128.243286 
L 545.149901 128.596915 
L 545.149901 130.163476 
L 546.157903 131.393107 
L 546.157903 133.228695 
L 547.165905 133.296714 
L 547.165905 133.669044 
L 548.173907 136.85453 
L 548.173907 137.584832 
L 549.152262 138.448582 
L 549.152262 141.923395 
L 550.160264 144.035893 
L 550.160264 143.97238 
L 551.346149 145.036856 
L 551.346149 148.813826 
L 551.553678 151.660375 
L 553.362153 159.199843 
L 553.362153 160.517083 
L 554.370155 161.907845 
L 554.370155 162.128949 
L 555.378157 166.103956 
L 555.378157 170.191044 
L 555.378157 170.010058 
L 556.564041 171.634624 
L 556.564041 180.347329 
L 557.572043 185.837192 
L 557.572043 189.429124 
L 558.757928 191.577141 
L 559.113693 195.839232 
L 559.499106 197.598172 
L 559.676989 197.829935 
L 559.676989 200.33194 
L 559.676989 200.33194 
" clip-path="url(#p0734ce43f7)" style="fill: none; stroke: #ffa801; stroke-opacity: 0.99; stroke-width: 2.4; stroke-linecap: square"/>
   </g>
   <g id="patch_3">
    <path d="M 27.040625 340.4812 
L 27.040625 52.1932 
" style="fill: none; stroke: #000000; stroke-width: 0.8; stroke-linejoin: miter; stroke-linecap: square"/>
   </g>
   <g id="patch_4">
    <path d="M 585.040625 340.4812 
L 585.040625 52.1932 
" style="fill: none; stroke: #000000; stroke-width: 0.8; stroke-linejoin: miter; stroke-linecap: square"/>
   </g>
   <g id="patch_5">
    <path d="M 27.040625 340.4812 
L 585.040625 340.4812 
" style="fill: none; stroke: #000000; stroke-width: 0.8; stroke-linejoin: miter; stroke-linecap: square"/>
   </g>
   <g id="patch_6">
    <path d="M 27.040625 52.1932 
L 585.040625 52.1932 
" style="fill: none; stroke: #000000; stroke-width: 0.8; stroke-linejoin: miter; stroke-linecap: square"/>
   </g>
   <g id="legend_1">
    <g id="patch_7">
     <path d="M 199.772031 17.9 
L 389.989219 17.9 
Q 391.989219 17.9 391.989219 15.9 
L 391.989219 2 
Q 391.989219 -0 389.989219 -0 
L 199.772031 -0 
Q 197.772031 -0 197.772031 2 
L 197.772031 15.9 
Q 197.772031 17.9 199.772031 17.9 
z
" style="fill: #ffffff; opacity: 0.8; stroke: #cccccc; stroke-linejoin: miter"/>
    </g>
    <g id="line2d_23">
     <path d="M 201.772031 8.3 
L 211.772031 8.3 
L 221.772031 8.3 
" style="fill: none; stroke: #ff3f34; stroke-opacity: 0.99; stroke-width: 2.4; stroke-linecap: square"/>
    </g>
    <g id="text_13">
     <!-- MLP256 -->
     <g transform="translate(229.772031 11.8)scale(0.1 -0.1)">
      <defs>
       <path id="DejaVuSans-4d" d="M 628 4666 
L 1569 4666 
L 2759 1491 
L 3956 4666 
L 4897 4666 
L 4897 0 
L 4281 0 
L 4281 4097 
L 3078 897 
L 2444 897 
L 1241 4097 
L 1241 0 
L 628 0 
L 628 4666 
z
" transform="scale(0.015625)"/>
       <path id="DejaVuSans-4c" d="M 628 4666 
L 1259 4666 
L 1259 531 
L 3531 531 
L 3531 0 
L 628 0 
L 628 4666 
z
" transform="scale(0.015625)"/>
       <path id="DejaVuSans-50" d="M 1259 4147 
L 1259 2394 
L 2053 2394 
Q 2494 2394 2734 2622 
Q 2975 2850 2975 3272 
Q 2975 3691 2734 3919 
Q 2494 4147 2053 4147 
L 1259 4147 
z
M 628 4666 
L 2053 4666 
Q 2838 4666 3239 4311 
Q 3641 3956 3641 3272 
Q 3641 2581 3239 2228 
Q 2838 1875 2053 1875 
L 1259 1875 
L 1259 0 
L 628 0 
L 628 4666 
z
" transform="scale(0.015625)"/>
       <path id="DejaVuSans-35" d="M 691 4666 
L 3169 4666 
L 3169 4134 
L 1269 4134 
L 1269 2991 
Q 1406 3038 1543 3061 
Q 1681 3084 1819 3084 
Q 2600 3084 3056 2656 
Q 3513 2228 3513 1497 
Q 3513 744 3044 326 
Q 2575 -91 1722 -91 
Q 1428 -91 1123 -41 
Q 819 9 494 109 
L 494 744 
Q 775 591 1075 516 
Q 1375 441 1709 441 
Q 2250 441 2565 725 
Q 2881 1009 2881 1497 
Q 2881 1984 2565 2268 
Q 2250 2553 1709 2553 
Q 1456 2553 1204 2497 
Q 953 2441 691 2322 
L 691 4666 
z
" transform="scale(0.015625)"/>
      </defs>
      <use xlink:href="#DejaVuSans-4d"/>
      <use xlink:href="#DejaVuSans-4c" x="86.279297"/>
      <use xlink:href="#DejaVuSans-50" x="141.992188"/>
      <use xlink:href="#DejaVuSans-32" x="202.294922"/>
      <use xlink:href="#DejaVuSans-35" x="265.917969"/>
      <use xlink:href="#DejaVuSans-36" x="329.541016"/>
     </g>
    </g>
    <g id="line2d_24">
     <path d="M 289.089219 8.3 
L 299.089219 8.3 
L 309.089219 8.3 
" style="fill: none; stroke: #ffa801; stroke-opacity: 0.99; stroke-width: 2.4; stroke-linecap: square"/>
    </g>
    <g id="text_14">
     <!-- TinyLidarNet$^m$ -->
     <g transform="translate(317.089219 11.8)scale(0.1 -0.1)">
      <defs>
       <path id="DejaVuSans-69" d="M 603 3500 
L 1178 3500 
L 1178 0 
L 603 0 
L 603 3500 
z
M 603 4863 
L 1178 4863 
L 1178 4134 
L 603 4134 
L 603 4863 
z
" transform="scale(0.015625)"/>
       <path id="DejaVuSans-6e" d="M 3513 2113 
L 3513 0 
L 2938 0 
L 2938 2094 
Q 2938 2591 2744 2837 
Q 2550 3084 2163 3084 
Q 1697 3084 1428 2787 
Q 1159 2491 1159 1978 
L 1159 0 
L 581 0 
L 581 3500 
L 1159 3500 
L 1159 2956 
Q 1366 3272 1645 3428 
Q 1925 3584 2291 3584 
Q 2894 3584 3203 3211 
Q 3513 2838 3513 2113 
z
" transform="scale(0.015625)"/>
       <path id="DejaVuSans-79" d="M 2059 -325 
Q 1816 -950 1584 -1140 
Q 1353 -1331 966 -1331 
L 506 -1331 
L 506 -850 
L 844 -850 
Q 1081 -850 1212 -737 
Q 1344 -625 1503 -206 
L 1606 56 
L 191 3500 
L 800 3500 
L 1894 763 
L 2988 3500 
L 3597 3500 
L 2059 -325 
z
" transform="scale(0.015625)"/>
       <path id="DejaVuSans-4e" d="M 628 4666 
L 1478 4666 
L 3547 763 
L 3547 4666 
L 4159 4666 
L 4159 0 
L 3309 0 
L 1241 3903 
L 1241 0 
L 628 0 
L 628 4666 
z
" transform="scale(0.015625)"/>
       <path id="DejaVuSans-74" d="M 1172 4494 
L 1172 3500 
L 2356 3500 
L 2356 3053 
L 1172 3053 
L 1172 1153 
Q 1172 725 1289 603 
Q 1406 481 1766 481 
L 2356 481 
L 2356 0 
L 1766 0 
Q 1100 0 847 248 
Q 594 497 594 1153 
L 594 3053 
L 172 3053 
L 172 3500 
L 594 3500 
L 594 4494 
L 1172 4494 
z
" transform="scale(0.015625)"/>
       <path id="DejaVuSans-Oblique-6d" d="M 5747 2113 
L 5338 0 
L 4763 0 
L 5166 2094 
Q 5191 2228 5203 2325 
Q 5216 2422 5216 2491 
Q 5216 2772 5059 2928 
Q 4903 3084 4622 3084 
Q 4203 3084 3875 2770 
Q 3547 2456 3450 1953 
L 3066 0 
L 2491 0 
L 2900 2094 
Q 2925 2209 2937 2307 
Q 2950 2406 2950 2484 
Q 2950 2769 2794 2926 
Q 2638 3084 2363 3084 
Q 1938 3084 1609 2770 
Q 1281 2456 1184 1953 
L 800 0 
L 225 0 
L 909 3500 
L 1484 3500 
L 1375 2956 
Q 1609 3263 1923 3423 
Q 2238 3584 2597 3584 
Q 2978 3584 3223 3384 
Q 3469 3184 3519 2828 
Q 3781 3197 4126 3390 
Q 4472 3584 4856 3584 
Q 5306 3584 5551 3325 
Q 5797 3066 5797 2591 
Q 5797 2488 5784 2364 
Q 5772 2241 5747 2113 
z
" transform="scale(0.015625)"/>
      </defs>
      <use xlink:href="#DejaVuSans-54" transform="translate(0 0.51875)"/>
      <use xlink:href="#DejaVuSans-69" transform="translate(61.083984 0.51875)"/>
      <use xlink:href="#DejaVuSans-6e" transform="translate(88.867188 0.51875)"/>
      <use xlink:href="#DejaVuSans-79" transform="translate(152.246094 0.51875)"/>
      <use xlink:href="#DejaVuSans-4c" transform="translate(211.425781 0.51875)"/>
      <use xlink:href="#DejaVuSans-69" transform="translate(267.138672 0.51875)"/>
      <use xlink:href="#DejaVuSans-64" transform="translate(294.921875 0.51875)"/>
      <use xlink:href="#DejaVuSans-61" transform="translate(358.398438 0.51875)"/>
      <use xlink:href="#DejaVuSans-72" transform="translate(419.677734 0.51875)"/>
      <use xlink:href="#DejaVuSans-4e" transform="translate(460.791016 0.51875)"/>
      <use xlink:href="#DejaVuSans-65" transform="translate(535.595703 0.51875)"/>
      <use xlink:href="#DejaVuSans-74" transform="translate(597.119141 0.51875)"/>
      <use xlink:href="#DejaVuSans-Oblique-6d" transform="translate(637.285156 38.8)scale(0.7)"/>
     </g>
    </g>
   </g>
  </g>
 </g>
 <defs>
  <clipPath id="p0734ce43f7">
   <rect x="27.040625" y="52.1932" width="558" height="288.288"/>
  </clipPath>
 </defs>
</svg>
