<?xml version="1.0" encoding="utf-8" standalone="no"?>
<!DOCTYPE svg PUBLIC "-//W3C//DTD SVG 1.1//EN"
  "http://www.w3.org/Graphics/SVG/1.1/DTD/svg11.dtd">
<svg xmlns:xlink="http://www.w3.org/1999/xlink" width="1057.9025pt" height="488.09287pt" viewBox="0 0 1057.9025 488.09287" xmlns="http://www.w3.org/2000/svg" version="1.1">
 <metadata>
  <rdf:RDF xmlns:dc="http://purl.org/dc/elements/1.1/" xmlns:cc="http://creativecommons.org/ns#" xmlns:rdf="http://www.w3.org/1999/02/22-rdf-syntax-ns#">
   <cc:Work>
    <dc:type rdf:resource="http://purl.org/dc/dcmitype/StillImage"/>
    <dc:date>2024-05-27T14:15:24.750626</dc:date>
    <dc:format>image/svg+xml</dc:format>
    <dc:creator>
     <cc:Agent>
      <dc:title>Matplotlib v3.5.2, https://matplotlib.org/</dc:title>
     </cc:Agent>
    </dc:creator>
   </cc:Work>
  </rdf:RDF>
 </metadata>
 <defs>
  <style type="text/css">*{stroke-linejoin: round; stroke-linecap: butt}</style>
 </defs>
 <g id="figure_1">
  <g id="patch_1">
   <path d="M 0 488.09287 
L 1057.9025 488.09287 
L 1057.9025 0 
L 0 0 
z
" style="fill: #ffffff"/>
  </g>
  <g id="axes_1">
   <g id="patch_2">
    <path d="M 46.9525 434.50912 
L 1057.9025 434.50912 
L 1057.9025 72.24032 
L 46.9525 72.24032 
z
" style="fill: #ffffff"/>
   </g>
   <g id="matplotlib.axis_1">
    <g id="xtick_1">
     <g id="line2d_1">
      <path d="M 92.904773 434.50912 
L 92.904773 72.24032 
" clip-path="url(#pd62295f569)" style="fill: none; stroke: #b0b0b0; stroke-width: 0.8; stroke-linecap: square"/>
     </g>
     <g id="line2d_2">
      <defs>
       <path id="m898751fa25" d="M 0 0 
L 0 3.5 
" style="stroke: #000000; stroke-width: 0.8"/>
      </defs>
      <g>
       <use xlink:href="#m898751fa25" x="92.904773" y="434.50912" style="stroke: #000000; stroke-width: 0.8"/>
      </g>
     </g>
     <g id="text_1">
      <!-- 0 -->
      <g transform="translate(86.542273 456.705995)scale(0.2 -0.2)">
       <defs>
        <path id="DejaVuSans-30" d="M 2034 4250 
Q 1547 4250 1301 3770 
Q 1056 3291 1056 2328 
Q 1056 1369 1301 889 
Q 1547 409 2034 409 
Q 2525 409 2770 889 
Q 3016 1369 3016 2328 
Q 3016 3291 2770 3770 
Q 2525 4250 2034 4250 
z
M 2034 4750 
Q 2819 4750 3233 4129 
Q 3647 3509 3647 2328 
Q 3647 1150 3233 529 
Q 2819 -91 2034 -91 
Q 1250 -91 836 529 
Q 422 1150 422 2328 
Q 422 3509 836 4129 
Q 1250 4750 2034 4750 
z
" transform="scale(0.015625)"/>
       </defs>
       <use xlink:href="#DejaVuSans-30"/>
      </g>
     </g>
    </g>
    <g id="xtick_2">
     <g id="line2d_3">
      <path d="M 277.670725 434.50912 
L 277.670725 72.24032 
" clip-path="url(#pd62295f569)" style="fill: none; stroke: #b0b0b0; stroke-width: 0.8; stroke-linecap: square"/>
     </g>
     <g id="line2d_4">
      <g>
       <use xlink:href="#m898751fa25" x="277.670725" y="434.50912" style="stroke: #000000; stroke-width: 0.8"/>
      </g>
     </g>
     <g id="text_2">
      <!-- 20 -->
      <g transform="translate(264.945725 456.705995)scale(0.2 -0.2)">
       <defs>
        <path id="DejaVuSans-32" d="M 1228 531 
L 3431 531 
L 3431 0 
L 469 0 
L 469 531 
Q 828 903 1448 1529 
Q 2069 2156 2228 2338 
Q 2531 2678 2651 2914 
Q 2772 3150 2772 3378 
Q 2772 3750 2511 3984 
Q 2250 4219 1831 4219 
Q 1534 4219 1204 4116 
Q 875 4013 500 3803 
L 500 4441 
Q 881 4594 1212 4672 
Q 1544 4750 1819 4750 
Q 2544 4750 2975 4387 
Q 3406 4025 3406 3419 
Q 3406 3131 3298 2873 
Q 3191 2616 2906 2266 
Q 2828 2175 2409 1742 
Q 1991 1309 1228 531 
z
" transform="scale(0.015625)"/>
       </defs>
       <use xlink:href="#DejaVuSans-32"/>
       <use xlink:href="#DejaVuSans-30" x="63.623047"/>
      </g>
     </g>
    </g>
    <g id="xtick_3">
     <g id="line2d_5">
      <path d="M 462.436677 434.50912 
L 462.436677 72.24032 
" clip-path="url(#pd62295f569)" style="fill: none; stroke: #b0b0b0; stroke-width: 0.8; stroke-linecap: square"/>
     </g>
     <g id="line2d_6">
      <g>
       <use xlink:href="#m898751fa25" x="462.436677" y="434.50912" style="stroke: #000000; stroke-width: 0.8"/>
      </g>
     </g>
     <g id="text_3">
      <!-- 40 -->
      <g transform="translate(449.711677 456.705995)scale(0.2 -0.2)">
       <defs>
        <path id="DejaVuSans-34" d="M 2419 4116 
L 825 1625 
L 2419 1625 
L 2419 4116 
z
M 2253 4666 
L 3047 4666 
L 3047 1625 
L 3713 1625 
L 3713 1100 
L 3047 1100 
L 3047 0 
L 2419 0 
L 2419 1100 
L 313 1100 
L 313 1709 
L 2253 4666 
z
" transform="scale(0.015625)"/>
       </defs>
       <use xlink:href="#DejaVuSans-34"/>
       <use xlink:href="#DejaVuSans-30" x="63.623047"/>
      </g>
     </g>
    </g>
    <g id="xtick_4">
     <g id="line2d_7">
      <path d="M 647.202629 434.50912 
L 647.202629 72.24032 
" clip-path="url(#pd62295f569)" style="fill: none; stroke: #b0b0b0; stroke-width: 0.8; stroke-linecap: square"/>
     </g>
     <g id="line2d_8">
      <g>
       <use xlink:href="#m898751fa25" x="647.202629" y="434.50912" style="stroke: #000000; stroke-width: 0.8"/>
      </g>
     </g>
     <g id="text_4">
      <!-- 60 -->
      <g transform="translate(634.477629 456.705995)scale(0.2 -0.2)">
       <defs>
        <path id="DejaVuSans-36" d="M 2113 2584 
Q 1688 2584 1439 2293 
Q 1191 2003 1191 1497 
Q 1191 994 1439 701 
Q 1688 409 2113 409 
Q 2538 409 2786 701 
Q 3034 994 3034 1497 
Q 3034 2003 2786 2293 
Q 2538 2584 2113 2584 
z
M 3366 4563 
L 3366 3988 
Q 3128 4100 2886 4159 
Q 2644 4219 2406 4219 
Q 1781 4219 1451 3797 
Q 1122 3375 1075 2522 
Q 1259 2794 1537 2939 
Q 1816 3084 2150 3084 
Q 2853 3084 3261 2657 
Q 3669 2231 3669 1497 
Q 3669 778 3244 343 
Q 2819 -91 2113 -91 
Q 1303 -91 875 529 
Q 447 1150 447 2328 
Q 447 3434 972 4092 
Q 1497 4750 2381 4750 
Q 2619 4750 2861 4703 
Q 3103 4656 3366 4563 
z
" transform="scale(0.015625)"/>
       </defs>
       <use xlink:href="#DejaVuSans-36"/>
       <use xlink:href="#DejaVuSans-30" x="63.623047"/>
      </g>
     </g>
    </g>
    <g id="xtick_5">
     <g id="line2d_9">
      <path d="M 831.968581 434.50912 
L 831.968581 72.24032 
" clip-path="url(#pd62295f569)" style="fill: none; stroke: #b0b0b0; stroke-width: 0.8; stroke-linecap: square"/>
     </g>
     <g id="line2d_10">
      <g>
       <use xlink:href="#m898751fa25" x="831.968581" y="434.50912" style="stroke: #000000; stroke-width: 0.8"/>
      </g>
     </g>
     <g id="text_5">
      <!-- 80 -->
      <g transform="translate(819.243581 456.705995)scale(0.2 -0.2)">
       <defs>
        <path id="DejaVuSans-38" d="M 2034 2216 
Q 1584 2216 1326 1975 
Q 1069 1734 1069 1313 
Q 1069 891 1326 650 
Q 1584 409 2034 409 
Q 2484 409 2743 651 
Q 3003 894 3003 1313 
Q 3003 1734 2745 1975 
Q 2488 2216 2034 2216 
z
M 1403 2484 
Q 997 2584 770 2862 
Q 544 3141 544 3541 
Q 544 4100 942 4425 
Q 1341 4750 2034 4750 
Q 2731 4750 3128 4425 
Q 3525 4100 3525 3541 
Q 3525 3141 3298 2862 
Q 3072 2584 2669 2484 
Q 3125 2378 3379 2068 
Q 3634 1759 3634 1313 
Q 3634 634 3220 271 
Q 2806 -91 2034 -91 
Q 1263 -91 848 271 
Q 434 634 434 1313 
Q 434 1759 690 2068 
Q 947 2378 1403 2484 
z
M 1172 3481 
Q 1172 3119 1398 2916 
Q 1625 2713 2034 2713 
Q 2441 2713 2670 2916 
Q 2900 3119 2900 3481 
Q 2900 3844 2670 4047 
Q 2441 4250 2034 4250 
Q 1625 4250 1398 4047 
Q 1172 3844 1172 3481 
z
" transform="scale(0.015625)"/>
       </defs>
       <use xlink:href="#DejaVuSans-38"/>
       <use xlink:href="#DejaVuSans-30" x="63.623047"/>
      </g>
     </g>
    </g>
    <g id="xtick_6">
     <g id="line2d_11">
      <path d="M 1016.734532 434.50912 
L 1016.734532 72.24032 
" clip-path="url(#pd62295f569)" style="fill: none; stroke: #b0b0b0; stroke-width: 0.8; stroke-linecap: square"/>
     </g>
     <g id="line2d_12">
      <g>
       <use xlink:href="#m898751fa25" x="1016.734532" y="434.50912" style="stroke: #000000; stroke-width: 0.8"/>
      </g>
     </g>
     <g id="text_6">
      <!-- 100 -->
      <g transform="translate(997.647032 456.705995)scale(0.2 -0.2)">
       <defs>
        <path id="DejaVuSans-31" d="M 794 531 
L 1825 531 
L 1825 4091 
L 703 3866 
L 703 4441 
L 1819 4666 
L 2450 4666 
L 2450 531 
L 3481 531 
L 3481 0 
L 794 0 
L 794 531 
z
" transform="scale(0.015625)"/>
       </defs>
       <use xlink:href="#DejaVuSans-31"/>
       <use xlink:href="#DejaVuSans-30" x="63.623047"/>
       <use xlink:href="#DejaVuSans-30" x="127.246094"/>
      </g>
     </g>
    </g>
    <g id="text_7">
     <!-- Track progress [%] -->
     <g transform="translate(440.85 483.10162)scale(0.24 -0.24)">
      <defs>
       <path id="DejaVuSans-54" d="M -19 4666 
L 3928 4666 
L 3928 4134 
L 2272 4134 
L 2272 0 
L 1638 0 
L 1638 4134 
L -19 4134 
L -19 4666 
z
" transform="scale(0.015625)"/>
       <path id="DejaVuSans-72" d="M 2631 2963 
Q 2534 3019 2420 3045 
Q 2306 3072 2169 3072 
Q 1681 3072 1420 2755 
Q 1159 2438 1159 1844 
L 1159 0 
L 581 0 
L 581 3500 
L 1159 3500 
L 1159 2956 
Q 1341 3275 1631 3429 
Q 1922 3584 2338 3584 
Q 2397 3584 2469 3576 
Q 2541 3569 2628 3553 
L 2631 2963 
z
" transform="scale(0.015625)"/>
       <path id="DejaVuSans-61" d="M 2194 1759 
Q 1497 1759 1228 1600 
Q 959 1441 959 1056 
Q 959 750 1161 570 
Q 1363 391 1709 391 
Q 2188 391 2477 730 
Q 2766 1069 2766 1631 
L 2766 1759 
L 2194 1759 
z
M 3341 1997 
L 3341 0 
L 2766 0 
L 2766 531 
Q 2569 213 2275 61 
Q 1981 -91 1556 -91 
Q 1019 -91 701 211 
Q 384 513 384 1019 
Q 384 1609 779 1909 
Q 1175 2209 1959 2209 
L 2766 2209 
L 2766 2266 
Q 2766 2663 2505 2880 
Q 2244 3097 1772 3097 
Q 1472 3097 1187 3025 
Q 903 2953 641 2809 
L 641 3341 
Q 956 3463 1253 3523 
Q 1550 3584 1831 3584 
Q 2591 3584 2966 3190 
Q 3341 2797 3341 1997 
z
" transform="scale(0.015625)"/>
       <path id="DejaVuSans-63" d="M 3122 3366 
L 3122 2828 
Q 2878 2963 2633 3030 
Q 2388 3097 2138 3097 
Q 1578 3097 1268 2742 
Q 959 2388 959 1747 
Q 959 1106 1268 751 
Q 1578 397 2138 397 
Q 2388 397 2633 464 
Q 2878 531 3122 666 
L 3122 134 
Q 2881 22 2623 -34 
Q 2366 -91 2075 -91 
Q 1284 -91 818 406 
Q 353 903 353 1747 
Q 353 2603 823 3093 
Q 1294 3584 2113 3584 
Q 2378 3584 2631 3529 
Q 2884 3475 3122 3366 
z
" transform="scale(0.015625)"/>
       <path id="DejaVuSans-6b" d="M 581 4863 
L 1159 4863 
L 1159 1991 
L 2875 3500 
L 3609 3500 
L 1753 1863 
L 3688 0 
L 2938 0 
L 1159 1709 
L 1159 0 
L 581 0 
L 581 4863 
z
" transform="scale(0.015625)"/>
       <path id="DejaVuSans-20" transform="scale(0.015625)"/>
       <path id="DejaVuSans-70" d="M 1159 525 
L 1159 -1331 
L 581 -1331 
L 581 3500 
L 1159 3500 
L 1159 2969 
Q 1341 3281 1617 3432 
Q 1894 3584 2278 3584 
Q 2916 3584 3314 3078 
Q 3713 2572 3713 1747 
Q 3713 922 3314 415 
Q 2916 -91 2278 -91 
Q 1894 -91 1617 61 
Q 1341 213 1159 525 
z
M 3116 1747 
Q 3116 2381 2855 2742 
Q 2594 3103 2138 3103 
Q 1681 3103 1420 2742 
Q 1159 2381 1159 1747 
Q 1159 1113 1420 752 
Q 1681 391 2138 391 
Q 2594 391 2855 752 
Q 3116 1113 3116 1747 
z
" transform="scale(0.015625)"/>
       <path id="DejaVuSans-6f" d="M 1959 3097 
Q 1497 3097 1228 2736 
Q 959 2375 959 1747 
Q 959 1119 1226 758 
Q 1494 397 1959 397 
Q 2419 397 2687 759 
Q 2956 1122 2956 1747 
Q 2956 2369 2687 2733 
Q 2419 3097 1959 3097 
z
M 1959 3584 
Q 2709 3584 3137 3096 
Q 3566 2609 3566 1747 
Q 3566 888 3137 398 
Q 2709 -91 1959 -91 
Q 1206 -91 779 398 
Q 353 888 353 1747 
Q 353 2609 779 3096 
Q 1206 3584 1959 3584 
z
" transform="scale(0.015625)"/>
       <path id="DejaVuSans-67" d="M 2906 1791 
Q 2906 2416 2648 2759 
Q 2391 3103 1925 3103 
Q 1463 3103 1205 2759 
Q 947 2416 947 1791 
Q 947 1169 1205 825 
Q 1463 481 1925 481 
Q 2391 481 2648 825 
Q 2906 1169 2906 1791 
z
M 3481 434 
Q 3481 -459 3084 -895 
Q 2688 -1331 1869 -1331 
Q 1566 -1331 1297 -1286 
Q 1028 -1241 775 -1147 
L 775 -588 
Q 1028 -725 1275 -790 
Q 1522 -856 1778 -856 
Q 2344 -856 2625 -561 
Q 2906 -266 2906 331 
L 2906 616 
Q 2728 306 2450 153 
Q 2172 0 1784 0 
Q 1141 0 747 490 
Q 353 981 353 1791 
Q 353 2603 747 3093 
Q 1141 3584 1784 3584 
Q 2172 3584 2450 3431 
Q 2728 3278 2906 2969 
L 2906 3500 
L 3481 3500 
L 3481 434 
z
" transform="scale(0.015625)"/>
       <path id="DejaVuSans-65" d="M 3597 1894 
L 3597 1613 
L 953 1613 
Q 991 1019 1311 708 
Q 1631 397 2203 397 
Q 2534 397 2845 478 
Q 3156 559 3463 722 
L 3463 178 
Q 3153 47 2828 -22 
Q 2503 -91 2169 -91 
Q 1331 -91 842 396 
Q 353 884 353 1716 
Q 353 2575 817 3079 
Q 1281 3584 2069 3584 
Q 2775 3584 3186 3129 
Q 3597 2675 3597 1894 
z
M 3022 2063 
Q 3016 2534 2758 2815 
Q 2500 3097 2075 3097 
Q 1594 3097 1305 2825 
Q 1016 2553 972 2059 
L 3022 2063 
z
" transform="scale(0.015625)"/>
       <path id="DejaVuSans-73" d="M 2834 3397 
L 2834 2853 
Q 2591 2978 2328 3040 
Q 2066 3103 1784 3103 
Q 1356 3103 1142 2972 
Q 928 2841 928 2578 
Q 928 2378 1081 2264 
Q 1234 2150 1697 2047 
L 1894 2003 
Q 2506 1872 2764 1633 
Q 3022 1394 3022 966 
Q 3022 478 2636 193 
Q 2250 -91 1575 -91 
Q 1294 -91 989 -36 
Q 684 19 347 128 
L 347 722 
Q 666 556 975 473 
Q 1284 391 1588 391 
Q 1994 391 2212 530 
Q 2431 669 2431 922 
Q 2431 1156 2273 1281 
Q 2116 1406 1581 1522 
L 1381 1569 
Q 847 1681 609 1914 
Q 372 2147 372 2553 
Q 372 3047 722 3315 
Q 1072 3584 1716 3584 
Q 2034 3584 2315 3537 
Q 2597 3491 2834 3397 
z
" transform="scale(0.015625)"/>
       <path id="DejaVuSans-5b" d="M 550 4863 
L 1875 4863 
L 1875 4416 
L 1125 4416 
L 1125 -397 
L 1875 -397 
L 1875 -844 
L 550 -844 
L 550 4863 
z
" transform="scale(0.015625)"/>
       <path id="DejaVuSans-25" d="M 4653 2053 
Q 4381 2053 4226 1822 
Q 4072 1591 4072 1178 
Q 4072 772 4226 539 
Q 4381 306 4653 306 
Q 4919 306 5073 539 
Q 5228 772 5228 1178 
Q 5228 1588 5073 1820 
Q 4919 2053 4653 2053 
z
M 4653 2450 
Q 5147 2450 5437 2106 
Q 5728 1763 5728 1178 
Q 5728 594 5436 251 
Q 5144 -91 4653 -91 
Q 4153 -91 3862 251 
Q 3572 594 3572 1178 
Q 3572 1766 3864 2108 
Q 4156 2450 4653 2450 
z
M 1428 4353 
Q 1159 4353 1004 4120 
Q 850 3888 850 3481 
Q 850 3069 1003 2837 
Q 1156 2606 1428 2606 
Q 1700 2606 1854 2837 
Q 2009 3069 2009 3481 
Q 2009 3884 1853 4118 
Q 1697 4353 1428 4353 
z
M 4250 4750 
L 4750 4750 
L 1831 -91 
L 1331 -91 
L 4250 4750 
z
M 1428 4750 
Q 1922 4750 2215 4408 
Q 2509 4066 2509 3481 
Q 2509 2891 2217 2550 
Q 1925 2209 1428 2209 
Q 931 2209 642 2551 
Q 353 2894 353 3481 
Q 353 4063 643 4406 
Q 934 4750 1428 4750 
z
" transform="scale(0.015625)"/>
       <path id="DejaVuSans-5d" d="M 1947 4863 
L 1947 -844 
L 622 -844 
L 622 -397 
L 1369 -397 
L 1369 4416 
L 622 4416 
L 622 4863 
L 1947 4863 
z
" transform="scale(0.015625)"/>
      </defs>
      <use xlink:href="#DejaVuSans-54"/>
      <use xlink:href="#DejaVuSans-72" x="46.333984"/>
      <use xlink:href="#DejaVuSans-61" x="87.447266"/>
      <use xlink:href="#DejaVuSans-63" x="148.726562"/>
      <use xlink:href="#DejaVuSans-6b" x="203.707031"/>
      <use xlink:href="#DejaVuSans-20" x="261.617188"/>
      <use xlink:href="#DejaVuSans-70" x="293.404297"/>
      <use xlink:href="#DejaVuSans-72" x="356.880859"/>
      <use xlink:href="#DejaVuSans-6f" x="395.744141"/>
      <use xlink:href="#DejaVuSans-67" x="456.925781"/>
      <use xlink:href="#DejaVuSans-72" x="520.402344"/>
      <use xlink:href="#DejaVuSans-65" x="559.265625"/>
      <use xlink:href="#DejaVuSans-73" x="620.789062"/>
      <use xlink:href="#DejaVuSans-73" x="672.888672"/>
      <use xlink:href="#DejaVuSans-20" x="724.988281"/>
      <use xlink:href="#DejaVuSans-5b" x="756.775391"/>
      <use xlink:href="#DejaVuSans-25" x="795.789062"/>
      <use xlink:href="#DejaVuSans-5d" x="890.808594"/>
     </g>
    </g>
   </g>
   <g id="matplotlib.axis_2">
    <g id="ytick_1">
     <g id="line2d_13">
      <path d="M 46.9525 386.206613 
L 1057.9025 386.206613 
" clip-path="url(#pd62295f569)" style="fill: none; stroke: #b0b0b0; stroke-width: 0.8; stroke-linecap: square"/>
     </g>
     <g id="line2d_14">
      <defs>
       <path id="mc79ba49dc6" d="M 0 0 
L -3.5 0 
" style="stroke: #000000; stroke-width: 0.8"/>
      </defs>
      <g>
       <use xlink:href="#mc79ba49dc6" x="46.9525" y="386.206613" style="stroke: #000000; stroke-width: 0.8"/>
      </g>
     </g>
     <g id="text_8">
      <!-- 2 -->
      <g transform="translate(27.2275 393.805051)scale(0.2 -0.2)">
       <use xlink:href="#DejaVuSans-32"/>
      </g>
     </g>
    </g>
    <g id="ytick_2">
     <g id="line2d_15">
      <path d="M 46.9525 289.6016 
L 1057.9025 289.6016 
" clip-path="url(#pd62295f569)" style="fill: none; stroke: #b0b0b0; stroke-width: 0.8; stroke-linecap: square"/>
     </g>
     <g id="line2d_16">
      <g>
       <use xlink:href="#mc79ba49dc6" x="46.9525" y="289.6016" style="stroke: #000000; stroke-width: 0.8"/>
      </g>
     </g>
     <g id="text_9">
      <!-- 4 -->
      <g transform="translate(27.2275 297.200037)scale(0.2 -0.2)">
       <use xlink:href="#DejaVuSans-34"/>
      </g>
     </g>
    </g>
    <g id="ytick_3">
     <g id="line2d_17">
      <path d="M 46.9525 192.996587 
L 1057.9025 192.996587 
" clip-path="url(#pd62295f569)" style="fill: none; stroke: #b0b0b0; stroke-width: 0.8; stroke-linecap: square"/>
     </g>
     <g id="line2d_18">
      <g>
       <use xlink:href="#mc79ba49dc6" x="46.9525" y="192.996587" style="stroke: #000000; stroke-width: 0.8"/>
      </g>
     </g>
     <g id="text_10">
      <!-- 6 -->
      <g transform="translate(27.2275 200.595024)scale(0.2 -0.2)">
       <use xlink:href="#DejaVuSans-36"/>
      </g>
     </g>
    </g>
    <g id="ytick_4">
     <g id="line2d_19">
      <path d="M 46.9525 96.391573 
L 1057.9025 96.391573 
" clip-path="url(#pd62295f569)" style="fill: none; stroke: #b0b0b0; stroke-width: 0.8; stroke-linecap: square"/>
     </g>
     <g id="line2d_20">
      <g>
       <use xlink:href="#mc79ba49dc6" x="46.9525" y="96.391573" style="stroke: #000000; stroke-width: 0.8"/>
      </g>
     </g>
     <g id="text_11">
      <!-- 8 -->
      <g transform="translate(27.2275 103.990011)scale(0.2 -0.2)">
       <use xlink:href="#DejaVuSans-38"/>
      </g>
     </g>
    </g>
    <g id="text_12">
     <!-- Speed [m/s] -->
     <g transform="translate(18.23625 326.156595)rotate(-90)scale(0.24 -0.24)">
      <defs>
       <path id="DejaVuSans-53" d="M 3425 4513 
L 3425 3897 
Q 3066 4069 2747 4153 
Q 2428 4238 2131 4238 
Q 1616 4238 1336 4038 
Q 1056 3838 1056 3469 
Q 1056 3159 1242 3001 
Q 1428 2844 1947 2747 
L 2328 2669 
Q 3034 2534 3370 2195 
Q 3706 1856 3706 1288 
Q 3706 609 3251 259 
Q 2797 -91 1919 -91 
Q 1588 -91 1214 -16 
Q 841 59 441 206 
L 441 856 
Q 825 641 1194 531 
Q 1563 422 1919 422 
Q 2459 422 2753 634 
Q 3047 847 3047 1241 
Q 3047 1584 2836 1778 
Q 2625 1972 2144 2069 
L 1759 2144 
Q 1053 2284 737 2584 
Q 422 2884 422 3419 
Q 422 4038 858 4394 
Q 1294 4750 2059 4750 
Q 2388 4750 2728 4690 
Q 3069 4631 3425 4513 
z
" transform="scale(0.015625)"/>
       <path id="DejaVuSans-64" d="M 2906 2969 
L 2906 4863 
L 3481 4863 
L 3481 0 
L 2906 0 
L 2906 525 
Q 2725 213 2448 61 
Q 2172 -91 1784 -91 
Q 1150 -91 751 415 
Q 353 922 353 1747 
Q 353 2572 751 3078 
Q 1150 3584 1784 3584 
Q 2172 3584 2448 3432 
Q 2725 3281 2906 2969 
z
M 947 1747 
Q 947 1113 1208 752 
Q 1469 391 1925 391 
Q 2381 391 2643 752 
Q 2906 1113 2906 1747 
Q 2906 2381 2643 2742 
Q 2381 3103 1925 3103 
Q 1469 3103 1208 2742 
Q 947 2381 947 1747 
z
" transform="scale(0.015625)"/>
       <path id="DejaVuSans-6d" d="M 3328 2828 
Q 3544 3216 3844 3400 
Q 4144 3584 4550 3584 
Q 5097 3584 5394 3201 
Q 5691 2819 5691 2113 
L 5691 0 
L 5113 0 
L 5113 2094 
Q 5113 2597 4934 2840 
Q 4756 3084 4391 3084 
Q 3944 3084 3684 2787 
Q 3425 2491 3425 1978 
L 3425 0 
L 2847 0 
L 2847 2094 
Q 2847 2600 2669 2842 
Q 2491 3084 2119 3084 
Q 1678 3084 1418 2786 
Q 1159 2488 1159 1978 
L 1159 0 
L 581 0 
L 581 3500 
L 1159 3500 
L 1159 2956 
Q 1356 3278 1631 3431 
Q 1906 3584 2284 3584 
Q 2666 3584 2933 3390 
Q 3200 3197 3328 2828 
z
" transform="scale(0.015625)"/>
       <path id="DejaVuSans-2f" d="M 1625 4666 
L 2156 4666 
L 531 -594 
L 0 -594 
L 1625 4666 
z
" transform="scale(0.015625)"/>
      </defs>
      <use xlink:href="#DejaVuSans-53"/>
      <use xlink:href="#DejaVuSans-70" x="63.476562"/>
      <use xlink:href="#DejaVuSans-65" x="126.953125"/>
      <use xlink:href="#DejaVuSans-65" x="188.476562"/>
      <use xlink:href="#DejaVuSans-64" x="250"/>
      <use xlink:href="#DejaVuSans-20" x="313.476562"/>
      <use xlink:href="#DejaVuSans-5b" x="345.263672"/>
      <use xlink:href="#DejaVuSans-6d" x="384.277344"/>
      <use xlink:href="#DejaVuSans-2f" x="481.689453"/>
      <use xlink:href="#DejaVuSans-73" x="515.380859"/>
      <use xlink:href="#DejaVuSans-5d" x="567.480469"/>
     </g>
    </g>
   </g>
   <g id="line2d_21">
    <path d="M 92.904773 482.811627 
L 93.054138 472.563269 
L 93.054138 438.111506 
L 93.536779 426.627585 
L 93.536779 403.659743 
L 94.55569 370.517776 
L 95.038331 359.033855 
L 95.038331 347.549934 
L 95.360092 336.066013 
L 96.486256 324.582092 
L 96.486256 314.819349 
L 96.808017 303.352329 
L 97.987808 295.563031 
L 97.987808 286.781283 
L 98.309569 280.444347 
L 99.811121 275.834689 
L 99.811121 277.688294 
L 100.937285 274.341343 
L 100.937285 273.917683 
L 101.956195 280.38459 
L 102.38521 278.482893 
L 102.38521 285.236451 
L 103.725881 296.720372 
L 104.208523 308.204293 
L 104.905672 307.832088 
L 105.388313 305.343256 
L 106.192716 316.827177 
L 106.192716 315.975356 
L 107.31888 315.251807 
L 107.31888 320.806495 
L 107.31888 309.322574 
L 108.820432 297.867005 
L 109.142193 286.395048 
L 110.911879 275.998574 
L 111.394521 268.784812 
L 111.823536 257.486072 
L 114.719386 257.625253 
L 114.719386 263.912622 
L 116.220937 257.232803 
L 116.220937 247.47827 
L 117.722489 238.3892 
L 118.04425 230.845839 
L 118.04425 226.620248 
L 119.867563 224.689451 
L 120.832847 218.102464 
L 121.529996 211.017867 
L 123.031547 207.193914 
L 123.031547 215.858854 
L 123.67507 213.548524 
L 125.498383 210.491628 
L 125.498383 209.652961 
L 126.141905 207.167051 
L 127.643457 209.967693 
L 128.76962 221.451614 
L 129.949411 240.546392 
L 131.075575 233.344845 
L 131.879978 224.392164 
L 131.879978 219.025348 
L 133.006142 212.339792 
L 134.185932 211.889615 
L 134.185932 208.318014 
L 135.633857 202.168981 
L 136.920902 189.582879 
L 138.100693 187.352672 
L 139.226856 186.215093 
L 140.031259 185.009484 
L 140.835662 189.043009 
L 141.640065 189.081957 
L 142.444467 189.450981 
L 143.24887 195.736272 
L 144.535915 193.42385 
L 145.018556 190.506919 
L 145.822959 190.080923 
L 146.627362 184.884662 
L 147.807153 179.549344 
L 149.415958 175.880787 
L 150.703002 175.465032 
L 151.507405 175.837834 
L 152.311808 176.842868 
L 153.116211 176.387326 
L 153.920614 179.832089 
L 155.207658 182.254419 
L 156.012061 183.367235 
L 158.103508 183.124589 
L 158.58615 182.433987 
L 159.390552 182.159538 
L 160.194955 181.461006 
L 161.803761 181.228991 
L 162.286402 181.674124 
L 163.090805 181.023468 
L 163.895208 181.023885 
L 164.699611 180.342942 
L 165.986655 180.445648 
L 166.844685 179.881229 
L 167.649087 179.828199 
L 168.45349 179.233501 
L 169.257893 178.459812 
L 170.544937 178.686583 
L 171.34934 179.265459 
L 172.636384 181.099327 
L 173.119026 190.790334 
L 173.923429 192.877436 
L 174.727832 195.539835 
L 175.532234 196.338196 
L 176.336637 205.638366 
L 177.14104 209.930482 
L 178.106323 219.550995 
L 178.749845 231.034916 
L 179.071607 242.518837 
L 180.573158 257.96114 
L 181.699322 269.445061 
L 181.699322 257.682503 
L 183.522635 248.089758 
L 183.522635 238.890448 
L 185.131441 236.648145 
L 185.506829 234.962661 
L 187.276515 233.542175 
L 187.276515 219.190982 
L 189.099828 210.279701 
L 195.749557 199.491297 
L 195.749557 221.487421 
L 198.001885 218.970673 
L 198.001885 229.015805 
L 200.146959 240.499726 
L 200.146959 250.627787 
L 200.146959 249.171597 
L 202.667421 260.655518 
L 202.989182 272.139439 
L 202.989182 306.591202 
L 204.490734 318.075122 
L 204.490734 329.559043 
L 204.490734 318.620067 
L 206.957569 316.886776 
L 207.601091 293.924762 
L 207.601091 271.896182 
L 210.121553 268.275253 
L 210.443314 261.797701 
L 210.443314 259.505802 
L 212.588388 258.298512 
L 212.588388 246.222191 
L 213.714552 250.85874 
L 215.537865 249.366142 
L 215.537865 251.681483 
L 215.537865 243.269698 
L 216.717656 236.256528 
L 216.717656 232.675507 
L 217.522059 226.968955 
L 218.326461 229.019906 
L 219.130864 227.880741 
L 219.452625 238.075562 
L 220.257028 235.751494 
L 221.061431 235.744153 
L 221.865834 229.499387 
L 222.670236 220.289261 
L 223.957281 220.197021 
L 224.922564 217.947069 
L 225.244325 215.113984 
L 225.726967 225.669549 
L 226.209608 224.186295 
L 227.174892 223.374699 
L 227.603907 221.012383 
L 228.56919 227.354141 
L 229.051832 224.541045 
L 230.017115 221.477569 
L 230.499757 227.831649 
L 231.411413 229.554949 
L 231.894055 225.243125 
L 232.859338 224.852147 
L 233.34198 217.986135 
L 233.34198 211.929968 
L 234.575397 205.359062 
L 235.058039 205.416087 
L 235.862442 216.900008 
L 236.720471 216.111062 
L 237.524874 220.556817 
L 238.329277 221.034737 
L 238.811918 232.518658 
L 239.616321 243.309909 
L 240.259843 254.79383 
L 240.742485 266.277751 
L 241.386007 271.408778 
L 242.244037 282.892698 
L 242.887559 305.86054 
L 243.691962 306.525093 
L 244.013723 318.009014 
L 244.389111 317.028476 
L 244.389111 305.544555 
L 244.710872 294.103663 
L 245.837036 297.430359 
L 246.534185 308.91428 
L 246.855946 320.398201 
L 246.855946 317.821793 
L 246.855946 300.660379 
L 248.679259 289.375897 
L 249.322781 300.859818 
L 250.01993 278.309471 
L 250.01993 255.34163 
L 252.486765 245.542197 
L 253.827437 229.181185 
L 254.524586 221.79955 
L 255.168108 212.684347 
L 257.313182 203.241629 
L 257.313182 194.549341 
L 257.634943 187.05499 
L 258.332092 181.037501 
L 259.351002 177.094768 
L 259.994525 175.063232 
L 262.139599 173.191579 
L 262.139599 170.174205 
L 264.660061 166.314658 
L 264.660061 157.678542 
L 266.805135 153.978007 
L 266.805135 150.797638 
L 267.770418 148.135505 
L 269.593731 146.503405 
L 269.593731 145.416309 
L 272.114193 145.187509 
L 272.114193 146.28341 
L 273.937506 145.87654 
L 275.385431 144.759448 
L 277.208744 143.668465 
L 277.208744 142.589608 
L 278.710295 141.755093 
L 280.104594 140.835754 
L 280.104594 140.010488 
L 281.552519 139.536171 
L 281.552519 138.999301 
L 283.322205 138.806023 
L 284.823756 138.760809 
L 284.823756 138.833396 
L 286.003547 140.664679 
L 287.82686 141.464122 
L 287.82686 141.84884 
L 289.274785 141.424592 
L 290.776337 140.780872 
L 290.776337 140.616538 
L 293.725814 140.160222 
L 294.851978 140.970102 
L 294.851978 143.353609 
L 297.855081 150.363212 
L 298.498603 153.658523 
L 298.981245 153.50681 
L 300.107409 153.368093 
L 301.608961 153.003906 
L 302.252483 152.515807 
L 303.432274 151.829747 
L 303.914915 151.172856 
L 306.167243 149.086606 
L 307.347034 148.867343 
L 308.312317 148.810737 
L 308.794959 149.593456 
L 311.100913 149.497399 
L 312.227077 150.325778 
L 313.353241 152.00318 
L 314.533032 154.126052 
L 315.176554 156.793923 
L 315.980957 155.989533 
L 316.78536 155.505688 
L 318.286911 155.255325 
L 318.98406 157.597315 
L 320.110224 158.613778 
L 320.914627 158.205539 
L 321.71903 161.509321 
L 322.845194 172.73449 
L 324.024984 183.150216 
L 324.668507 190.904022 
L 325.472909 197.931393 
L 326.277312 199.305329 
L 328.100625 207.468491 
L 328.583267 207.47042 
L 329.709431 208.343872 
L 330.728341 207.035695 
L 331.210982 206.913846 
L 332.337146 210.513442 
L 333.034295 210.444698 
L 333.516937 215.524406 
L 334.643101 215.119165 
L 335.769265 214.506916 
L 336.466414 220.754193 
L 336.949056 222.374181 
L 338.075219 228.183022 
L 338.772368 224.86875 
L 339.201383 224.21135 
L 340.381174 232.351279 
L 341.507338 250.381311 
L 342.633502 249.283388 
L 342.633502 247.805932 
L 343.813292 245.251935 
L 344.456815 239.734983 
L 344.939456 251.218904 
L 346.06562 262.702824 
L 346.06562 271.362013 
L 347.245411 265.466583 
L 347.245411 258.276573 
L 348.371575 256.243055 
L 349.175978 250.32139 
L 349.98038 246.222522 
L 349.98038 257.706443 
L 351.160171 269.190364 
L 351.589186 280.674285 
L 353.73426 287.763538 
L 355.450319 276.279617 
L 356.254722 268.928486 
L 356.737363 261.116163 
L 357.917154 251.548151 
L 359.68684 242.876395 
L 359.68684 234.320621 
L 361.510153 225.615598 
L 361.831914 217.555 
L 361.831914 214.623899 
L 364.030615 226.10782 
L 364.030615 233.524713 
L 364.030615 231.973261 
L 367.301853 242.440585 
L 367.301853 233.149479 
L 367.623614 225.174993 
L 368.320763 223.663564 
L 370.787598 235.147485 
L 370.787598 227.099237 
L 371.10936 215.768997 
L 373.629821 206.106443 
L 373.629821 200.001889 
L 375.077746 196.360133 
L 375.077746 194.230115 
L 376.901059 191.348609 
L 376.901059 190.758576 
L 378.402611 188.137475 
L 380.333178 178.069958 
L 381.459342 175.40474 
L 382.639132 174.066142 
L 382.639132 172.581827 
L 384.569699 168.003386 
L 384.569699 164.015605 
L 385.74949 164.476789 
L 387.197415 166.489862 
L 387.680056 168.265822 
L 389.181608 179.749743 
L 389.986011 188.615677 
L 391.273055 187.194851 
L 392.077458 184.754904 
L 392.881861 178.689507 
L 393.686264 177.286101 
L 394.812428 178.583798 
L 395.61683 177.419041 
L 396.421233 175.924646 
L 397.225636 174.780971 
L 398.405427 173.69936 
L 399.209829 175.130255 
L 400.496874 174.995691 
L 400.979515 170.372612 
L 402.105679 169.322076 
L 402.910082 176.299825 
L 404.197126 178.866194 
L 404.679768 180.340841 
L 405.484171 188.878485 
L 407.092976 191.947668 
L 407.575618 191.574552 
L 408.380021 190.724535 
L 409.184424 183.793207 
L 410.793229 178.825917 
L 412.080274 177.499294 
L 413.367318 175.37546 
L 413.84996 172.812296 
L 415.137004 170.211938 
L 415.619646 167.842763 
L 416.90669 162.862382 
L 417.389332 158.684953 
L 419.588033 157.18298 
L 419.588033 158.944069 
L 421.357719 169.505355 
L 422.323002 171.280727 
L 423.234659 171.008295 
L 424.199942 167.636685 
L 424.199942 163.363766 
L 424.682584 160.683874 
L 426.881284 158.995405 
L 427.846568 157.440399 
L 428.329209 156.270755 
L 429.294493 154.978364 
L 434.013656 143.599527 
L 434.978939 141.90217 
L 436.694998 142.717538 
L 437.17764 152.054245 
L 437.660281 158.887945 
L 438.625565 168.397324 
L 439.537221 174.226902 
L 440.502505 170.544106 
L 442.272191 166.250109 
L 442.272191 162.934092 
L 443.237474 159.133917 
L 444.14913 157.624804 
L 446.401458 156.52272 
L 446.8841 157.065505 
L 447.795756 156.805108 
L 449.565442 155.367674 
L 449.565442 154.022955 
L 450.530726 151.497689 
L 452.300412 150.81308 
L 452.729427 152.480173 
L 453.69471 155.565169 
L 454.981754 158.249706 
L 455.464396 160.276423 
L 456.429679 157.644181 
L 457.663097 156.349189 
L 458.145738 162.502073 
L 459.593663 163.482415 
L 459.915425 168.102887 
L 461.792364 167.503498 
L 462.167752 167.063426 
L 462.650394 172.457468 
L 464.366453 180.858234 
L 465.331736 182.668646 
L 466.618781 180.888322 
L 467.101423 180.002573 
L 468.495721 179.116138 
L 468.817482 178.602507 
L 470.265407 179.077026 
L 470.587168 189.537045 
L 471.552451 187.869282 
L 472.356854 187.791977 
L 473.322137 184.477841 
L 474.233794 180.384704 
L 474.716435 176.726707 
L 475.681719 174.499377 
L 476.968763 182.151119 
L 477.773166 180.90372 
L 478.577569 180.62099 
L 480.883523 186.401641 
L 481.205284 191.79546 
L 482.706836 190.863774 
L 483.028597 188.841173 
L 484.476522 187.959232 
L 485.817193 186.882924 
L 486.996984 186.484108 
L 487.962268 189.244321 
L 488.659417 193.069569 
L 489.678327 192.997985 
L 490.321849 192.289494 
L 491.018998 193.366081 
L 492.466923 191.937875 
L 492.842311 190.545764 
L 493.807594 191.95248 
L 494.504743 192.360499 
L 495.630907 192.134993 
L 496.328056 191.027628 
L 496.971578 192.015728 
L 497.668728 192.006027 
L 498.794891 188.66606 
L 499.438414 184.671876 
L 500.296443 181.440075 
L 501.422607 178.625685 
L 502.066129 176.142427 
L 502.870532 173.812639 
L 505.176487 168.798777 
L 505.873636 166.357389 
L 506.678038 164.214855 
L 507.804202 162.225347 
L 508.608605 160.502085 
L 512.040724 155.659976 
L 512.362485 154.169128 
L 513.542275 153.196704 
L 514.668439 151.761166 
L 516.169991 151.004434 
L 516.491752 149.941987 
L 519.119468 147.805568 
L 519.441229 146.654071 
L 520.567393 145.585014 
L 522.068945 145.286088 
L 522.390706 144.932937 
L 524.214019 145.792616 
L 524.214019 146.64239 
L 526.037332 148.646923 
L 526.359093 150.810831 
L 527.860645 151.747253 
L 528.182406 152.580494 
L 530.005719 152.295563 
L 530.32748 151.880499 
L 531.829032 151.36802 
L 532.150793 150.641251 
L 533.652344 150.157074 
L 534.778508 149.435193 
L 535.422031 149.253627 
L 536.923582 151.488188 
L 537.245343 153.160857 
L 539.390418 154.848318 
L 540.570208 154.908345 
L 541.21373 154.492527 
L 542.393521 154.388009 
L 543.037043 154.005647 
L 544.538595 153.726966 
L 545.182117 153.239092 
L 547.00543 152.95002 
L 548.131594 154.201984 
L 548.828743 154.594436 
L 550.276668 154.518441 
L 550.973817 155.148061 
L 552.099981 155.007036 
L 552.79713 155.854339 
L 553.923294 155.800584 
L 555.049458 155.979106 
L 556.068368 155.803524 
L 556.872771 156.522352 
L 557.891681 156.515931 
L 559.017845 157.324775 
L 559.714994 157.253936 
L 560.841158 158.364009 
L 561.538307 158.332152 
L 562.664471 158.132862 
L 564.487784 157.393631 
L 565.506694 157.201363 
L 567.27638 156.180576 
L 568.456171 156.006452 
L 569.475081 157.779237 
L 570.279484 160.043596 
L 571.244767 164.981384 
L 572.04917 172.790874 
L 573.06808 173.154438 
L 574.247871 176.196452 
L 574.891393 178.740862 
L 575.213154 178.248719 
L 576.714706 177.454082 
L 577.036467 177.10521 
L 578.538019 176.238747 
L 578.85978 174.402582 
L 580.361332 173.605023 
L 580.683093 170.713741 
L 582.131018 167.172193 
L 582.506406 164.580372 
L 584.276092 162.524906 
L 584.276092 161.161146 
L 586.099405 159.583884 
L 586.099405 157.720736 
L 587.922718 155.780629 
L 587.922718 153.512056 
L 589.74603 151.661742 
L 590.067792 150.346832 
L 591.891104 149.913581 
L 591.891104 150.729171 
L 593.714417 152.685082 
L 593.714417 156.610883 
L 595.53773 157.227355 
L 595.53773 162.451488 
L 597.361043 163.282973 
L 597.361043 165.426916 
L 599.506117 165.986364 
L 599.506117 165.652136 
L 601.32943 168.621095 
L 601.32943 166.281437 
L 603.099116 163.510233 
L 603.099116 160.182161 
L 604.922429 158.41831 
L 604.922429 158.203346 
L 606.745742 157.586517 
L 606.745742 157.030462 
L 608.890816 156.558016 
L 608.890816 156.307815 
L 610.714129 155.760993 
L 610.714129 155.596341 
L 612.537442 158.117306 
L 612.537442 168.772111 
L 614.360755 171.989015 
L 614.360755 173.168731 
L 616.130441 181.06174 
L 616.130441 182.630908 
L 617.953754 190.055693 
L 617.953754 191.500713 
L 619.777067 194.713533 
L 621.60038 204.917848 
L 622.297529 214.796681 
L 623.745454 214.580766 
L 623.745454 214.372381 
L 625.568767 213.956942 
L 625.568767 215.68612 
L 627.070319 216.980458 
L 627.39208 218.823492 
L 627.713841 230.307413 
L 629.215393 231.355886 
L 629.537154 233.145262 
L 629.858915 244.629183 
L 631.360467 256.113104 
L 631.360467 265.250613 
L 632.808392 276.734534 
L 633.827302 285.92487 
L 635.167973 296.815442 
L 635.167973 306.114657 
L 636.991286 306.622842 
L 637.634808 300.796794 
L 638.010196 292.390448 
L 639.779882 303.874369 
L 639.779882 290.704817 
L 640.15527 301.383429 
L 641.978583 295.817717 
L 641.978583 294.968978 
L 643.426508 291.892841 
L 643.426508 280.013479 
L 646.215104 268.529558 
L 648.092044 261.454739 
L 648.896447 259.425363 
L 650.022611 252.830797 
L 650.022611 245.355369 
L 651.202402 235.881557 
L 651.202402 227.625536 
L 652.328565 220.244734 
L 653.830117 211.49132 
L 654.473639 204.234107 
L 654.473639 198.557074 
L 655.975191 203.330593 
L 656.618713 202.633005 
L 657.315863 197.766212 
L 658.442026 194.967596 
L 659.782698 217.935438 
L 660.801608 216.66988 
L 661.44513 205.17443 
L 662.946682 203.854255 
L 663.590204 200.059394 
L 664.287353 199.768267 
L 664.930875 197.382615 
L 665.628024 196.694771 
L 666.271547 195.237806 
L 666.968696 188.843841 
L 667.987606 183.321516 
L 668.631128 178.528272 
L 669.650038 174.209319 
L 670.29356 168.965606 
L 671.312471 164.887992 
L 672.00962 164.59721 
L 672.974903 171.317731 
L 673.993813 170.933542 
L 674.690962 174.944811 
L 675.656246 174.711289 
L 676.353395 176.45833 
L 677.372305 172.078057 
L 678.015827 166.868354 
L 679.034737 164.62485 
L 681.179811 162.33055 
L 681.179811 160.282374 
L 681.87696 158.789707 
L 684.558303 154.58336 
L 685.523586 151.868812 
L 686.542496 149.388748 
L 687.239645 158.712576 
L 689.70648 160.861922 
L 689.70648 171.665315 
L 690.028242 181.095681 
L 690.725391 187.208422 
L 692.387823 186.506045 
L 693.406733 184.160909 
L 694.050255 179.103657 
L 695.069166 177.967745 
L 695.712688 175.904367 
L 698.23315 177.900182 
L 698.23315 175.852152 
L 698.554911 175.234404 
L 699.25206 174.436086 
L 700.217343 172.640245 
L 700.914492 172.344894 
L 701.933402 170.548269 
L 702.576925 176.308627 
L 703.595835 176.507633 
L 704.239357 186.16145 
L 706.759819 189.7817 
L 706.759819 200.205879 
L 709.065774 240.560231 
L 709.762923 239.032958 
L 711.103594 231.369322 
L 711.747116 232.438304 
L 712.444265 230.512176 
L 713.087787 229.503653 
L 715.232861 226.52256 
L 715.232861 232.847412 
L 715.608249 231.851985 
L 716.251772 228.77938 
L 716.948921 228.033056 
L 718.289592 250.629895 
L 718.933114 247.640921 
L 720.756427 258.796645 
L 720.756427 281.764487 
L 722.901501 277.430102 
L 722.901501 288.914023 
L 722.901501 285.055952 
L 723.223262 280.130158 
L 723.59865 291.614079 
L 725.368336 290.657544 
L 725.368336 302.141465 
L 725.368336 295.613616 
L 726.709008 295.007402 
L 727.191649 306.491323 
L 727.191649 314.78246 
L 728.37144 307.052937 
L 728.693201 295.812861 
L 729.175843 288.657536 
L 730.302007 283.805854 
L 731.26729 273.252896 
L 731.749932 262.083832 
L 732.983349 252.929137 
L 732.983349 245.218584 
L 734.270394 239.286353 
L 735.128423 239.262761 
L 735.450184 243.076383 
L 736.737229 244.984959 
L 737.05899 256.46888 
L 737.863393 267.952801 
L 738.989556 279.436722 
L 738.989556 290.920643 
L 740.491108 279.679944 
L 740.491108 263.975024 
L 741.617272 275.458945 
L 741.617272 259.178446 
L 742.797063 257.643908 
L 742.797063 250.919914 
L 743.923227 246.139492 
L 743.923227 236.088499 
L 745.049391 227.766928 
L 746.550942 218.235721 
L 746.550942 208.877042 
L 747.677106 199.454468 
L 749.178658 192.063312 
L 749.178658 179.931617 
L 751.806374 175.073697 
L 751.806374 170.550509 
L 752.932538 166.358588 
L 752.932538 164.33356 
L 755.560253 175.817481 
L 755.560253 198.785323 
L 756.686417 210.269244 
L 758.187969 221.753165 
L 758.187969 233.237086 
L 759.314133 244.721007 
L 759.314133 256.204928 
L 760.493924 266.803763 
L 760.493924 268.108727 
L 761.941849 278.980499 
L 761.941849 277.841911 
L 762.26361 269.996829 
L 763.121639 259.197561 
L 764.569564 248.065003 
L 764.569564 237.831696 
L 765.695728 226.54334 
L 765.695728 215.876191 
L 766.875519 206.537807 
L 768.323444 198.997614 
L 768.323444 192.928656 
L 769.503235 188.0552 
L 770.95116 183.599575 
L 770.95116 179.909818 
L 772.13095 176.244685 
L 773.578875 173.619581 
L 773.578875 171.314854 
L 775.88483 166.96406 
L 777.386382 164.973288 
L 777.386382 163.36099 
L 778.512545 161.619626 
L 779.96047 160.076902 
L 780.335858 158.7207 
L 781.140261 157.320913 
L 782.266425 156.428682 
L 783.767977 155.887869 
L 784.894141 154.902554 
L 785.215902 153.616081 
L 787.521856 151.37261 
L 789.023408 150.624959 
L 789.023408 149.679711 
L 790.149572 148.600772 
L 791.275736 147.147079 
L 792.777288 145.884077 
L 793.903452 145.387773 
L 793.903452 145.051969 
L 795.405004 144.788402 
L 796.531167 145.131138 
L 797.657331 147.487988 
L 799.158883 148.608311 
L 799.158883 147.989994 
L 800.285047 147.314382 
L 802.912763 143.318394 
L 802.912763 142.081761 
L 804.092553 141.931978 
L 805.540478 144.664043 
L 806.720269 145.592249 
L 808.168194 144.839891 
L 808.168194 143.881726 
L 809.347985 142.468305 
L 810.79591 141.318766 
L 811.922074 140.237083 
L 813.101864 138.930232 
L 813.423625 137.810143 
L 814.549789 137.254854 
L 815.72958 138.586319 
L 817.177505 142.414076 
L 817.552893 146.068278 
L 818.679057 148.993962 
L 819.48346 148.764713 
L 820.985011 147.828467 
L 822.111175 146.60348 
L 822.432936 145.323697 
L 823.5591 144.620518 
L 824.738891 144.188543 
L 825.865055 145.158533 
L 827.366607 145.113476 
L 827.688368 148.310116 
L 828.49277 147.565856 
L 829.994322 152.220704 
L 831.120486 155.179896 
L 831.442247 155.137313 
L 832.622038 155.47028 
L 833.748202 158.993608 
L 834.874366 157.913388 
L 836.375918 157.329311 
L 836.375918 156.307097 
L 837.502081 154.020141 
L 839.003633 153.231421 
L 839.325394 152.436983 
L 840.451558 151.843269 
L 841.255961 151.193098 
L 842.757513 150.571944 
L 843.883677 149.026361 
L 844.259065 146.916003 
L 845.385229 146.821236 
L 846.511392 147.407236 
L 847.691183 152.620456 
L 849.139108 156.297434 
L 849.139108 157.22053 
L 850.318899 158.454864 
L 851.766824 158.315412 
L 852.088585 158.610126 
L 853.268376 158.396909 
L 854.394539 161.786876 
L 855.520703 160.52493 
L 856.700494 158.794817 
L 857.022255 156.81441 
L 859.32821 151.152699 
L 861.258776 146.471224 
L 862.38494 145.518933 
L 863.564731 147.846505 
L 863.886492 150.17892 
L 865.012656 150.988574 
L 865.870686 157.926915 
L 867.104103 164.127289 
L 867.962133 162.974172 
L 868.766535 162.513359 
L 869.892699 161.234645 
L 870.697102 159.472913 
L 871.662385 157.057458 
L 872.788549 155.040305 
L 873.592952 154.182053 
L 874.558235 154.098825 
L 875.684399 153.798596 
L 876.649683 154.630018 
L 877.454085 154.317965 
L 878.74113 154.244276 
L 879.062891 153.331082 
L 880.349935 152.046168 
L 882.119621 149.901703 
L 883.406666 149.202272 
L 885.122725 149.036598 
L 886.088008 150.386997 
L 886.892411 152.48519 
L 888.179455 154.682157 
L 889.144739 162.873365 
L 889.949142 167.33649 
L 890.914425 170.267734 
L 891.718828 171.257182 
L 893.005872 170.976305 
L 893.434887 170.722013 
L 894.721931 171.143051 
L 895.204573 169.906576 
L 896.652498 168.824024 
L 896.974259 166.642781 
L 898.422184 163.403547 
L 898.743945 160.684014 
L 900.138243 158.134991 
L 900.513631 155.790136 
L 902.390571 154.027354 
L 902.712332 152.482921 
L 903.677615 151.322092 
L 904.96466 150.099942 
L 905.447301 149.187244 
L 906.8416 148.62626 
L 907.646002 148.110744 
L 908.611286 148.053031 
L 909.415688 148.881115 
L 910.380972 148.860494 
L 911.668016 150.712515 
L 912.097031 152.597536 
L 913.062314 153.034188 
L 914.349359 152.772988 
L 915.314642 152.730071 
L 916.226298 153.788294 
L 917.030701 153.483814 
L 919.765671 153.148493 
L 920.730954 153.763618 
L 921.64261 154.94788 
L 922.607894 155.511294 
L 923.412297 155.471138 
L 924.37758 154.895726 
L 925.289236 154.653249 
L 926.25452 154.566523 
L 927.541564 154.669178 
L 928.506847 154.563231 
L 928.989489 154.836287 
L 929.901145 155.730005 
L 931.18819 155.809696 
L 932.153473 157.722389 
L 933.06513 158.700325 
L 934.030413 158.600507 
L 934.513055 158.08315 
L 935.800099 160.362536 
L 936.765382 166.217269 
L 937.677039 174.18771 
L 938.15968 176.71293 
L 939.929367 179.974613 
L 940.89465 187.724985 
L 941.806306 185.936986 
L 942.77159 185.395213 
L 943.254231 189.928888 
L 944.165888 189.416448 
L 945.023917 200.900369 
L 945.935574 200.305387 
L 946.900857 202.590761 
L 947.383499 204.309874 
L 948.295155 202.256754 
L 948.777797 200.874179 
L 950.064841 208.098975 
L 950.547483 213.621826 
L 951.512766 217.367137 
L 951.995408 223.693608 
L 952.907064 225.412013 
L 953.389706 226.630641 
L 953.872348 227.003025 
L 955.159392 229.093053 
L 955.642034 237.178592 
L 956.55369 236.240156 
L 957.036332 231.809324 
L 958.001615 229.679643 
L 958.484257 229.055496 
L 958.913272 227.546128 
L 960.200316 239.030049 
L 961.1656 232.231233 
L 962.130883 243.715154 
L 963.042539 263.497464 
L 964.007823 258.567723 
L 964.490464 253.78665 
L 964.973106 251.547262 
L 965.777509 248.607664 
L 966.742792 243.477788 
L 968.029836 231.612594 
L 968.834239 226.047918 
L 969.638642 222.540771 
L 970.282164 218.218962 
L 970.979313 212.582295 
L 971.783716 212.092747 
L 972.427238 220.513307 
L 973.231641 217.950106 
L 974.250551 210.396395 
L 974.9477 220.783999 
L 975.752103 220.729863 
L 976.878267 219.632258 
L 977.200028 216.797233 
L 977.897177 214.010939 
L 979.023341 213.792584 
L 979.345102 225.276505 
L 980.685773 236.760426 
L 981.168415 248.244347 
L 981.168415 259.728268 
L 982.669967 252.9895 
L 984.600533 271.647139 
L 985.887578 267.152437 
L 987.818144 244.380119 
L 988.729801 236.418975 
L 989.212443 229.657408 
L 990.177726 220.554617 
L 990.660367 211.341786 
L 991.572024 202.641048 
L 992.054666 194.84179 
L 993.931605 182.500665 
L 994.896889 177.076137 
L 995.37953 171.23513 
L 996.344814 167.976115 
L 997.25647 163.235473 
L 999.026156 160.451731 
L 999.830559 159.519833 
L 1000.634962 165.567564 
L 1001.922006 165.199257 
L 1002.726409 169.428528 
L 1003.530812 168.653999 
L 1004.817856 168.636859 
L 1005.300498 168.7876 
L 1006.426662 170.763405 
L 1007.284691 173.025833 
L 1008.410855 179.185412 
L 1008.893497 185.677108 
L 1010.019661 188.825924 
L 1011.950227 201.558562 
L 1011.950227 201.558562 
" clip-path="url(#pd62295f569)" style="fill: none; stroke: #ff3f34; stroke-opacity: 0.99; stroke-width: 2.4; stroke-linecap: square"/>
   </g>
   <g id="line2d_22">
    <path d="M 92.904773 482.811627 
L 93.054138 472.389453 
L 93.054138 437.93769 
L 93.536779 426.453769 
L 93.536779 403.485928 
L 93.858541 392.002007 
L 93.858541 380.518086 
L 94.55569 369.034165 
L 95.038331 357.550244 
L 95.038331 346.066323 
L 95.360092 334.582402 
L 96.003615 323.114772 
L 96.486256 311.730501 
L 96.486256 302.149433 
L 97.987808 292.834807 
L 97.987808 277.4756 
L 99.811121 271.129216 
L 99.811121 266.278297 
L 100.937285 261.396833 
L 100.937285 258.804479 
L 102.38521 258.697714 
L 102.38521 259.497914 
L 102.38521 258.974954 
L 104.208523 258.742163 
L 104.208523 259.942359 
L 105.710075 260.564967 
L 106.192716 260.444291 
L 106.192716 266.619501 
L 107.31888 266.348867 
L 107.31888 263.444585 
L 111.394521 259.542398 
L 114.719386 255.057569 
L 114.719386 251.028235 
L 116.220937 247.379373 
L 116.220937 243.518219 
L 118.04425 239.290504 
L 118.04425 233.512475 
L 120.511085 227.523215 
L 123.031547 220.059306 
L 123.031547 206.661224 
L 125.498383 201.839775 
L 125.498383 195.78692 
L 127.643457 194.782507 
L 128.76962 194.876886 
L 129.949411 194.46863 
L 131.075575 193.06668 
L 131.879978 191.434117 
L 131.879978 188.393341 
L 135.312096 178.537095 
L 136.43826 176.272033 
L 136.920902 174.010823 
L 139.226856 170.166791 
L 140.031259 168.632568 
L 141.318304 167.254724 
L 142.122706 166.069384 
L 142.927109 165.709215 
L 144.535915 164.724294 
L 145.018556 164.694064 
L 145.822959 164.00153 
L 146.627362 163.571557 
L 147.807153 163.515236 
L 148.611555 164.391551 
L 149.415958 165.70612 
L 150.703002 166.482601 
L 152.311808 166.41595 
L 153.598852 167.83086 
L 154.403255 167.621634 
L 155.207658 169.753117 
L 156.012061 172.720788 
L 157.299105 176.277901 
L 158.103508 179.199165 
L 159.712313 184.109549 
L 160.516716 185.621235 
L 161.803761 188.964047 
L 162.286402 190.595728 
L 163.090805 190.958376 
L 164.699611 194.027043 
L 165.182252 193.905398 
L 166.844685 199.922823 
L 167.649087 200.529033 
L 168.45349 200.469197 
L 169.257893 201.197224 
L 170.544937 200.953846 
L 171.027579 203.614904 
L 171.831982 205.115626 
L 172.636384 208.265732 
L 173.440787 208.196055 
L 176.336637 219.802921 
L 177.14104 224.800678 
L 178.428084 224.323803 
L 178.749845 227.614019 
L 180.251397 226.774486 
L 180.573158 228.82697 
L 181.699322 228.009643 
L 181.699322 226.505723 
L 183.522635 225.805366 
L 185.131441 223.802411 
L 185.131441 223.043089 
L 187.276515 222.492243 
L 187.276515 223.68285 
L 187.276515 223.128251 
L 189.099828 224.464803 
L 190.279618 227.215503 
L 192.371066 227.311188 
L 195.749557 225.562147 
L 195.749557 228.260285 
L 196.071318 231.53938 
L 198.001885 233.496128 
L 198.001885 232.579285 
L 199.503437 230.258906 
L 200.146959 228.239728 
L 200.146959 226.239442 
L 201.32675 223.747871 
L 201.970272 222.037454 
L 202.667421 220.606661 
L 203.310943 217.875296 
L 203.793585 216.547565 
L 205.295137 214.993657 
L 205.295137 214.242625 
L 206.26042 211.469737 
L 208.405494 210.910088 
L 208.405494 212.405958 
L 208.405494 211.190183 
L 209.102643 208.729058 
L 211.247717 206.678934 
L 211.247717 205.076232 
L 213.392791 203.719228 
L 214.518955 203.294621 
L 214.518955 225.606493 
L 216.342268 233.805631 
L 219.130864 239.785765 
L 219.452625 240.800532 
L 220.257028 240.326704 
L 221.061431 242.023896 
L 221.865834 244.745501 
L 223.152878 243.977516 
L 223.152878 240.611045 
L 224.439922 235.305331 
L 224.439922 230.515492 
L 227.174892 226.311113 
L 227.603907 223.601478 
L 228.56919 220.877583 
L 229.051832 219.85759 
L 230.017115 224.482463 
L 230.499757 231.336909 
L 231.411413 232.165362 
L 231.894055 232.240492 
L 234.146382 231.696102 
L 234.146382 231.50078 
L 235.862442 233.28439 
L 236.23783 232.305124 
L 237.149486 227.949018 
L 237.953889 221.648806 
L 239.938082 215.19493 
L 241.386007 209.399868 
L 241.386007 204.80656 
L 242.887559 199.48588 
L 242.887559 196.208496 
L 244.389111 193.68171 
L 244.389111 194.252182 
L 246.855946 199.11612 
L 246.855946 212.368222 
L 249.698169 213.045855 
L 250.01993 212.87096 
L 250.01993 204.090778 
L 252.808527 198.847764 
L 254.149198 189.653645 
L 255.168108 185.562907 
L 257.313182 182.721187 
L 257.313182 180.630111 
L 257.634943 179.870948 
L 259.351002 177.991973 
L 262.139599 176.837822 
L 262.139599 172.575042 
L 264.660061 170.381 
L 264.660061 168.634751 
L 264.981822 167.168846 
L 266.805135 165.727372 
L 266.805135 164.536724 
L 267.770418 163.924424 
L 269.593731 163.370584 
L 269.593731 162.82347 
L 272.114193 162.65116 
L 272.114193 161.925509 
L 273.937506 160.79425 
L 273.937506 160.22866 
L 275.385431 159.702788 
L 275.385431 158.809213 
L 277.208744 158.29468 
L 278.710295 158.002073 
L 278.710295 157.273716 
L 280.104594 156.856371 
L 280.104594 157.173339 
L 281.552519 157.660056 
L 283.322205 157.78917 
L 283.322205 157.683757 
L 284.823756 157.663818 
L 286.003547 158.923873 
L 286.003547 159.190788 
L 287.82686 159.19761 
L 287.82686 158.985468 
L 289.274785 158.525108 
L 290.776337 158.181197 
L 290.776337 157.657829 
L 293.725814 157.465591 
L 293.725814 157.860504 
L 294.851978 158.402528 
L 297.855081 158.169563 
L 298.981245 158.262057 
L 300.107409 158.217816 
L 300.107409 159.465284 
L 302.735125 159.281688 
L 303.914915 162.234688 
L 305.041079 162.091156 
L 306.167243 168.256131 
L 307.347034 179.381088 
L 308.794959 184.906084 
L 309.921123 186.44984 
L 309.921123 186.115292 
L 312.227077 186.234139 
L 313.353241 188.741198 
L 313.353241 188.394992 
L 314.533032 188.741261 
L 315.659196 187.388016 
L 316.78536 186.892444 
L 316.78536 186.627082 
L 318.286911 185.860382 
L 319.413075 185.03859 
L 319.413075 185.51654 
L 320.592866 185.502358 
L 321.71903 185.121762 
L 322.845194 185.655279 
L 324.024984 189.152905 
L 324.024984 190.802126 
L 325.151148 189.942836 
L 327.457103 189.479905 
L 327.457103 189.447896 
L 328.583267 189.372841 
L 329.709431 190.802048 
L 329.709431 194.495712 
L 331.210982 195.323951 
L 332.337146 197.076987 
L 333.516937 203.088218 
L 333.516937 213.170471 
L 335.769265 230.398878 
L 335.769265 234.644696 
L 336.949056 238.780102 
L 338.075219 238.629466 
L 338.075219 240.615004 
L 339.201383 245.011686 
L 340.381174 243.753241 
L 341.507338 245.145516 
L 341.507338 247.142808 
L 342.633502 247.788035 
L 343.813292 253.676328 
L 343.813292 255.363753 
L 344.939456 256.194311 
L 344.939456 256.061574 
L 346.06562 255.524598 
L 347.245411 255.551049 
L 347.245411 254.647955 
L 348.371575 253.985576 
L 349.175978 253.379034 
L 349.98038 253.049825 
L 349.98038 252.346155 
L 351.160171 249.792171 
L 355.932961 248.192397 
L 356.254722 246.678436 
L 357.917154 245.89052 
L 359.68684 243.309127 
L 359.68684 238.451961 
L 361.831914 232.480767 
L 361.831914 220.267272 
L 364.030615 214.798796 
L 364.030615 210.002374 
L 367.301853 206.856132 
L 367.301853 205.905322 
L 367.301853 209.105531 
L 368.320763 211.642869 
L 370.787598 217.038166 
L 370.787598 218.535882 
L 370.787598 217.626954 
L 371.484747 213.719111 
L 373.629821 209.32627 
L 373.629821 204.312383 
L 375.077746 199.861299 
L 375.077746 195.580098 
L 378.402611 189.959974 
L 378.402611 188.522112 
L 380.333178 186.997104 
L 380.333178 185.283947 
L 381.459342 183.816481 
L 383.765296 180.13206 
L 384.569699 178.390964 
L 385.74949 176.362198 
L 385.74949 174.868477 
L 387.197415 173.495911 
L 387.680056 171.974152 
L 389.181608 171.162744 
L 389.986011 169.835444 
L 391.273055 169.496511 
L 392.077458 168.849013 
L 392.881861 168.049708 
L 393.686264 167.023374 
L 394.812428 166.312458 
L 395.61683 164.925089 
L 397.601024 163.465385 
L 398.888068 163.282396 
L 399.692471 164.284999 
L 401.783918 164.995937 
L 402.588321 164.908988 
L 404.197126 164.428245 
L 404.197126 163.930256 
L 405.484171 163.585242 
L 406.288574 163.115369 
L 407.092976 161.918663 
L 409.988826 160.676374 
L 412.080274 160.409348 
L 413.367318 161.097904 
L 415.137004 163.840769 
L 415.137004 164.666577 
L 416.90669 164.643736 
L 416.90669 164.148909 
L 418.622749 163.204798 
L 419.588033 162.409022 
L 419.588033 161.450012 
L 421.357719 160.54757 
L 422.323002 159.552363 
L 423.234659 159.015246 
L 424.199942 159.059859 
L 424.199942 159.629445 
L 425.969628 159.331442 
L 426.881284 159.461124 
L 428.811851 160.351905 
L 429.723507 159.769579 
L 431.171432 158.480184 
L 432.136716 158.306897 
L 434.013656 157.042843 
L 434.978939 157.055989 
L 438.625565 156.246071 
L 439.537221 156.472591 
L 440.502505 156.069671 
L 442.272191 158.136136 
L 442.272191 157.93469 
L 443.237474 158.438647 
L 444.14913 157.987817 
L 446.079697 158.017281 
L 446.401458 158.28107 
L 446.8841 157.991887 
L 447.795756 159.80184 
L 449.565442 160.249565 
L 449.565442 161.842948 
L 450.530726 161.510038 
L 452.300412 162.93685 
L 452.729427 165.158244 
L 453.212068 166.46198 
L 454.981754 167.353624 
L 455.464396 168.283485 
L 455.947038 170.308214 
L 457.663097 171.178838 
L 458.145738 174.257438 
L 459.593663 174.862055 
L 459.915425 176.703117 
L 462.167752 178.952981 
L 462.650394 182.803257 
L 464.044692 186.09722 
L 464.366453 186.085269 
L 464.849095 185.438686 
L 466.29702 185.298272 
L 466.618781 184.818711 
L 468.817482 187.010282 
L 469.300123 186.845047 
L 471.06981 186.910063 
L 472.035093 188.770448 
L 472.839496 192.232686 
L 473.804779 192.360161 
L 474.233794 192.197989 
L 475.199077 193.433985 
L 476.16436 192.74618 
L 476.968763 193.443361 
L 477.773166 193.562727 
L 478.577569 192.964764 
L 479.381971 193.82949 
L 480.508135 194.697258 
L 481.205284 195.058782 
L 482.009687 194.804218 
L 482.706836 194.989746 
L 483.833 194.157468 
L 484.154761 193.298024 
L 486.299835 191.463274 
L 486.621596 190.796636 
L 488.337655 189.355852 
L 488.981178 189.257937 
L 490.000088 188.934545 
L 490.64361 188.447834 
L 491.66252 187.012092 
L 491.66252 185.090249 
L 494.182982 183.746141 
L 494.826504 182.636333 
L 494.826504 181.178923 
L 496.649817 180.690215 
L 497.29334 180.361537 
L 497.29334 182.170893 
L 499.116653 182.013725 
L 499.116653 181.287823 
L 500.296443 181.240411 
L 501.744368 180.769929 
L 501.744368 179.262311 
L 502.870532 177.741046 
L 505.498248 175.973214 
L 505.498248 174.943325 
L 505.873636 173.823545 
L 507.482441 172.390036 
L 508.608605 170.159295 
L 510.91456 166.328099 
L 510.91456 165.227653 
L 512.040724 164.969045 
L 513.220514 168.966835 
L 514.668439 174.49557 
L 516.169991 183.242038 
L 516.169991 194.069822 
L 517.617916 202.179648 
L 517.617916 201.364338 
L 519.119468 199.913583 
L 519.119468 195.884528 
L 520.567393 191.392752 
L 522.390706 186.760845 
L 522.390706 182.807577 
L 524.214019 179.332865 
L 524.214019 176.329034 
L 526.037332 173.645059 
L 526.037332 170.972602 
L 527.860645 169.132504 
L 527.860645 167.461115 
L 529.683957 165.750306 
L 530.005719 164.211785 
L 530.005719 163.105624 
L 531.829032 161.975026 
L 531.829032 161.269704 
L 533.652344 160.813491 
L 535.422031 160.207203 
L 535.422031 159.886994 
L 537.245343 159.274057 
L 537.245343 158.593518 
L 539.068656 157.966919 
L 539.390418 156.935762 
L 539.765805 156.303287 
L 541.21373 157.423661 
L 543.037043 157.101122 
L 543.037043 158.115919 
L 544.860356 157.541317 
L 544.860356 157.252415 
L 546.683669 157.517253 
L 546.683669 157.139751 
L 548.506982 156.921857 
L 548.828743 158.107211 
L 550.276668 157.89724 
L 550.652056 158.199249 
L 552.421742 158.541 
L 552.421742 160.06536 
L 554.245055 159.80878 
L 554.245055 160.383406 
L 556.068368 160.334656 
L 556.068368 164.986356 
L 557.891681 169.764872 
L 557.891681 177.78972 
L 560.036755 179.861571 
L 560.036755 185.853427 
L 561.860068 185.378683 
L 561.860068 185.17551 
L 563.683381 184.592305 
L 563.683381 184.363739 
L 565.506694 184.833548 
L 565.506694 184.352707 
L 567.27638 185.001905 
L 567.27638 184.47041 
L 569.475081 183.187129 
L 569.475081 182.074984 
L 571.244767 179.962754 
L 571.244767 178.472344 
L 573.06808 177.081947 
L 573.06808 176.249531 
L 574.891393 174.818618 
L 574.891393 173.374842 
L 576.714706 171.928015 
L 576.714706 171.127806 
L 578.85978 170.152438 
L 578.85978 169.295624 
L 580.683093 168.423013 
L 580.683093 168.154716 
L 582.506406 167.562205 
L 582.506406 167.264701 
L 584.276092 166.8525 
L 584.276092 166.529897 
L 586.099405 165.832825 
L 586.099405 165.42379 
L 587.922718 164.700411 
L 587.922718 164.346791 
L 590.067792 164.29892 
L 590.067792 164.007287 
L 591.891104 163.563514 
L 591.891104 163.209163 
L 593.714417 162.660705 
L 593.714417 162.70956 
L 595.53773 162.557681 
L 595.53773 162.045119 
L 597.361043 161.805474 
L 597.361043 161.10956 
L 599.506117 161.274999 
L 599.506117 160.763203 
L 601.32943 160.418227 
L 601.32943 160.252097 
L 603.099116 160.296576 
L 603.099116 161.91113 
L 604.922429 163.406379 
L 604.922429 165.425983 
L 606.745742 169.647891 
L 606.745742 173.608987 
L 608.890816 176.873268 
L 608.890816 179.226489 
L 610.714129 181.384072 
L 610.714129 182.147763 
L 612.537442 183.016895 
L 612.537442 184.873618 
L 614.360755 186.185045 
L 614.360755 186.450517 
L 616.130441 187.92315 
L 616.130441 187.705611 
L 617.953754 187.496789 
L 617.953754 189.340141 
L 619.777067 191.687515 
L 620.098828 193.410926 
L 620.098828 196.432537 
L 621.922141 197.66423 
L 621.922141 199.204526 
L 623.745454 204.744551 
L 623.745454 209.759035 
L 625.568767 212.207072 
L 625.568767 219.665155 
L 627.39208 227.217532 
L 627.39208 235.335141 
L 629.537154 237.822671 
L 629.537154 246.723503 
L 631.360467 246.157242 
L 631.360467 254.607595 
L 633.505541 254.568719 
L 634.846212 256.301759 
L 635.167973 256.197249 
L 635.167973 259.282321 
L 637.634808 259.605176 
L 639.779882 258.578266 
L 639.779882 256.788316 
L 639.779882 259.308029 
L 641.978583 261.666934 
L 641.978583 256.928578 
L 643.426508 251.375293 
L 648.413805 246.92632 
L 650.022611 241.67169 
L 650.022611 236.828418 
L 651.202402 231.914936 
L 652.328565 225.512425 
L 654.473639 218.359605 
L 654.473639 207.080645 
L 656.994101 203.018008 
L 657.315863 199.895647 
L 657.315863 197.135656 
L 659.139175 194.103672 
L 660.104459 191.051716 
L 660.801608 188.288119 
L 661.123369 185.05794 
L 661.123369 182.115067 
L 663.268443 179.260558 
L 664.287353 176.960011 
L 664.930875 174.330637 
L 668.631128 167.961174 
L 669.328277 166.773213 
L 670.29356 165.678393 
L 671.312471 164.773339 
L 672.00962 163.39133 
L 672.974903 162.4618 
L 673.672052 161.551574 
L 674.690962 160.865979 
L 676.353395 159.269584 
L 678.337588 158.317084 
L 679.356498 157.658395 
L 681.179811 157.253872 
L 681.179811 157.768757 
L 682.198721 158.666021 
L 682.842244 159.953428 
L 683.861154 159.700894 
L 684.880064 159.145476 
L 685.523586 161.109616 
L 686.542496 161.310405 
L 687.561406 161.811309 
L 689.223839 161.582453 
L 689.70648 166.310063 
L 690.350003 167.528919 
L 691.047152 168.565806 
L 692.066062 169.414995 
L 692.709584 171.198725 
L 693.728494 172.664589 
L 694.372016 172.395791 
L 695.390927 175.044246 
L 696.088076 177.994781 
L 698.23315 179.97399 
L 698.23315 183.308681 
L 698.876672 183.923617 
L 699.573821 186.343146 
L 700.592731 186.024039 
L 701.236253 187.116038 
L 702.255164 187.111598 
L 703.917596 186.719283 
L 704.614745 186.695952 
L 706.759819 186.189187 
L 706.759819 187.68314 
L 707.08158 191.975382 
L 708.10049 194.498677 
L 709.441162 201.682282 
L 711.103594 211.64724 
L 711.747116 211.627372 
L 712.444265 215.299124 
L 713.463175 223.718529 
L 715.232861 230.16043 
L 715.232861 236.996935 
L 716.948921 248.592453 
L 717.592443 250.795672 
L 718.289592 251.83501 
L 718.611353 253.797365 
L 720.756427 253.561431 
L 720.756427 252.854197 
L 722.901501 253.778156 
L 722.901501 252.052044 
L 723.223262 250.159193 
L 725.368336 247.520667 
L 725.368336 241.577639 
L 727.191649 236.477696 
L 728.693201 230.548446 
L 732.983349 222.491139 
L 732.983349 215.284877 
L 735.128423 208.082058 
L 735.450184 201.631598 
L 737.863393 191.471804 
L 738.989556 188.681959 
L 740.491108 186.253485 
L 740.491108 185.894616 
L 741.617272 188.56926 
L 742.797063 189.027325 
L 742.797063 188.927807 
L 743.923227 186.944677 
L 746.550942 181.589168 
L 746.550942 178.24773 
L 747.677106 175.368782 
L 749.178658 172.78537 
L 749.178658 171.031576 
L 750.304822 169.302714 
L 751.806374 168.17855 
L 751.806374 166.683613 
L 752.932538 165.784128 
L 755.560253 164.211121 
L 755.882014 163.711931 
L 756.686417 162.732651 
L 758.187969 162.051864 
L 759.314133 161.812984 
L 759.689521 161.056684 
L 760.493924 160.360448 
L 761.941849 160.223264 
L 763.121639 159.942646 
L 764.569564 159.147533 
L 764.569564 158.435421 
L 765.695728 158.709411 
L 766.875519 158.300858 
L 768.323444 158.247492 
L 768.323444 158.001906 
L 769.503235 158.659941 
L 770.95116 159.855156 
L 771.326547 159.739397 
L 772.13095 160.435376 
L 773.578875 161.113498 
L 774.758666 160.722279 
L 775.080427 161.560322 
L 775.88483 161.34909 
L 777.386382 161.797539 
L 778.512545 163.156733 
L 779.96047 166.741343 
L 779.96047 170.689904 
L 781.140261 179.163085 
L 782.266425 180.080612 
L 782.266425 183.307123 
L 783.767977 183.097011 
L 784.894141 182.336192 
L 786.395693 181.796229 
L 787.521856 181.894899 
L 787.521856 181.710231 
L 790.149572 180.691046 
L 790.149572 179.766085 
L 791.275736 178.021086 
L 792.777288 176.806237 
L 792.777288 175.338977 
L 793.903452 173.654937 
L 795.405004 172.464096 
L 796.531167 171.352081 
L 796.531167 170.656757 
L 797.657331 169.564928 
L 799.158883 169.382368 
L 800.285047 168.833866 
L 801.786599 167.646 
L 801.786599 167.15802 
L 802.912763 166.427494 
L 804.092553 166.296344 
L 805.540478 165.641208 
L 805.540478 165.348863 
L 806.720269 164.87826 
L 808.168194 164.582072 
L 808.168194 163.658359 
L 809.347985 163.048916 
L 810.79591 162.775656 
L 810.79591 162.978196 
L 811.922074 162.369396 
L 813.101864 161.225197 
L 814.549789 160.79294 
L 814.549789 159.683097 
L 817.177505 157.738421 
L 819.48346 156.617631 
L 819.48346 156.103226 
L 820.985011 155.541993 
L 822.111175 155.866987 
L 823.5591 157.850885 
L 823.5591 159.387245 
L 824.738891 159.209043 
L 825.865055 158.851501 
L 827.366607 158.505277 
L 827.366607 157.407925 
L 828.49277 156.678223 
L 831.120486 155.744313 
L 831.120486 155.296553 
L 832.622038 155.011971 
L 833.748202 154.984656 
L 834.874366 157.157687 
L 836.375918 156.405146 
L 836.375918 155.881908 
L 837.502081 155.45447 
L 839.003633 155.323602 
L 839.003633 156.099553 
L 840.129797 157.595661 
L 841.255961 157.995361 
L 842.757513 160.940213 
L 843.079274 161.244205 
L 843.883677 161.100804 
L 845.385229 162.836385 
L 846.511392 164.628146 
L 846.88678 163.845444 
L 847.691183 163.628413 
L 849.139108 163.406087 
L 850.318899 163.355638 
L 850.64066 163.484698 
L 851.766824 163.740273 
L 852.946614 163.267442 
L 854.394539 163.214537 
L 854.394539 163.903291 
L 855.520703 165.986826 
L 858.148419 167.961505 
L 858.148419 167.77115 
L 859.32821 168.082184 
L 861.258776 171.262913 
L 862.38494 174.168335 
L 863.564731 175.712887 
L 863.886492 175.578408 
L 864.690895 175.565317 
L 865.870686 177.36276 
L 866.675088 177.987425 
L 867.479491 178.214344 
L 868.766535 180.292356 
L 870.375341 179.730376 
L 870.697102 179.030546 
L 873.592952 177.696217 
L 874.879996 177.322475 
L 875.684399 177.595952 
L 876.971444 176.710422 
L 878.74113 176.273309 
L 879.062891 176.941302 
L 880.349935 176.520119 
L 880.349935 176.615767 
L 882.119621 176.469839 
L 882.119621 177.936631 
L 883.406666 178.040533 
L 884.69371 177.872779 
L 884.69371 176.577274 
L 886.409769 175.181635 
L 886.409769 173.837571 
L 888.179455 172.858276 
L 889.4665 171.657022 
L 889.4665 170.275116 
L 891.236186 169.42156 
L 891.236186 168.744103 
L 893.005872 168.022602 
L 893.005872 167.476948 
L 894.721931 166.73529 
L 894.721931 166.425871 
L 895.204573 165.829784 
L 898.422184 165.209872 
L 898.743945 164.792424 
L 900.138243 164.16835 
L 900.513631 163.633426 
L 902.712332 163.579476 
L 902.712332 163.176371 
L 904.96466 165.83191 
L 904.96466 165.367616 
L 907.163361 164.34291 
L 907.163361 163.783064 
L 909.415688 163.499458 
L 909.89833 163.274641 
L 911.668016 163.056066 
L 911.668016 162.62063 
L 914.027598 163.165436 
L 914.349359 162.453731 
L 916.70894 162.352052 
L 917.030701 162.209414 
L 917.030701 161.870679 
L 919.44391 161.774241 
L 919.765671 163.576881 
L 920.730954 163.276829 
L 922.929655 163.072965 
L 922.929655 162.649994 
L 923.412297 162.368923 
L 926.576281 162.380743 
L 926.576281 163.413459 
L 927.058922 165.472404 
L 928.024206 164.926073 
L 930.383787 165.255005 
L 930.705548 166.697943 
L 930.705548 167.703433 
L 931.670832 167.312563 
L 932.636115 167.046522 
L 935.317457 166.067299 
L 936.282741 165.498874 
L 937.194397 165.158416 
L 939.446725 165.863574 
L 939.446725 167.311078 
L 939.929367 169.990504 
L 940.89465 172.185763 
L 941.323665 172.400876 
L 942.288948 177.537533 
L 944.541276 179.561715 
L 944.541276 180.354924 
L 945.023917 182.342375 
L 945.935574 185.277215 
L 946.900857 185.125411 
L 947.383499 186.189357 
L 949.099558 186.998305 
L 949.099558 192.135852 
L 950.064841 193.395492 
L 951.030125 195.884682 
L 951.512766 196.589275 
L 952.424423 201.566727 
L 954.194109 204.471393 
L 954.194109 204.165398 
L 954.676751 206.66722 
L 955.642034 207.795607 
L 956.55369 209.862445 
L 957.036332 214.595413 
L 958.001615 215.31452 
L 959.771301 215.895107 
L 959.771301 221.593944 
L 960.682958 239.684775 
L 961.648241 239.677573 
L 962.130883 247.836214 
L 962.613524 246.783756 
L 963.525181 247.261596 
L 965.294867 250.326614 
L 965.294867 253.082977 
L 965.294867 252.873351 
L 967.171807 251.667043 
L 968.029836 250.67191 
L 970.603925 249.910046 
L 970.603925 245.270542 
L 972.427238 243.534663 
L 972.427238 236.970737 
L 974.572312 230.034369 
L 976.878267 221.887728 
L 976.878267 213.645677 
L 979.023341 206.134612 
L 979.023341 199.72571 
L 981.168415 194.109259 
L 981.168415 189.683983 
L 982.669967 186.061846 
L 984.117892 184.312072 
L 986.852861 182.937054 
L 988.247159 180.89476 
L 988.729801 178.797725 
L 990.660367 174.639247 
L 991.089382 172.866756 
L 992.054666 171.811799 
L 993.019949 171.061302 
L 993.502591 170.251269 
L 994.414247 171.137543 
L 995.37953 170.866803 
L 996.344814 172.318424 
L 996.773828 177.428001 
L 998.060873 182.704914 
L 998.543515 186.806785 
L 999.347917 191.348105 
L 1000.313201 191.417822 
L 1001.117603 192.133948 
L 1001.922006 194.924174 
L 1002.726409 198.489391 
L 1003.530812 198.346297 
L 1004.817856 199.369297 
L 1005.300498 202.467775 
L 1005.997647 208.396874 
L 1006.80205 208.749626 
L 1007.606452 208.581349 
L 1008.410855 207.663926 
L 1008.893497 206.69882 
L 1010.019661 206.568462 
L 1010.824063 206.347866 
L 1011.950227 208.896473 
L 1011.950227 208.896473 
" clip-path="url(#pd62295f569)" style="fill: none; stroke: #0fbcf9; stroke-opacity: 0.99; stroke-width: 2.4; stroke-linecap: square"/>
   </g>
   <g id="patch_3">
    <path d="M 46.9525 434.50912 
L 46.9525 72.24032 
" style="fill: none; stroke: #000000; stroke-width: 0.8; stroke-linejoin: miter; stroke-linecap: square"/>
   </g>
   <g id="patch_4">
    <path d="M 1057.9025 434.50912 
L 1057.9025 72.24032 
" style="fill: none; stroke: #000000; stroke-width: 0.8; stroke-linejoin: miter; stroke-linecap: square"/>
   </g>
   <g id="patch_5">
    <path d="M 46.9525 434.50912 
L 1057.9025 434.50912 
" style="fill: none; stroke: #000000; stroke-width: 0.8; stroke-linejoin: miter; stroke-linecap: square"/>
   </g>
   <g id="patch_6">
    <path d="M 46.9525 72.24032 
L 1057.9025 72.24032 
" style="fill: none; stroke: #000000; stroke-width: 0.8; stroke-linejoin: miter; stroke-linecap: square"/>
   </g>
   <g id="legend_1">
    <g id="patch_7">
     <path d="M 339.6085 35.8 
L 724.8085 35.8 
Q 728.8085 35.8 728.8085 31.8 
L 728.8085 4 
Q 728.8085 -0 724.8085 -0 
L 339.6085 -0 
Q 335.6085 -0 335.6085 4 
L 335.6085 31.8 
Q 335.6085 35.8 339.6085 35.8 
z
" style="fill: #ffffff; opacity: 0.8; stroke: #cccccc; stroke-linejoin: miter"/>
    </g>
    <g id="line2d_23">
     <path d="M 343.6085 16.6 
L 363.6085 16.6 
L 383.6085 16.6 
" style="fill: none; stroke: #ff3f34; stroke-opacity: 0.99; stroke-width: 2.4; stroke-linecap: square"/>
    </g>
    <g id="text_13">
     <!-- MLP256$^l$ -->
     <g transform="translate(399.6085 23.6)scale(0.2 -0.2)">
      <defs>
       <path id="DejaVuSans-4d" d="M 628 4666 
L 1569 4666 
L 2759 1491 
L 3956 4666 
L 4897 4666 
L 4897 0 
L 4281 0 
L 4281 4097 
L 3078 897 
L 2444 897 
L 1241 4097 
L 1241 0 
L 628 0 
L 628 4666 
z
" transform="scale(0.015625)"/>
       <path id="DejaVuSans-4c" d="M 628 4666 
L 1259 4666 
L 1259 531 
L 3531 531 
L 3531 0 
L 628 0 
L 628 4666 
z
" transform="scale(0.015625)"/>
       <path id="DejaVuSans-50" d="M 1259 4147 
L 1259 2394 
L 2053 2394 
Q 2494 2394 2734 2622 
Q 2975 2850 2975 3272 
Q 2975 3691 2734 3919 
Q 2494 4147 2053 4147 
L 1259 4147 
z
M 628 4666 
L 2053 4666 
Q 2838 4666 3239 4311 
Q 3641 3956 3641 3272 
Q 3641 2581 3239 2228 
Q 2838 1875 2053 1875 
L 1259 1875 
L 1259 0 
L 628 0 
L 628 4666 
z
" transform="scale(0.015625)"/>
       <path id="DejaVuSans-35" d="M 691 4666 
L 3169 4666 
L 3169 4134 
L 1269 4134 
L 1269 2991 
Q 1406 3038 1543 3061 
Q 1681 3084 1819 3084 
Q 2600 3084 3056 2656 
Q 3513 2228 3513 1497 
Q 3513 744 3044 326 
Q 2575 -91 1722 -91 
Q 1428 -91 1123 -41 
Q 819 9 494 109 
L 494 744 
Q 775 591 1075 516 
Q 1375 441 1709 441 
Q 2250 441 2565 725 
Q 2881 1009 2881 1497 
Q 2881 1984 2565 2268 
Q 2250 2553 1709 2553 
Q 1456 2553 1204 2497 
Q 953 2441 691 2322 
L 691 4666 
z
" transform="scale(0.015625)"/>
       <path id="DejaVuSans-Oblique-6c" d="M 1172 4863 
L 1747 4863 
L 800 0 
L 225 0 
L 1172 4863 
z
" transform="scale(0.015625)"/>
      </defs>
      <use xlink:href="#DejaVuSans-4d" transform="translate(0 0.529687)"/>
      <use xlink:href="#DejaVuSans-4c" transform="translate(86.279297 0.529687)"/>
      <use xlink:href="#DejaVuSans-50" transform="translate(141.992188 0.529687)"/>
      <use xlink:href="#DejaVuSans-32" transform="translate(202.294922 0.529687)"/>
      <use xlink:href="#DejaVuSans-35" transform="translate(265.917969 0.529687)"/>
      <use xlink:href="#DejaVuSans-36" transform="translate(329.541016 0.529687)"/>
      <use xlink:href="#DejaVuSans-Oblique-6c" transform="translate(394.121094 38.810937)scale(0.7)"/>
     </g>
    </g>
    <g id="line2d_24">
     <path d="M 523.0085 16.6 
L 543.0085 16.6 
L 563.0085 16.6 
" style="fill: none; stroke: #0fbcf9; stroke-opacity: 0.99; stroke-width: 2.4; stroke-linecap: square"/>
    </g>
    <g id="text_14">
     <!-- TinyLidarNet$^m$ -->
     <g transform="translate(579.0085 23.6)scale(0.2 -0.2)">
      <defs>
       <path id="DejaVuSans-69" d="M 603 3500 
L 1178 3500 
L 1178 0 
L 603 0 
L 603 3500 
z
M 603 4863 
L 1178 4863 
L 1178 4134 
L 603 4134 
L 603 4863 
z
" transform="scale(0.015625)"/>
       <path id="DejaVuSans-6e" d="M 3513 2113 
L 3513 0 
L 2938 0 
L 2938 2094 
Q 2938 2591 2744 2837 
Q 2550 3084 2163 3084 
Q 1697 3084 1428 2787 
Q 1159 2491 1159 1978 
L 1159 0 
L 581 0 
L 581 3500 
L 1159 3500 
L 1159 2956 
Q 1366 3272 1645 3428 
Q 1925 3584 2291 3584 
Q 2894 3584 3203 3211 
Q 3513 2838 3513 2113 
z
" transform="scale(0.015625)"/>
       <path id="DejaVuSans-79" d="M 2059 -325 
Q 1816 -950 1584 -1140 
Q 1353 -1331 966 -1331 
L 506 -1331 
L 506 -850 
L 844 -850 
Q 1081 -850 1212 -737 
Q 1344 -625 1503 -206 
L 1606 56 
L 191 3500 
L 800 3500 
L 1894 763 
L 2988 3500 
L 3597 3500 
L 2059 -325 
z
" transform="scale(0.015625)"/>
       <path id="DejaVuSans-4e" d="M 628 4666 
L 1478 4666 
L 3547 763 
L 3547 4666 
L 4159 4666 
L 4159 0 
L 3309 0 
L 1241 3903 
L 1241 0 
L 628 0 
L 628 4666 
z
" transform="scale(0.015625)"/>
       <path id="DejaVuSans-74" d="M 1172 4494 
L 1172 3500 
L 2356 3500 
L 2356 3053 
L 1172 3053 
L 1172 1153 
Q 1172 725 1289 603 
Q 1406 481 1766 481 
L 2356 481 
L 2356 0 
L 1766 0 
Q 1100 0 847 248 
Q 594 497 594 1153 
L 594 3053 
L 172 3053 
L 172 3500 
L 594 3500 
L 594 4494 
L 1172 4494 
z
" transform="scale(0.015625)"/>
       <path id="DejaVuSans-Oblique-6d" d="M 5747 2113 
L 5338 0 
L 4763 0 
L 5166 2094 
Q 5191 2228 5203 2325 
Q 5216 2422 5216 2491 
Q 5216 2772 5059 2928 
Q 4903 3084 4622 3084 
Q 4203 3084 3875 2770 
Q 3547 2456 3450 1953 
L 3066 0 
L 2491 0 
L 2900 2094 
Q 2925 2209 2937 2307 
Q 2950 2406 2950 2484 
Q 2950 2769 2794 2926 
Q 2638 3084 2363 3084 
Q 1938 3084 1609 2770 
Q 1281 2456 1184 1953 
L 800 0 
L 225 0 
L 909 3500 
L 1484 3500 
L 1375 2956 
Q 1609 3263 1923 3423 
Q 2238 3584 2597 3584 
Q 2978 3584 3223 3384 
Q 3469 3184 3519 2828 
Q 3781 3197 4126 3390 
Q 4472 3584 4856 3584 
Q 5306 3584 5551 3325 
Q 5797 3066 5797 2591 
Q 5797 2488 5784 2364 
Q 5772 2241 5747 2113 
z
" transform="scale(0.015625)"/>
      </defs>
      <use xlink:href="#DejaVuSans-54" transform="translate(0 0.51875)"/>
      <use xlink:href="#DejaVuSans-69" transform="translate(61.083984 0.51875)"/>
      <use xlink:href="#DejaVuSans-6e" transform="translate(88.867188 0.51875)"/>
      <use xlink:href="#DejaVuSans-79" transform="translate(152.246094 0.51875)"/>
      <use xlink:href="#DejaVuSans-4c" transform="translate(211.425781 0.51875)"/>
      <use xlink:href="#DejaVuSans-69" transform="translate(267.138672 0.51875)"/>
      <use xlink:href="#DejaVuSans-64" transform="translate(294.921875 0.51875)"/>
      <use xlink:href="#DejaVuSans-61" transform="translate(358.398438 0.51875)"/>
      <use xlink:href="#DejaVuSans-72" transform="translate(419.677734 0.51875)"/>
      <use xlink:href="#DejaVuSans-4e" transform="translate(460.791016 0.51875)"/>
      <use xlink:href="#DejaVuSans-65" transform="translate(535.595703 0.51875)"/>
      <use xlink:href="#DejaVuSans-74" transform="translate(597.119141 0.51875)"/>
      <use xlink:href="#DejaVuSans-Oblique-6d" transform="translate(637.285156 38.8)scale(0.7)"/>
     </g>
    </g>
   </g>
  </g>
 </g>
 <defs>
  <clipPath id="pd62295f569">
   <rect x="46.9525" y="72.24032" width="1010.95" height="362.2688"/>
  </clipPath>
 </defs>
</svg>
