<?xml version="1.0" encoding="utf-8" standalone="no"?>
<!DOCTYPE svg PUBLIC "-//W3C//DTD SVG 1.1//EN"
  "http://www.w3.org/Graphics/SVG/1.1/DTD/svg11.dtd">
<svg xmlns:xlink="http://www.w3.org/1999/xlink" width="409.970625pt" height="130.231301pt" viewBox="0 0 409.970625 130.231301" xmlns="http://www.w3.org/2000/svg" version="1.1">
 <metadata>
  <rdf:RDF xmlns:dc="http://purl.org/dc/elements/1.1/" xmlns:cc="http://creativecommons.org/ns#" xmlns:rdf="http://www.w3.org/1999/02/22-rdf-syntax-ns#">
   <cc:Work>
    <dc:type rdf:resource="http://purl.org/dc/dcmitype/StillImage"/>
    <dc:date>2024-03-08T20:51:08.063345</dc:date>
    <dc:format>image/svg+xml</dc:format>
    <dc:creator>
     <cc:Agent>
      <dc:title>Matplotlib v3.5.2, https://matplotlib.org/</dc:title>
     </cc:Agent>
    </dc:creator>
   </cc:Work>
  </rdf:RDF>
 </metadata>
 <defs>
  <style type="text/css">*{stroke-linejoin: round; stroke-linecap: butt}</style>
 </defs>
 <g id="figure_1">
  <g id="patch_1">
   <path d="M 0 130.231301 
L 409.970625 130.231301 
L 409.970625 0 
L 0 0 
z
" style="fill: #ffffff"/>
  </g>
  <g id="axes_1">
   <g id="patch_2">
    <path d="M 27.040625 99.875051 
L 409.970625 99.875051 
L 409.970625 16.870251 
L 27.040625 16.870251 
z
" style="fill: #ffffff"/>
   </g>
   <g id="matplotlib.axis_1">
    <g id="xtick_1">
     <g id="line2d_1">
      <path d="M 44.446534 99.875051 
L 44.446534 16.870251 
" clip-path="url(#pc9cd4133a3)" style="fill: none; stroke: #b0b0b0; stroke-width: 0.8; stroke-linecap: square"/>
     </g>
     <g id="line2d_2">
      <defs>
       <path id="ma1b7b9bb50" d="M 0 0 
L 0 3.5 
" style="stroke: #000000; stroke-width: 0.8"/>
      </defs>
      <g>
       <use xlink:href="#ma1b7b9bb50" x="44.446534" y="99.875051" style="stroke: #000000; stroke-width: 0.8"/>
      </g>
     </g>
     <g id="text_1">
      <!-- 0 -->
      <g transform="translate(41.265284 114.473489)scale(0.1 -0.1)">
       <defs>
        <path id="DejaVuSans-30" d="M 2034 4250 
Q 1547 4250 1301 3770 
Q 1056 3291 1056 2328 
Q 1056 1369 1301 889 
Q 1547 409 2034 409 
Q 2525 409 2770 889 
Q 3016 1369 3016 2328 
Q 3016 3291 2770 3770 
Q 2525 4250 2034 4250 
z
M 2034 4750 
Q 2819 4750 3233 4129 
Q 3647 3509 3647 2328 
Q 3647 1150 3233 529 
Q 2819 -91 2034 -91 
Q 1250 -91 836 529 
Q 422 1150 422 2328 
Q 422 3509 836 4129 
Q 1250 4750 2034 4750 
z
" transform="scale(0.015625)"/>
       </defs>
       <use xlink:href="#DejaVuSans-30"/>
      </g>
     </g>
    </g>
    <g id="xtick_2">
     <g id="line2d_3">
      <path d="M 114.499046 99.875051 
L 114.499046 16.870251 
" clip-path="url(#pc9cd4133a3)" style="fill: none; stroke: #b0b0b0; stroke-width: 0.8; stroke-linecap: square"/>
     </g>
     <g id="line2d_4">
      <g>
       <use xlink:href="#ma1b7b9bb50" x="114.499046" y="99.875051" style="stroke: #000000; stroke-width: 0.8"/>
      </g>
     </g>
     <g id="text_2">
      <!-- 20 -->
      <g transform="translate(108.136546 114.473489)scale(0.1 -0.1)">
       <defs>
        <path id="DejaVuSans-32" d="M 1228 531 
L 3431 531 
L 3431 0 
L 469 0 
L 469 531 
Q 828 903 1448 1529 
Q 2069 2156 2228 2338 
Q 2531 2678 2651 2914 
Q 2772 3150 2772 3378 
Q 2772 3750 2511 3984 
Q 2250 4219 1831 4219 
Q 1534 4219 1204 4116 
Q 875 4013 500 3803 
L 500 4441 
Q 881 4594 1212 4672 
Q 1544 4750 1819 4750 
Q 2544 4750 2975 4387 
Q 3406 4025 3406 3419 
Q 3406 3131 3298 2873 
Q 3191 2616 2906 2266 
Q 2828 2175 2409 1742 
Q 1991 1309 1228 531 
z
" transform="scale(0.015625)"/>
       </defs>
       <use xlink:href="#DejaVuSans-32"/>
       <use xlink:href="#DejaVuSans-30" x="63.623047"/>
      </g>
     </g>
    </g>
    <g id="xtick_3">
     <g id="line2d_5">
      <path d="M 184.551559 99.875051 
L 184.551559 16.870251 
" clip-path="url(#pc9cd4133a3)" style="fill: none; stroke: #b0b0b0; stroke-width: 0.8; stroke-linecap: square"/>
     </g>
     <g id="line2d_6">
      <g>
       <use xlink:href="#ma1b7b9bb50" x="184.551559" y="99.875051" style="stroke: #000000; stroke-width: 0.8"/>
      </g>
     </g>
     <g id="text_3">
      <!-- 40 -->
      <g transform="translate(178.189059 114.473489)scale(0.1 -0.1)">
       <defs>
        <path id="DejaVuSans-34" d="M 2419 4116 
L 825 1625 
L 2419 1625 
L 2419 4116 
z
M 2253 4666 
L 3047 4666 
L 3047 1625 
L 3713 1625 
L 3713 1100 
L 3047 1100 
L 3047 0 
L 2419 0 
L 2419 1100 
L 313 1100 
L 313 1709 
L 2253 4666 
z
" transform="scale(0.015625)"/>
       </defs>
       <use xlink:href="#DejaVuSans-34"/>
       <use xlink:href="#DejaVuSans-30" x="63.623047"/>
      </g>
     </g>
    </g>
    <g id="xtick_4">
     <g id="line2d_7">
      <path d="M 254.604071 99.875051 
L 254.604071 16.870251 
" clip-path="url(#pc9cd4133a3)" style="fill: none; stroke: #b0b0b0; stroke-width: 0.8; stroke-linecap: square"/>
     </g>
     <g id="line2d_8">
      <g>
       <use xlink:href="#ma1b7b9bb50" x="254.604071" y="99.875051" style="stroke: #000000; stroke-width: 0.8"/>
      </g>
     </g>
     <g id="text_4">
      <!-- 60 -->
      <g transform="translate(248.241571 114.473489)scale(0.1 -0.1)">
       <defs>
        <path id="DejaVuSans-36" d="M 2113 2584 
Q 1688 2584 1439 2293 
Q 1191 2003 1191 1497 
Q 1191 994 1439 701 
Q 1688 409 2113 409 
Q 2538 409 2786 701 
Q 3034 994 3034 1497 
Q 3034 2003 2786 2293 
Q 2538 2584 2113 2584 
z
M 3366 4563 
L 3366 3988 
Q 3128 4100 2886 4159 
Q 2644 4219 2406 4219 
Q 1781 4219 1451 3797 
Q 1122 3375 1075 2522 
Q 1259 2794 1537 2939 
Q 1816 3084 2150 3084 
Q 2853 3084 3261 2657 
Q 3669 2231 3669 1497 
Q 3669 778 3244 343 
Q 2819 -91 2113 -91 
Q 1303 -91 875 529 
Q 447 1150 447 2328 
Q 447 3434 972 4092 
Q 1497 4750 2381 4750 
Q 2619 4750 2861 4703 
Q 3103 4656 3366 4563 
z
" transform="scale(0.015625)"/>
       </defs>
       <use xlink:href="#DejaVuSans-36"/>
       <use xlink:href="#DejaVuSans-30" x="63.623047"/>
      </g>
     </g>
    </g>
    <g id="xtick_5">
     <g id="line2d_9">
      <path d="M 324.656584 99.875051 
L 324.656584 16.870251 
" clip-path="url(#pc9cd4133a3)" style="fill: none; stroke: #b0b0b0; stroke-width: 0.8; stroke-linecap: square"/>
     </g>
     <g id="line2d_10">
      <g>
       <use xlink:href="#ma1b7b9bb50" x="324.656584" y="99.875051" style="stroke: #000000; stroke-width: 0.8"/>
      </g>
     </g>
     <g id="text_5">
      <!-- 80 -->
      <g transform="translate(318.294084 114.473489)scale(0.1 -0.1)">
       <defs>
        <path id="DejaVuSans-38" d="M 2034 2216 
Q 1584 2216 1326 1975 
Q 1069 1734 1069 1313 
Q 1069 891 1326 650 
Q 1584 409 2034 409 
Q 2484 409 2743 651 
Q 3003 894 3003 1313 
Q 3003 1734 2745 1975 
Q 2488 2216 2034 2216 
z
M 1403 2484 
Q 997 2584 770 2862 
Q 544 3141 544 3541 
Q 544 4100 942 4425 
Q 1341 4750 2034 4750 
Q 2731 4750 3128 4425 
Q 3525 4100 3525 3541 
Q 3525 3141 3298 2862 
Q 3072 2584 2669 2484 
Q 3125 2378 3379 2068 
Q 3634 1759 3634 1313 
Q 3634 634 3220 271 
Q 2806 -91 2034 -91 
Q 1263 -91 848 271 
Q 434 634 434 1313 
Q 434 1759 690 2068 
Q 947 2378 1403 2484 
z
M 1172 3481 
Q 1172 3119 1398 2916 
Q 1625 2713 2034 2713 
Q 2441 2713 2670 2916 
Q 2900 3119 2900 3481 
Q 2900 3844 2670 4047 
Q 2441 4250 2034 4250 
Q 1625 4250 1398 4047 
Q 1172 3844 1172 3481 
z
" transform="scale(0.015625)"/>
       </defs>
       <use xlink:href="#DejaVuSans-38"/>
       <use xlink:href="#DejaVuSans-30" x="63.623047"/>
      </g>
     </g>
    </g>
    <g id="xtick_6">
     <g id="line2d_11">
      <path d="M 394.709096 99.875051 
L 394.709096 16.870251 
" clip-path="url(#pc9cd4133a3)" style="fill: none; stroke: #b0b0b0; stroke-width: 0.8; stroke-linecap: square"/>
     </g>
     <g id="line2d_12">
      <g>
       <use xlink:href="#ma1b7b9bb50" x="394.709096" y="99.875051" style="stroke: #000000; stroke-width: 0.8"/>
      </g>
     </g>
     <g id="text_6">
      <!-- 100 -->
      <g transform="translate(385.165346 114.473489)scale(0.1 -0.1)">
       <defs>
        <path id="DejaVuSans-31" d="M 794 531 
L 1825 531 
L 1825 4091 
L 703 3866 
L 703 4441 
L 1819 4666 
L 2450 4666 
L 2450 531 
L 3481 531 
L 3481 0 
L 794 0 
L 794 531 
z
" transform="scale(0.015625)"/>
       </defs>
       <use xlink:href="#DejaVuSans-31"/>
       <use xlink:href="#DejaVuSans-30" x="63.623047"/>
       <use xlink:href="#DejaVuSans-30" x="127.246094"/>
      </g>
     </g>
    </g>
    <g id="text_7">
     <!-- Track progress [%] -->
     <g transform="translate(172.015 128.151614)scale(0.1 -0.1)">
      <defs>
       <path id="DejaVuSans-54" d="M -19 4666 
L 3928 4666 
L 3928 4134 
L 2272 4134 
L 2272 0 
L 1638 0 
L 1638 4134 
L -19 4134 
L -19 4666 
z
" transform="scale(0.015625)"/>
       <path id="DejaVuSans-72" d="M 2631 2963 
Q 2534 3019 2420 3045 
Q 2306 3072 2169 3072 
Q 1681 3072 1420 2755 
Q 1159 2438 1159 1844 
L 1159 0 
L 581 0 
L 581 3500 
L 1159 3500 
L 1159 2956 
Q 1341 3275 1631 3429 
Q 1922 3584 2338 3584 
Q 2397 3584 2469 3576 
Q 2541 3569 2628 3553 
L 2631 2963 
z
" transform="scale(0.015625)"/>
       <path id="DejaVuSans-61" d="M 2194 1759 
Q 1497 1759 1228 1600 
Q 959 1441 959 1056 
Q 959 750 1161 570 
Q 1363 391 1709 391 
Q 2188 391 2477 730 
Q 2766 1069 2766 1631 
L 2766 1759 
L 2194 1759 
z
M 3341 1997 
L 3341 0 
L 2766 0 
L 2766 531 
Q 2569 213 2275 61 
Q 1981 -91 1556 -91 
Q 1019 -91 701 211 
Q 384 513 384 1019 
Q 384 1609 779 1909 
Q 1175 2209 1959 2209 
L 2766 2209 
L 2766 2266 
Q 2766 2663 2505 2880 
Q 2244 3097 1772 3097 
Q 1472 3097 1187 3025 
Q 903 2953 641 2809 
L 641 3341 
Q 956 3463 1253 3523 
Q 1550 3584 1831 3584 
Q 2591 3584 2966 3190 
Q 3341 2797 3341 1997 
z
" transform="scale(0.015625)"/>
       <path id="DejaVuSans-63" d="M 3122 3366 
L 3122 2828 
Q 2878 2963 2633 3030 
Q 2388 3097 2138 3097 
Q 1578 3097 1268 2742 
Q 959 2388 959 1747 
Q 959 1106 1268 751 
Q 1578 397 2138 397 
Q 2388 397 2633 464 
Q 2878 531 3122 666 
L 3122 134 
Q 2881 22 2623 -34 
Q 2366 -91 2075 -91 
Q 1284 -91 818 406 
Q 353 903 353 1747 
Q 353 2603 823 3093 
Q 1294 3584 2113 3584 
Q 2378 3584 2631 3529 
Q 2884 3475 3122 3366 
z
" transform="scale(0.015625)"/>
       <path id="DejaVuSans-6b" d="M 581 4863 
L 1159 4863 
L 1159 1991 
L 2875 3500 
L 3609 3500 
L 1753 1863 
L 3688 0 
L 2938 0 
L 1159 1709 
L 1159 0 
L 581 0 
L 581 4863 
z
" transform="scale(0.015625)"/>
       <path id="DejaVuSans-20" transform="scale(0.015625)"/>
       <path id="DejaVuSans-70" d="M 1159 525 
L 1159 -1331 
L 581 -1331 
L 581 3500 
L 1159 3500 
L 1159 2969 
Q 1341 3281 1617 3432 
Q 1894 3584 2278 3584 
Q 2916 3584 3314 3078 
Q 3713 2572 3713 1747 
Q 3713 922 3314 415 
Q 2916 -91 2278 -91 
Q 1894 -91 1617 61 
Q 1341 213 1159 525 
z
M 3116 1747 
Q 3116 2381 2855 2742 
Q 2594 3103 2138 3103 
Q 1681 3103 1420 2742 
Q 1159 2381 1159 1747 
Q 1159 1113 1420 752 
Q 1681 391 2138 391 
Q 2594 391 2855 752 
Q 3116 1113 3116 1747 
z
" transform="scale(0.015625)"/>
       <path id="DejaVuSans-6f" d="M 1959 3097 
Q 1497 3097 1228 2736 
Q 959 2375 959 1747 
Q 959 1119 1226 758 
Q 1494 397 1959 397 
Q 2419 397 2687 759 
Q 2956 1122 2956 1747 
Q 2956 2369 2687 2733 
Q 2419 3097 1959 3097 
z
M 1959 3584 
Q 2709 3584 3137 3096 
Q 3566 2609 3566 1747 
Q 3566 888 3137 398 
Q 2709 -91 1959 -91 
Q 1206 -91 779 398 
Q 353 888 353 1747 
Q 353 2609 779 3096 
Q 1206 3584 1959 3584 
z
" transform="scale(0.015625)"/>
       <path id="DejaVuSans-67" d="M 2906 1791 
Q 2906 2416 2648 2759 
Q 2391 3103 1925 3103 
Q 1463 3103 1205 2759 
Q 947 2416 947 1791 
Q 947 1169 1205 825 
Q 1463 481 1925 481 
Q 2391 481 2648 825 
Q 2906 1169 2906 1791 
z
M 3481 434 
Q 3481 -459 3084 -895 
Q 2688 -1331 1869 -1331 
Q 1566 -1331 1297 -1286 
Q 1028 -1241 775 -1147 
L 775 -588 
Q 1028 -725 1275 -790 
Q 1522 -856 1778 -856 
Q 2344 -856 2625 -561 
Q 2906 -266 2906 331 
L 2906 616 
Q 2728 306 2450 153 
Q 2172 0 1784 0 
Q 1141 0 747 490 
Q 353 981 353 1791 
Q 353 2603 747 3093 
Q 1141 3584 1784 3584 
Q 2172 3584 2450 3431 
Q 2728 3278 2906 2969 
L 2906 3500 
L 3481 3500 
L 3481 434 
z
" transform="scale(0.015625)"/>
       <path id="DejaVuSans-65" d="M 3597 1894 
L 3597 1613 
L 953 1613 
Q 991 1019 1311 708 
Q 1631 397 2203 397 
Q 2534 397 2845 478 
Q 3156 559 3463 722 
L 3463 178 
Q 3153 47 2828 -22 
Q 2503 -91 2169 -91 
Q 1331 -91 842 396 
Q 353 884 353 1716 
Q 353 2575 817 3079 
Q 1281 3584 2069 3584 
Q 2775 3584 3186 3129 
Q 3597 2675 3597 1894 
z
M 3022 2063 
Q 3016 2534 2758 2815 
Q 2500 3097 2075 3097 
Q 1594 3097 1305 2825 
Q 1016 2553 972 2059 
L 3022 2063 
z
" transform="scale(0.015625)"/>
       <path id="DejaVuSans-73" d="M 2834 3397 
L 2834 2853 
Q 2591 2978 2328 3040 
Q 2066 3103 1784 3103 
Q 1356 3103 1142 2972 
Q 928 2841 928 2578 
Q 928 2378 1081 2264 
Q 1234 2150 1697 2047 
L 1894 2003 
Q 2506 1872 2764 1633 
Q 3022 1394 3022 966 
Q 3022 478 2636 193 
Q 2250 -91 1575 -91 
Q 1294 -91 989 -36 
Q 684 19 347 128 
L 347 722 
Q 666 556 975 473 
Q 1284 391 1588 391 
Q 1994 391 2212 530 
Q 2431 669 2431 922 
Q 2431 1156 2273 1281 
Q 2116 1406 1581 1522 
L 1381 1569 
Q 847 1681 609 1914 
Q 372 2147 372 2553 
Q 372 3047 722 3315 
Q 1072 3584 1716 3584 
Q 2034 3584 2315 3537 
Q 2597 3491 2834 3397 
z
" transform="scale(0.015625)"/>
       <path id="DejaVuSans-5b" d="M 550 4863 
L 1875 4863 
L 1875 4416 
L 1125 4416 
L 1125 -397 
L 1875 -397 
L 1875 -844 
L 550 -844 
L 550 4863 
z
" transform="scale(0.015625)"/>
       <path id="DejaVuSans-25" d="M 4653 2053 
Q 4381 2053 4226 1822 
Q 4072 1591 4072 1178 
Q 4072 772 4226 539 
Q 4381 306 4653 306 
Q 4919 306 5073 539 
Q 5228 772 5228 1178 
Q 5228 1588 5073 1820 
Q 4919 2053 4653 2053 
z
M 4653 2450 
Q 5147 2450 5437 2106 
Q 5728 1763 5728 1178 
Q 5728 594 5436 251 
Q 5144 -91 4653 -91 
Q 4153 -91 3862 251 
Q 3572 594 3572 1178 
Q 3572 1766 3864 2108 
Q 4156 2450 4653 2450 
z
M 1428 4353 
Q 1159 4353 1004 4120 
Q 850 3888 850 3481 
Q 850 3069 1003 2837 
Q 1156 2606 1428 2606 
Q 1700 2606 1854 2837 
Q 2009 3069 2009 3481 
Q 2009 3884 1853 4118 
Q 1697 4353 1428 4353 
z
M 4250 4750 
L 4750 4750 
L 1831 -91 
L 1331 -91 
L 4250 4750 
z
M 1428 4750 
Q 1922 4750 2215 4408 
Q 2509 4066 2509 3481 
Q 2509 2891 2217 2550 
Q 1925 2209 1428 2209 
Q 931 2209 642 2551 
Q 353 2894 353 3481 
Q 353 4063 643 4406 
Q 934 4750 1428 4750 
z
" transform="scale(0.015625)"/>
       <path id="DejaVuSans-5d" d="M 1947 4863 
L 1947 -844 
L 622 -844 
L 622 -397 
L 1369 -397 
L 1369 4416 
L 622 4416 
L 622 4863 
L 1947 4863 
z
" transform="scale(0.015625)"/>
      </defs>
      <use xlink:href="#DejaVuSans-54"/>
      <use xlink:href="#DejaVuSans-72" x="46.333984"/>
      <use xlink:href="#DejaVuSans-61" x="87.447266"/>
      <use xlink:href="#DejaVuSans-63" x="148.726562"/>
      <use xlink:href="#DejaVuSans-6b" x="203.707031"/>
      <use xlink:href="#DejaVuSans-20" x="261.617188"/>
      <use xlink:href="#DejaVuSans-70" x="293.404297"/>
      <use xlink:href="#DejaVuSans-72" x="356.880859"/>
      <use xlink:href="#DejaVuSans-6f" x="395.744141"/>
      <use xlink:href="#DejaVuSans-67" x="456.925781"/>
      <use xlink:href="#DejaVuSans-72" x="520.402344"/>
      <use xlink:href="#DejaVuSans-65" x="559.265625"/>
      <use xlink:href="#DejaVuSans-73" x="620.789062"/>
      <use xlink:href="#DejaVuSans-73" x="672.888672"/>
      <use xlink:href="#DejaVuSans-20" x="724.988281"/>
      <use xlink:href="#DejaVuSans-5b" x="756.775391"/>
      <use xlink:href="#DejaVuSans-25" x="795.789062"/>
      <use xlink:href="#DejaVuSans-5d" x="890.808594"/>
     </g>
    </g>
   </g>
   <g id="matplotlib.axis_2">
    <g id="ytick_1">
     <g id="line2d_13">
      <path d="M 27.040625 88.807745 
L 409.970625 88.807745 
" clip-path="url(#pc9cd4133a3)" style="fill: none; stroke: #b0b0b0; stroke-width: 0.8; stroke-linecap: square"/>
     </g>
     <g id="line2d_14">
      <defs>
       <path id="ma4c44bce33" d="M 0 0 
L -3.5 0 
" style="stroke: #000000; stroke-width: 0.8"/>
      </defs>
      <g>
       <use xlink:href="#ma4c44bce33" x="27.040625" y="88.807745" style="stroke: #000000; stroke-width: 0.8"/>
      </g>
     </g>
     <g id="text_8">
      <!-- 2 -->
      <g transform="translate(13.678125 92.606963)scale(0.1 -0.1)">
       <use xlink:href="#DejaVuSans-32"/>
      </g>
     </g>
    </g>
    <g id="ytick_2">
     <g id="line2d_15">
      <path d="M 27.040625 66.673131 
L 409.970625 66.673131 
" clip-path="url(#pc9cd4133a3)" style="fill: none; stroke: #b0b0b0; stroke-width: 0.8; stroke-linecap: square"/>
     </g>
     <g id="line2d_16">
      <g>
       <use xlink:href="#ma4c44bce33" x="27.040625" y="66.673131" style="stroke: #000000; stroke-width: 0.8"/>
      </g>
     </g>
     <g id="text_9">
      <!-- 4 -->
      <g transform="translate(13.678125 70.47235)scale(0.1 -0.1)">
       <use xlink:href="#DejaVuSans-34"/>
      </g>
     </g>
    </g>
    <g id="ytick_3">
     <g id="line2d_17">
      <path d="M 27.040625 44.538518 
L 409.970625 44.538518 
" clip-path="url(#pc9cd4133a3)" style="fill: none; stroke: #b0b0b0; stroke-width: 0.8; stroke-linecap: square"/>
     </g>
     <g id="line2d_18">
      <g>
       <use xlink:href="#ma4c44bce33" x="27.040625" y="44.538518" style="stroke: #000000; stroke-width: 0.8"/>
      </g>
     </g>
     <g id="text_10">
      <!-- 6 -->
      <g transform="translate(13.678125 48.337737)scale(0.1 -0.1)">
       <use xlink:href="#DejaVuSans-36"/>
      </g>
     </g>
    </g>
    <g id="ytick_4">
     <g id="line2d_19">
      <path d="M 27.040625 22.403905 
L 409.970625 22.403905 
" clip-path="url(#pc9cd4133a3)" style="fill: none; stroke: #b0b0b0; stroke-width: 0.8; stroke-linecap: square"/>
     </g>
     <g id="line2d_20">
      <g>
       <use xlink:href="#ma4c44bce33" x="27.040625" y="22.403905" style="stroke: #000000; stroke-width: 0.8"/>
      </g>
     </g>
     <g id="text_11">
      <!-- 8 -->
      <g transform="translate(13.678125 26.203123)scale(0.1 -0.1)">
       <use xlink:href="#DejaVuSans-38"/>
      </g>
     </g>
    </g>
    <g id="text_12">
     <!-- Speed [m/s] -->
     <g transform="translate(7.598438 88.698432)rotate(-90)scale(0.1 -0.1)">
      <defs>
       <path id="DejaVuSans-53" d="M 3425 4513 
L 3425 3897 
Q 3066 4069 2747 4153 
Q 2428 4238 2131 4238 
Q 1616 4238 1336 4038 
Q 1056 3838 1056 3469 
Q 1056 3159 1242 3001 
Q 1428 2844 1947 2747 
L 2328 2669 
Q 3034 2534 3370 2195 
Q 3706 1856 3706 1288 
Q 3706 609 3251 259 
Q 2797 -91 1919 -91 
Q 1588 -91 1214 -16 
Q 841 59 441 206 
L 441 856 
Q 825 641 1194 531 
Q 1563 422 1919 422 
Q 2459 422 2753 634 
Q 3047 847 3047 1241 
Q 3047 1584 2836 1778 
Q 2625 1972 2144 2069 
L 1759 2144 
Q 1053 2284 737 2584 
Q 422 2884 422 3419 
Q 422 4038 858 4394 
Q 1294 4750 2059 4750 
Q 2388 4750 2728 4690 
Q 3069 4631 3425 4513 
z
" transform="scale(0.015625)"/>
       <path id="DejaVuSans-64" d="M 2906 2969 
L 2906 4863 
L 3481 4863 
L 3481 0 
L 2906 0 
L 2906 525 
Q 2725 213 2448 61 
Q 2172 -91 1784 -91 
Q 1150 -91 751 415 
Q 353 922 353 1747 
Q 353 2572 751 3078 
Q 1150 3584 1784 3584 
Q 2172 3584 2448 3432 
Q 2725 3281 2906 2969 
z
M 947 1747 
Q 947 1113 1208 752 
Q 1469 391 1925 391 
Q 2381 391 2643 752 
Q 2906 1113 2906 1747 
Q 2906 2381 2643 2742 
Q 2381 3103 1925 3103 
Q 1469 3103 1208 2742 
Q 947 2381 947 1747 
z
" transform="scale(0.015625)"/>
       <path id="DejaVuSans-6d" d="M 3328 2828 
Q 3544 3216 3844 3400 
Q 4144 3584 4550 3584 
Q 5097 3584 5394 3201 
Q 5691 2819 5691 2113 
L 5691 0 
L 5113 0 
L 5113 2094 
Q 5113 2597 4934 2840 
Q 4756 3084 4391 3084 
Q 3944 3084 3684 2787 
Q 3425 2491 3425 1978 
L 3425 0 
L 2847 0 
L 2847 2094 
Q 2847 2600 2669 2842 
Q 2491 3084 2119 3084 
Q 1678 3084 1418 2786 
Q 1159 2488 1159 1978 
L 1159 0 
L 581 0 
L 581 3500 
L 1159 3500 
L 1159 2956 
Q 1356 3278 1631 3431 
Q 1906 3584 2284 3584 
Q 2666 3584 2933 3390 
Q 3200 3197 3328 2828 
z
" transform="scale(0.015625)"/>
       <path id="DejaVuSans-2f" d="M 1625 4666 
L 2156 4666 
L 531 -594 
L 0 -594 
L 1625 4666 
z
" transform="scale(0.015625)"/>
      </defs>
      <use xlink:href="#DejaVuSans-53"/>
      <use xlink:href="#DejaVuSans-70" x="63.476562"/>
      <use xlink:href="#DejaVuSans-65" x="126.953125"/>
      <use xlink:href="#DejaVuSans-65" x="188.476562"/>
      <use xlink:href="#DejaVuSans-64" x="250"/>
      <use xlink:href="#DejaVuSans-20" x="313.476562"/>
      <use xlink:href="#DejaVuSans-5b" x="345.263672"/>
      <use xlink:href="#DejaVuSans-6d" x="384.277344"/>
      <use xlink:href="#DejaVuSans-2f" x="481.689453"/>
      <use xlink:href="#DejaVuSans-73" x="515.380859"/>
      <use xlink:href="#DejaVuSans-5d" x="567.480469"/>
     </g>
    </g>
   </g>
   <g id="line2d_21">
    <path d="M 44.446534 110.942358 
L 44.661509 107.750737 
L 44.661509 99.365092 
L 44.783545 95.155089 
L 45.210669 86.735082 
L 45.210669 82.525079 
L 45.597116 78.315075 
L 45.780169 74.105072 
L 46.166615 69.895068 
L 46.329329 65.685065 
L 47.468328 55.945432 
L 48.017489 54.306894 
L 48.709024 54.340008 
L 49.136148 57.681787 
L 49.441238 58.933862 
L 49.888701 63.143866 
L 49.888701 67.353869 
L 50.580237 71.563872 
L 51.414147 68.295289 
L 52.695521 64.085286 
L 52.695521 60.974925 
L 53.26502 62.249071 
L 53.956555 66.459074 
L 53.956555 70.669077 
L 54.770126 69.933751 
L 55.136233 65.723748 
L 55.827768 61.513744 
L 55.827768 57.303741 
L 56.783714 53.345012 
L 56.783714 50.364314 
L 57.597285 48.506885 
L 58.024409 47.874577 
L 58.451534 49.356132 
L 59.021034 52.30756 
L 59.448158 52.20552 
L 60.078676 50.658888 
L 60.932925 47.494107 
L 61.380389 46.708083 
L 61.848192 46.618359 
L 62.478709 47.796296 
L 62.905834 49.074563 
L 63.393976 48.704903 
L 63.821101 46.596722 
L 64.309244 45.397399 
L 65.224511 53.624134 
L 65.712653 53.22855 
L 66.64826 48.433725 
L 67.136402 47.692264 
L 67.74658 48.560829 
L 68.234723 48.696619 
L 68.966936 45.756748 
L 69.638132 45.658567 
L 70.24831 43.705777 
L 70.736453 42.776204 
L 71.346631 44.33505 
L 73.380558 61.944445 
L 73.848361 60.924572 
L 74.173789 64.52118 
L 74.824646 67.449473 
L 75.617878 67.094236 
L 76.228056 66.283621 
L 76.553484 65.726602 
L 76.980609 64.741079 
L 78.790804 58.057062 
L 79.400982 62.084873 
L 80.031499 62.896798 
L 81.333212 54.066414 
L 82.126444 51.475218 
L 83.407818 51.706435 
L 83.550193 48.449409 
L 85.095977 45.284329 
L 86.173958 51.385151 
L 86.173958 49.2013 
L 86.723119 46.389763 
L 87.679064 44.494435 
L 87.923136 43.333013 
L 88.614671 42.286085 
L 89.001117 42.424266 
L 89.692652 40.27432 
L 89.936723 38.382582 
L 90.668937 36.974888 
L 91.238437 36.227549 
L 92.296079 36.530918 
L 92.906257 36.482615 
L 93.516435 36.219821 
L 95.32663 34.968209 
L 96.404611 34.418593 
L 96.953771 34.253905 
L 97.848699 34.226823 
L 98.336842 34.333333 
L 98.763966 34.561267 
L 100.187715 34.518896 
L 100.736875 35.237334 
L 101.99791 36.315123 
L 102.669106 36.794207 
L 103.747087 36.372124 
L 104.316587 37.584085 
L 104.947104 36.623241 
L 105.455586 35.464108 
L 105.964068 34.723471 
L 107.164085 34.257296 
L 107.672566 33.689059 
L 108.872583 32.770754 
L 109.23869 32.070913 
L 110.743796 31.054269 
L 111.130242 30.400206 
L 111.943813 29.732761 
L 112.635348 29.412772 
L 112.879419 29.160146 
L 114.140454 28.943869 
L 115.137078 29.0431 
L 115.543864 29.603741 
L 116.093024 30.738906 
L 116.76422 31.12825 
L 117.33372 32.938183 
L 119.042218 32.47628 
L 121.157502 30.709749 
L 122.154126 29.472101 
L 122.703287 28.94208 
L 123.577875 28.430872 
L 124.005 27.974343 
L 124.879589 27.471177 
L 125.306713 26.962294 
L 128.032175 25.268828 
L 129.476263 24.769852 
L 130.025424 28.979856 
L 130.777977 33.189859 
L 131.327137 37.245247 
L 132.07969 40.535364 
L 133.503439 52.77353 
L 133.930564 53.81211 
L 134.113617 55.190104 
L 134.683116 55.078992 
L 135.110241 57.587853 
L 135.537366 57.502114 
L 136.411954 49.497384 
L 136.839079 47.362547 
L 137.286543 46.503763 
L 138.161132 44.254571 
L 138.588256 43.8152 
L 139.015381 44.645824 
L 139.88997 52.908231 
L 140.317094 55.690357 
L 140.764558 56.096335 
L 141.801861 55.920748 
L 143.022217 64.340755 
L 143.876466 62.301481 
L 144.791733 54.740212 
L 146.174804 63.133375 
L 146.296839 68.719116 
L 147.11041 65.037368 
L 147.11041 60.827364 
L 148.371445 56.617361 
L 148.371445 52.438463 
L 148.879927 49.10757 
L 149.693497 46.90195 
L 149.815533 45.730185 
L 150.588425 45.350089 
L 150.751139 46.617178 
L 151.320639 49.184763 
L 152.012174 49.256879 
L 152.39862 48.323584 
L 152.825745 46.799678 
L 153.863048 44.223228 
L 154.310512 43.631148 
L 155.042725 43.153611 
L 155.490189 42.651051 
L 157.13767 39.766474 
L 157.585134 37.682303 
L 158.195312 35.919498 
L 159.415668 33.387749 
L 162.547916 28.403915 
L 163.951325 27.203116 
L 165.171682 26.470406 
L 165.659824 26.254542 
L 166.33102 26.261133 
L 167.002216 26.425831 
L 167.653073 26.405893 
L 168.873429 26.706111 
L 169.585303 26.94066 
L 171.517534 26.983757 
L 172.046355 27.30902 
L 172.595515 27.785187 
L 173.307389 29.386041 
L 173.85655 31.333065 
L 174.385371 31.818624 
L 175.056567 33.901158 
L 175.585388 34.644266 
L 176.500655 39.654976 
L 177.334565 42.458888 
L 177.700672 45.267274 
L 178.066779 46.119419 
L 178.717635 48.273407 
L 179.266795 48.956962 
L 179.449849 48.421577 
L 180.100706 47.885972 
L 180.466812 49.944273 
L 181.138008 47.173923 
L 181.321062 44.775925 
L 182.154972 43.965771 
L 182.338025 44.433083 
L 183.680417 41.686531 
L 184.026185 45.750424 
L 184.880434 52.921107 
L 185.368576 54.916835 
L 185.897397 54.986248 
L 187.727932 49.258797 
L 188.094038 46.625445 
L 188.561842 44.936968 
L 189.111002 43.901345 
L 189.822876 43.503065 
L 190.27034 43.436257 
L 190.880518 43.144875 
L 191.429679 42.505355 
L 192.690713 37.965219 
L 193.199195 36.822407 
L 193.748355 36.489643 
L 194.765319 35.288052 
L 195.416176 35.102551 
L 195.965336 35.070719 
L 196.473818 39.023629 
L 196.738228 43.145909 
L 197.673834 48.008665 
L 198.36537 48.834233 
L 198.792494 49.783065 
L 199.361994 49.663185 
L 200.236582 41.827513 
L 201.538296 38.659941 
L 201.96542 36.973549 
L 202.392545 36.299679 
L 203.267134 38.735083 
L 203.694258 39.426173 
L 204.263758 42.978021 
L 205.382418 51.291394 
L 205.809542 51.759582 
L 206.257006 48.864645 
L 206.623113 45.263639 
L 207.192613 42.378051 
L 208.189237 38.833015 
L 208.880772 38.707785 
L 209.572307 38.816653 
L 209.816378 38.223216 
L 211.748609 34.854235 
L 212.440144 38.535565 
L 213.131679 37.829486 
L 213.131679 41.532201 
L 214.636785 40.780238 
L 215.32832 40.402596 
L 215.32832 39.83202 
L 216.019856 37.84001 
L 216.711391 36.37697 
L 217.077498 40.586974 
L 217.646997 44.796977 
L 218.033443 49.006981 
L 218.582604 53.216984 
L 219.030068 50.392378 
L 219.274139 48.127524 
L 219.965674 48.896086 
L 220.514834 48.766904 
L 220.657209 48.325205 
L 221.47078 48.178194 
L 221.47078 49.811978 
L 222.162315 51.278463 
L 222.85385 50.867891 
L 222.975886 49.406505 
L 223.525046 45.312644 
L 224.216581 41.798116 
L 224.908116 39.319796 
L 225.030152 37.622243 
L 225.721687 37.044458 
L 226.982722 41.902002 
L 227.531882 46.053424 
L 228.345453 54.473431 
L 228.914953 53.357451 
L 229.728523 45.193821 
L 230.277684 42.148708 
L 231.78279 38.580759 
L 233.16586 37.994852 
L 233.857395 37.415108 
L 234.365877 36.569763 
L 234.670966 35.16548 
L 235.911661 32.304159 
L 238.108302 28.682598 
L 238.799838 27.839167 
L 239.491373 27.231348 
L 239.613408 31.441352 
L 240.304944 35.651355 
L 241.688014 40.833855 
L 241.932085 44.741838 
L 242.501585 48.951842 
L 242.867692 48.229012 
L 243.315155 46.7505 
L 243.559227 50.960504 
L 244.250762 55.170507 
L 244.250762 58.383108 
L 244.942297 57.274317 
L 244.942297 56.44106 
L 245.633832 55.803215 
L 245.633832 52.922795 
L 246.325367 50.275516 
L 247.688098 48.24448 
L 247.830473 47.391565 
L 248.501669 49.903161 
L 248.501669 52.79339 
L 249.579651 57.003393 
L 249.966097 61.213397 
L 249.966097 65.4234 
L 250.657632 69.399509 
L 251.715274 66.798455 
L 251.715274 65.403417 
L 252.528845 66.772239 
L 252.528845 70.982243 
L 253.098344 75.192246 
L 253.098344 79.40225 
L 254.867861 82.448267 
L 255.17295 83.940036 
L 255.600074 80.321619 
L 255.600074 78.331542 
L 256.047538 76.491696 
L 256.474663 75.463777 
L 256.474663 72.71788 
L 257.288234 68.512279 
L 257.288234 66.919239 
L 257.979769 66.502251 
L 258.22384 66.149536 
L 258.366215 64.597416 
L 258.915375 61.45343 
L 259.932339 50.999236 
L 261.01032 47.756531 
L 261.376427 47.891721 
L 262.271355 51.887724 
L 262.779837 51.577482 
L 263.166283 49.719957 
L 264.06121 43.77427 
L 264.569692 41.912656 
L 265.586656 39.438033 
L 267.112101 35.788267 
L 267.803636 34.942811 
L 268.312118 34.75234 
L 268.942635 34.119479 
L 269.451117 32.806989 
L 270.081634 37.016992 
L 270.346045 41.226996 
L 271.159616 41.418113 
L 271.668097 41.257129 
L 272.176579 40.727278 
L 272.685061 40.646988 
L 273.559649 38.716254 
L 274.129149 38.532068 
L 274.637631 41.693407 
L 275.532559 48.966918 
L 276.427486 52.643559 
L 276.935968 53.567103 
L 277.241057 54.473548 
L 277.607164 50.279517 
L 278.115646 46.193973 
L 278.624128 43.384583 
L 279.132609 41.836977 
L 279.641091 41.750165 
L 280.332626 40.359266 
L 280.719072 40.329107 
L 281.227554 42.705443 
L 281.736036 46.915447 
L 282.427571 51.12545 
L 282.671642 55.335453 
L 283.241142 59.545457 
L 283.363177 63.75546 
L 284.176748 65.29369 
L 284.176748 61.227725 
L 284.868283 57.017721 
L 285.600497 50.773656 
L 287.064924 54.454123 
L 287.858156 62.87413 
L 288.000531 62.746328 
L 289.037834 56.624175 
L 289.912422 48.867521 
L 290.909046 46.277787 
L 291.946349 45.297469 
L 292.942973 44.910983 
L 293.512473 44.909078 
L 293.939598 44.160224 
L 295.363346 40.415572 
L 296.359971 38.873387 
L 296.92947 37.623408 
L 297.356595 36.179085 
L 297.78372 36.485308 
L 298.353219 40.175118 
L 298.780344 40.82434 
L 299.776968 40.88813 
L 300.773592 40.627207 
L 301.221056 39.588614 
L 301.770216 37.503493 
L 302.21768 36.386168 
L 302.766841 40.596171 
L 303.193965 44.806175 
L 303.763465 49.016178 
L 304.190589 53.226182 
L 304.760089 50.775507 
L 305.00416 48.53421 
L 305.756713 49.556551 
L 306.448248 48.545597 
L 307.180462 48.433692 
L 307.444873 49.200966 
L 307.871997 49.739025 
L 308.299122 49.827728 
L 308.868621 48.484878 
L 309.74321 44.392371 
L 310.170335 41.312364 
L 311.166959 38.292964 
L 311.594084 38.451115 
L 312.163583 40.561374 
L 312.712743 42.04264 
L 313.282243 42.793614 
L 313.892421 43.357931 
L 314.889045 43.848534 
L 315.31617 42.817234 
L 315.885669 41.784599 
L 316.312794 40.482315 
L 317.126365 39.323425 
L 318.306043 36.856477 
L 318.753506 35.727647 
L 319.302667 36.472142 
L 320.177255 39.797182 
L 320.726416 40.643588 
L 321.17388 40.394603 
L 321.72304 39.874222 
L 322.170504 39.692043 
L 322.597628 39.235837 
L 323.594253 35.936139 
L 324.407823 40.146142 
L 324.712912 44.356146 
L 325.282412 48.566149 
L 325.709537 52.776153 
L 326.279036 56.986156 
L 327.133286 50.926977 
L 327.397696 50.337314 
L 327.824821 48.920644 
L 328.699409 47.733615 
L 328.821445 47.303768 
L 329.696034 46.387522 
L 330.550283 44.582714 
L 331.119782 45.505395 
L 331.546907 46.571422 
L 332.116407 46.119625 
L 332.543531 44.460781 
L 333.113031 43.783371 
L 334.53678 54.774059 
L 334.963904 55.031452 
L 335.716457 54.743347 
L 336.143582 54.872283 
L 336.591046 54.422963 
L 337.628349 51.821887 
L 337.933438 50.076316 
L 338.543616 48.516358 
L 338.99108 46.257894 
L 339.296169 43.486961 
L 340.394489 39.990717 
L 341.065685 39.416803 
L 342.164006 38.876364 
L 342.652148 38.195862 
L 343.303005 37.73084 
L 344.27929 35.376539 
L 344.950486 34.65661 
L 345.621682 38.020004 
L 346.109824 41.631693 
L 346.78102 42.159686 
L 347.61493 40.172588 
L 348.103073 39.693946 
L 348.957322 39.863798 
L 349.791232 39.74016 
L 350.279374 41.501054 
L 351.316677 41.352939 
L 351.967534 41.325808 
L 352.821783 41.050958 
L 353.004837 40.727179 
L 353.676032 40.498612 
L 354.509942 41.285844 
L 355.364192 41.039748 
L 355.547245 40.753815 
L 356.747262 40.649424 
L 357.601511 40.182933 
L 357.764226 39.875687 
L 358.618475 39.414602 
L 358.801528 38.687345 
L 360.184599 38.073635 
L 361.384616 33.583435 
L 361.750722 31.88572 
L 362.604972 30.465947 
L 363.4999 28.209881 
L 364.33381 32.419884 
L 364.88297 36.629888 
L 365.249077 38.521663 
L 366.082987 38.921563 
L 366.632147 40.215137 
L 367.466057 46.023485 
L 368.910145 54.915051 
L 369.215234 59.057417 
L 369.581341 58.280197 
L 370.293216 49.86019 
L 371.330518 44.176081 
L 371.859339 43.105237 
L 372.4085 41.6462 
L 373.059356 41.60601 
L 373.79157 50.026017 
L 374.320391 53.785062 
L 374.686498 55.515503 
L 375.17464 58.833044 
L 375.520408 63.043047 
L 376.191604 60.447268 
L 376.496693 56.237265 
L 377.188228 52.53313 
L 377.879763 55.560202 
L 377.879763 59.770206 
L 378.693334 63.980209 
L 378.693334 67.397042 
L 379.567923 64.894236 
L 379.689958 61.98604 
L 380.381493 59.159979 
L 380.503529 57.744655 
L 381.195064 55.829834 
L 381.764564 54.723495 
L 382.313724 54.673173 
L 382.98492 55.759464 
L 383.351027 57.129113 
L 384.429008 58.680398 
L 384.591722 58.65662 
L 385.506989 52.000991 
L 385.852757 47.948597 
L 386.218864 45.02981 
L 386.768024 42.756426 
L 387.418881 41.37686 
L 388.761272 37.286065 
L 389.249415 35.366251 
L 389.859593 39.576255 
L 390.469771 42.798821 
L 391.079949 42.899937 
L 391.832502 43.259993 
L 392.137591 46.043608 
L 392.564716 46.015205 
L 392.564716 46.015205 
" clip-path="url(#pc9cd4133a3)" style="fill: none; stroke: #ffa801; stroke-opacity: 0.99; stroke-width: 2.4; stroke-linecap: square"/>
   </g>
   <g id="line2d_22">
    <path d="M 44.446534 110.942358 
L 44.661509 107.187483 
L 44.661509 98.767476 
L 44.90558 90.347469 
L 45.210669 86.137466 
L 45.210669 81.927462 
L 45.597116 77.717459 
L 45.780169 73.507456 
L 46.166615 69.297452 
L 46.329329 66.17461 
L 46.837811 63.949042 
L 47.020864 61.950026 
L 47.468328 61.003313 
L 48.017489 59.316158 
L 49.278523 57.795562 
L 49.441238 56.985396 
L 49.888701 56.294863 
L 50.580237 56.130914 
L 52.695521 54.20106 
L 53.956555 48.912871 
L 53.956555 47.009407 
L 55.014197 45.592358 
L 56.783714 39.514287 
L 56.783714 36.801103 
L 58.451534 35.269983 
L 59.204087 35.574184 
L 59.631212 34.763571 
L 60.078676 33.263706 
L 61.543103 29.88412 
L 62.783798 26.839475 
L 63.516012 26.552559 
L 65.549939 24.897923 
L 66.343171 25.067108 
L 66.810974 24.960659 
L 67.563527 25.970405 
L 68.234723 25.313006 
L 68.844901 25.033245 
L 69.638132 25.765464 
L 70.858488 33.587042 
L 71.468667 34.347094 
L 72.139862 37.179907 
L 72.750041 39.1016 
L 73.238183 41.169905 
L 73.848361 40.80103 
L 74.336504 42.983953 
L 75.434824 42.621753 
L 75.922967 46.607081 
L 76.553484 46.539396 
L 76.716198 48.354023 
L 77.285698 48.319798 
L 77.855197 52.529801 
L 78.221304 53.090756 
L 79.217928 52.50114 
L 79.665392 52.465696 
L 80.723034 49.419191 
L 81.170498 49.040362 
L 81.780676 49.189018 
L 83.285782 44.764626 
L 83.712907 44.714225 
L 84.038335 44.418911 
L 84.587495 46.792676 
L 85.401066 45.339307 
L 85.401066 43.141984 
L 86.479047 40.974259 
L 86.479047 40.254788 
L 87.028208 39.7974 
L 87.414654 39.162136 
L 88.228225 38.450038 
L 88.492635 40.138172 
L 90.119777 48.558179 
L 90.546901 48.254927 
L 90.546901 52.46493 
L 91.807936 52.276861 
L 92.723203 50.409394 
L 93.211346 50.0146 
L 93.821524 48.594652 
L 94.309666 45.642502 
L 95.163916 43.614976 
L 95.692737 46.805879 
L 96.587664 50.25321 
L 97.136825 49.967126 
L 97.970735 48.28433 
L 98.641931 47.277747 
L 98.763966 46.333085 
L 99.557198 45.439421 
L 100.187715 44.278812 
L 100.736875 42.156418 
L 101.306375 39.494796 
L 101.855535 38.173717 
L 102.811481 36.443556 
L 103.625052 35.764983 
L 104.011498 38.191632 
L 104.825069 37.457711 
L 105.842032 34.476519 
L 106.777639 32.887866 
L 107.02171 32.053745 
L 107.672566 31.792484 
L 108.872583 31.140679 
L 109.543779 31.24541 
L 110.35735 30.193097 
L 110.743796 29.031806 
L 111.435331 27.398985 
L 112.879419 24.633869 
L 113.631972 23.659974 
L 114.140454 23.738764 
L 115.421828 22.340472 
L 115.848953 22.208405 
L 116.642184 21.527055 
L 117.455755 21.889783 
L 118.045594 21.414364 
L 118.777808 23.573263 
L 119.347307 23.041964 
L 120.893092 22.111803 
L 121.462591 22.752481 
L 122.276162 25.404756 
L 123.45584 31.21506 
L 124.310089 32.255625 
L 124.757553 34.189092 
L 125.611802 33.581982 
L 126.181302 33.542307 
L 126.608426 32.991472 
L 127.483015 32.106105 
L 128.357604 29.210672 
L 129.211853 27.889356 
L 130.655941 27.091042 
L 131.957654 26.665567 
L 132.384779 29.933881 
L 133.259368 31.213309 
L 133.686492 31.101179 
L 134.113617 31.898889 
L 135.110241 34.89711 
L 135.537366 37.183894 
L 136.411954 37.135209 
L 137.713668 49.349363 
L 138.161132 50.214114 
L 138.588256 53.416425 
L 139.015381 52.966529 
L 139.88997 53.703927 
L 140.317094 54.790663 
L 141.191683 53.598498 
L 141.618807 52.457801 
L 142.228986 51.342695 
L 142.412039 50.170601 
L 144.364609 48.648293 
L 145.483269 47.238471 
L 145.483269 46.748827 
L 146.296839 43.841309 
L 147.11041 40.089771 
L 148.371445 36.855672 
L 148.371445 36.215963 
L 149.693497 37.108856 
L 149.693497 39.330031 
L 151.320639 38.825887 
L 151.320639 37.384634 
L 152.012174 34.575972 
L 153.008798 31.848456 
L 153.741012 30.252963 
L 154.188476 30.9875 
L 154.92069 31.546479 
L 155.347814 32.616225 
L 156.100367 32.063588 
L 156.832581 31.933295 
L 157.442759 31.610971 
L 158.073277 31.542602 
L 158.622437 31.670364 
L 159.842793 29.992855 
L 160.47331 29.723697 
L 161.124167 32.076685 
L 161.754684 32.249901 
L 162.364862 31.259373 
L 162.975041 31.206632 
L 163.646236 30.448518 
L 164.256414 29.56014 
L 165.537788 28.034874 
L 167.002216 26.037216 
L 167.653073 25.643219 
L 168.202233 24.704935 
L 169.036143 23.996964 
L 170.134463 23.680437 
L 171.517534 21.840716 
L 172.229408 21.409262 
L 172.941283 20.677617 
L 173.490443 20.27829 
L 174.202317 19.915348 
L 174.873513 20.179298 
L 175.585388 20.924094 
L 176.317601 22.631963 
L 177.517618 30.025994 
L 178.371868 29.733701 
L 178.717635 31.976873 
L 179.571885 33.262691 
L 179.754938 33.257823 
L 180.588848 37.313492 
L 180.954955 37.285488 
L 181.626151 38.122802 
L 181.971918 37.163577 
L 184.209238 34.440134 
L 184.331274 33.333482 
L 185.185523 31.828526 
L 186.039772 30.566931 
L 186.039772 33.428687 
L 186.873682 33.352518 
L 187.544878 32.929931 
L 188.216074 34.469624 
L 188.399128 33.294078 
L 189.111002 33.251221 
L 189.639823 32.877714 
L 189.965251 34.379605 
L 190.575429 33.838589 
L 191.185607 34.146619 
L 191.755107 33.665107 
L 192.568678 36.780003 
L 192.568678 36.006629 
L 193.504284 35.801414 
L 193.748355 34.683112 
L 194.256837 34.335121 
L 194.765319 33.443685 
L 195.416176 34.729804 
L 195.538211 34.243357 
L 196.616192 33.871365 
L 196.738228 36.504981 
L 197.673834 38.923028 
L 197.673834 38.0332 
L 198.792494 32.52567 
L 199.789119 29.890923 
L 200.907778 29.379292 
L 201.96542 27.778191 
L 202.392545 26.455337 
L 203.267134 24.923491 
L 204.263758 23.731615 
L 204.812918 22.518748 
L 205.951917 20.767834 
L 208.575683 19.182303 
L 209.267218 18.734682 
L 210.080789 18.702317 
L 210.772324 18.061916 
L 211.44352 17.665186 
L 212.135055 17.656872 
L 213.640161 24.905907 
L 214.331696 29.026082 
L 215.023231 30.665419 
L 215.023231 31.205432 
L 215.714767 30.820573 
L 216.385963 32.051706 
L 217.219873 36.261709 
L 217.891068 35.36767 
L 218.582604 31.994793 
L 218.582604 29.531053 
L 219.274139 27.196605 
L 219.965674 25.737482 
L 220.657209 24.920087 
L 221.47078 27.568223 
L 222.162315 29.121079 
L 222.85385 28.759088 
L 224.216581 27.313008 
L 225.030152 26.376158 
L 225.721687 24.926568 
L 226.413222 23.953887 
L 227.104758 23.203181 
L 228.609864 22.512593 
L 228.609864 22.435326 
L 229.972595 20.955398 
L 230.66413 21.645887 
L 231.355665 24.598693 
L 232.0472 26.806256 
L 232.860771 30.500211 
L 234.243841 29.528259 
L 235.606572 25.546121 
L 236.420143 24.109723 
L 237.111678 23.538075 
L 237.803213 22.428798 
L 238.494749 22.257089 
L 239.186284 22.760765 
L 239.999855 23.921434 
L 239.999855 24.711567 
L 241.382925 27.834496 
L 242.054121 30.150279 
L 242.745656 30.696804 
L 243.437191 30.554146 
L 244.250762 34.76415 
L 244.942297 36.074262 
L 244.942297 40.284266 
L 245.633832 44.19624 
L 246.325367 46.916065 
L 247.016903 48.915119 
L 247.016903 52.270375 
L 247.830473 54.183741 
L 247.830473 55.000914 
L 248.501669 55.129872 
L 249.335579 57.404427 
L 249.966097 60.322759 
L 249.966097 59.155 
L 251.715274 63.715964 
L 251.715274 62.738078 
L 252.528845 59.99291 
L 253.098344 56.054483 
L 254.989896 53.063586 
L 256.047538 47.237027 
L 257.166198 44.882236 
L 257.288234 42.990884 
L 258.101804 39.981888 
L 258.366215 35.898345 
L 259.301821 32.317875 
L 259.810303 29.82565 
L 260.501838 27.960206 
L 261.132356 26.63933 
L 262.901872 24.956303 
L 263.552729 23.816532 
L 264.183246 23.237413 
L 264.813763 22.241888 
L 265.586656 21.452918 
L 266.217173 20.490129 
L 266.84769 20.079349 
L 268.942635 21.350405 
L 269.573153 21.897739 
L 271.403687 34.456436 
L 271.912169 35.72389 
L 272.42065 39.440225 
L 272.929132 39.390613 
L 274.007113 41.427049 
L 274.515595 40.705858 
L 275.532559 37.953442 
L 276.163076 36.441472 
L 277.241057 35.186565 
L 277.871575 37.184452 
L 278.888538 39.55544 
L 279.39702 43.765444 
L 280.332626 47.975447 
L 280.332626 48.673052 
L 281.227554 55.233317 
L 281.736036 56.278235 
L 282.427571 58.523995 
L 282.549607 57.136965 
L 283.241142 55.670649 
L 283.363177 53.546211 
L 284.868283 48.34529 
L 285.437783 45.432902 
L 287.064924 43.890517 
L 287.858156 41.557583 
L 288.000531 37.651923 
L 288.915798 33.728807 
L 289.342923 30.986124 
L 290.034458 29.809193 
L 291.336171 29.116843 
L 292.21076 29.411389 
L 292.637884 28.436573 
L 294.204008 25.777931 
L 294.631133 24.642493 
L 295.505721 23.696955 
L 296.054882 22.668033 
L 296.746417 22.566584 
L 297.47863 22.210063 
L 298.170166 21.271629 
L 298.922719 20.501429 
L 299.593915 20.462567 
L 300.346467 20.199503 
L 301.038003 20.178625 
L 301.770216 23.710115 
L 303.031251 27.115905 
L 304.332964 33.779103 
L 304.882125 34.068807 
L 305.329589 34.481035 
L 306.305873 34.810486 
L 306.753337 34.793792 
L 307.302498 34.485757 
L 308.299122 31.500585 
L 309.17371 30.503663 
L 309.74321 29.100304 
L 311.166959 28.132473 
L 311.594084 28.035769 
L 312.163583 27.394749 
L 313.160207 26.8596 
L 313.587332 26.072533 
L 314.583956 24.740198 
L 315.011081 23.617393 
L 315.58058 23.089047 
L 316.577205 22.668696 
L 317.004329 22.659847 
L 318.000954 25.200599 
L 318.428078 26.707935 
L 318.997578 25.856211 
L 319.872166 25.276457 
L 320.421327 24.212402 
L 321.865415 23.738432 
L 322.8417 23.236496 
L 323.289164 25.350392 
L 323.838324 25.220219 
L 324.834948 26.267986 
L 325.282412 25.397018 
L 326.279036 24.063914 
L 326.706161 22.597713 
L 328.12991 21.004431 
L 328.699409 22.010151 
L 329.696034 25.859172 
L 330.123158 29.045018 
L 331.119782 30.971397 
L 331.546907 29.926504 
L 332.116407 30.826512 
L 332.543531 30.79416 
L 333.113031 30.422885 
L 334.53678 28.491142 
L 335.411368 28.136269 
L 335.716457 29.044072 
L 336.591046 29.002755 
L 337.018171 29.802672 
L 337.628349 29.473891 
L 338.238527 29.846063 
L 339.296169 29.333956 
L 340.272454 28.259814 
L 340.882632 27.770189 
L 341.553828 27.036709 
L 342.164006 26.833469 
L 342.835202 27.319558 
L 343.486058 30.587822 
L 344.096236 30.303459 
L 344.584379 28.326149 
L 345.255575 26.811306 
L 346.414913 24.95486 
L 347.086109 24.904221 
L 347.736966 26.305422 
L 348.408162 28.62836 
L 349.262411 28.64905 
L 350.584463 27.351198 
L 350.767517 26.069427 
L 351.438713 23.970068 
L 352.292962 23.328209 
L 353.126872 23.165934 
L 353.838747 23.801989 
L 353.981121 25.675908 
L 354.815032 29.885911 
L 355.852334 32.680527 
L 355.852334 32.495132 
L 356.869298 31.090134 
L 357.052351 29.472084 
L 357.9066 27.314839 
L 358.252368 25.790732 
L 359.106617 24.78789 
L 359.635438 23.85548 
L 361.038848 21.98112 
L 362.238865 21.431591 
L 363.4999 24.138802 
L 363.621935 26.445937 
L 364.171096 29.159227 
L 365.371112 28.290525 
L 365.554166 28.708915 
L 366.082987 28.127615 
L 367.283004 29.957119 
L 367.283004 28.964949 
L 368.015217 28.728653 
L 369.032181 29.363868 
L 369.215234 32.444467 
L 370.293216 40.142451 
L 370.964412 43.847288 
L 371.330518 47.434532 
L 371.676286 49.451719 
L 372.225446 50.552989 
L 373.059356 50.346379 
L 373.059356 52.249923 
L 373.608517 53.004894 
L 373.974623 52.522151 
L 374.320391 54.39998 
L 375.17464 54.634331 
L 375.17464 56.286314 
L 376.191604 56.059685 
L 377.188228 54.749207 
L 377.188228 52.88656 
L 377.879763 50.32185 
L 380.381493 43.716773 
L 380.381493 40.555887 
L 381.195064 36.479187 
L 382.191688 32.901646 
L 383.351027 29.59459 
L 383.879848 26.93175 
L 384.957829 23.941729 
L 385.669704 23.223202 
L 386.218864 23.694198 
L 386.930738 24.859421 
L 388.090077 31.924381 
L 388.761272 35.285309 
L 389.371451 36.311277 
L 390.347736 39.87478 
L 391.527413 41.993831 
L 392.137591 44.726106 
L 392.44268 43.894204 
L 392.44268 43.894204 
" clip-path="url(#pc9cd4133a3)" style="fill: none; stroke: #a55eea; stroke-opacity: 0.99; stroke-width: 2.4; stroke-linecap: square"/>
   </g>
   <g id="patch_3">
    <path d="M 27.040625 99.875051 
L 27.040625 16.870251 
" style="fill: none; stroke: #000000; stroke-width: 0.8; stroke-linejoin: miter; stroke-linecap: square"/>
   </g>
   <g id="patch_4">
    <path d="M 409.970625 99.875051 
L 409.970625 16.870251 
" style="fill: none; stroke: #000000; stroke-width: 0.8; stroke-linejoin: miter; stroke-linecap: square"/>
   </g>
   <g id="patch_5">
    <path d="M 27.040625 99.875051 
L 409.970625 99.875051 
" style="fill: none; stroke: #000000; stroke-width: 0.8; stroke-linejoin: miter; stroke-linecap: square"/>
   </g>
   <g id="patch_6">
    <path d="M 27.040625 16.870251 
L 409.970625 16.870251 
" style="fill: none; stroke: #000000; stroke-width: 0.8; stroke-linejoin: miter; stroke-linecap: square"/>
   </g>
   <g id="legend_1">
    <g id="patch_7">
     <path d="M 150.4439 8.839062 
L 271.25015 8.839062 
Q 272.25015 8.839062 272.25015 7.839062 
L 272.25015 1 
Q 272.25015 -0 271.25015 -0 
L 150.4439 -0 
Q 149.4439 -0 149.4439 1 
L 149.4439 7.839062 
Q 149.4439 8.839062 150.4439 8.839062 
z
" style="fill: #ffffff; opacity: 0.8; stroke: #cccccc; stroke-linejoin: miter"/>
    </g>
    <g id="line2d_23">
     <path d="M 151.4439 4.049219 
L 156.4439 4.049219 
L 161.4439 4.049219 
" style="fill: none; stroke: #ffa801; stroke-opacity: 0.99; stroke-width: 2.4; stroke-linecap: square"/>
    </g>
    <g id="text_13">
     <!-- End-to-end (RL) -->
     <g transform="translate(165.4439 5.799219)scale(0.05 -0.05)">
      <defs>
       <path id="DejaVuSans-45" d="M 628 4666 
L 3578 4666 
L 3578 4134 
L 1259 4134 
L 1259 2753 
L 3481 2753 
L 3481 2222 
L 1259 2222 
L 1259 531 
L 3634 531 
L 3634 0 
L 628 0 
L 628 4666 
z
" transform="scale(0.015625)"/>
       <path id="DejaVuSans-6e" d="M 3513 2113 
L 3513 0 
L 2938 0 
L 2938 2094 
Q 2938 2591 2744 2837 
Q 2550 3084 2163 3084 
Q 1697 3084 1428 2787 
Q 1159 2491 1159 1978 
L 1159 0 
L 581 0 
L 581 3500 
L 1159 3500 
L 1159 2956 
Q 1366 3272 1645 3428 
Q 1925 3584 2291 3584 
Q 2894 3584 3203 3211 
Q 3513 2838 3513 2113 
z
" transform="scale(0.015625)"/>
       <path id="DejaVuSans-2d" d="M 313 2009 
L 1997 2009 
L 1997 1497 
L 313 1497 
L 313 2009 
z
" transform="scale(0.015625)"/>
       <path id="DejaVuSans-74" d="M 1172 4494 
L 1172 3500 
L 2356 3500 
L 2356 3053 
L 1172 3053 
L 1172 1153 
Q 1172 725 1289 603 
Q 1406 481 1766 481 
L 2356 481 
L 2356 0 
L 1766 0 
Q 1100 0 847 248 
Q 594 497 594 1153 
L 594 3053 
L 172 3053 
L 172 3500 
L 594 3500 
L 594 4494 
L 1172 4494 
z
" transform="scale(0.015625)"/>
       <path id="DejaVuSans-28" d="M 1984 4856 
Q 1566 4138 1362 3434 
Q 1159 2731 1159 2009 
Q 1159 1288 1364 580 
Q 1569 -128 1984 -844 
L 1484 -844 
Q 1016 -109 783 600 
Q 550 1309 550 2009 
Q 550 2706 781 3412 
Q 1013 4119 1484 4856 
L 1984 4856 
z
" transform="scale(0.015625)"/>
       <path id="DejaVuSans-52" d="M 2841 2188 
Q 3044 2119 3236 1894 
Q 3428 1669 3622 1275 
L 4263 0 
L 3584 0 
L 2988 1197 
Q 2756 1666 2539 1819 
Q 2322 1972 1947 1972 
L 1259 1972 
L 1259 0 
L 628 0 
L 628 4666 
L 2053 4666 
Q 2853 4666 3247 4331 
Q 3641 3997 3641 3322 
Q 3641 2881 3436 2590 
Q 3231 2300 2841 2188 
z
M 1259 4147 
L 1259 2491 
L 2053 2491 
Q 2509 2491 2742 2702 
Q 2975 2913 2975 3322 
Q 2975 3731 2742 3939 
Q 2509 4147 2053 4147 
L 1259 4147 
z
" transform="scale(0.015625)"/>
       <path id="DejaVuSans-4c" d="M 628 4666 
L 1259 4666 
L 1259 531 
L 3531 531 
L 3531 0 
L 628 0 
L 628 4666 
z
" transform="scale(0.015625)"/>
       <path id="DejaVuSans-29" d="M 513 4856 
L 1013 4856 
Q 1481 4119 1714 3412 
Q 1947 2706 1947 2009 
Q 1947 1309 1714 600 
Q 1481 -109 1013 -844 
L 513 -844 
Q 928 -128 1133 580 
Q 1338 1288 1338 2009 
Q 1338 2731 1133 3434 
Q 928 4138 513 4856 
z
" transform="scale(0.015625)"/>
      </defs>
      <use xlink:href="#DejaVuSans-45"/>
      <use xlink:href="#DejaVuSans-6e" x="63.183594"/>
      <use xlink:href="#DejaVuSans-64" x="126.5625"/>
      <use xlink:href="#DejaVuSans-2d" x="190.039062"/>
      <use xlink:href="#DejaVuSans-74" x="226.123047"/>
      <use xlink:href="#DejaVuSans-6f" x="265.332031"/>
      <use xlink:href="#DejaVuSans-2d" x="328.388672"/>
      <use xlink:href="#DejaVuSans-65" x="364.472656"/>
      <use xlink:href="#DejaVuSans-6e" x="425.996094"/>
      <use xlink:href="#DejaVuSans-64" x="489.375"/>
      <use xlink:href="#DejaVuSans-20" x="552.851562"/>
      <use xlink:href="#DejaVuSans-28" x="584.638672"/>
      <use xlink:href="#DejaVuSans-52" x="623.652344"/>
      <use xlink:href="#DejaVuSans-4c" x="693.134766"/>
      <use xlink:href="#DejaVuSans-29" x="748.847656"/>
     </g>
    </g>
    <g id="line2d_24">
     <path d="M 214.83765 4.049219 
L 219.83765 4.049219 
L 224.83765 4.049219 
" style="fill: none; stroke: #a55eea; stroke-opacity: 0.99; stroke-width: 2.4; stroke-linecap: square"/>
    </g>
    <g id="text_14">
     <!-- TinyLidarNet (IL) -->
     <g transform="translate(228.83765 5.799219)scale(0.05 -0.05)">
      <defs>
       <path id="DejaVuSans-69" d="M 603 3500 
L 1178 3500 
L 1178 0 
L 603 0 
L 603 3500 
z
M 603 4863 
L 1178 4863 
L 1178 4134 
L 603 4134 
L 603 4863 
z
" transform="scale(0.015625)"/>
       <path id="DejaVuSans-79" d="M 2059 -325 
Q 1816 -950 1584 -1140 
Q 1353 -1331 966 -1331 
L 506 -1331 
L 506 -850 
L 844 -850 
Q 1081 -850 1212 -737 
Q 1344 -625 1503 -206 
L 1606 56 
L 191 3500 
L 800 3500 
L 1894 763 
L 2988 3500 
L 3597 3500 
L 2059 -325 
z
" transform="scale(0.015625)"/>
       <path id="DejaVuSans-4e" d="M 628 4666 
L 1478 4666 
L 3547 763 
L 3547 4666 
L 4159 4666 
L 4159 0 
L 3309 0 
L 1241 3903 
L 1241 0 
L 628 0 
L 628 4666 
z
" transform="scale(0.015625)"/>
       <path id="DejaVuSans-49" d="M 628 4666 
L 1259 4666 
L 1259 0 
L 628 0 
L 628 4666 
z
" transform="scale(0.015625)"/>
      </defs>
      <use xlink:href="#DejaVuSans-54"/>
      <use xlink:href="#DejaVuSans-69" x="57.958984"/>
      <use xlink:href="#DejaVuSans-6e" x="85.742188"/>
      <use xlink:href="#DejaVuSans-79" x="149.121094"/>
      <use xlink:href="#DejaVuSans-4c" x="208.300781"/>
      <use xlink:href="#DejaVuSans-69" x="264.013672"/>
      <use xlink:href="#DejaVuSans-64" x="291.796875"/>
      <use xlink:href="#DejaVuSans-61" x="355.273438"/>
      <use xlink:href="#DejaVuSans-72" x="416.552734"/>
      <use xlink:href="#DejaVuSans-4e" x="457.666016"/>
      <use xlink:href="#DejaVuSans-65" x="532.470703"/>
      <use xlink:href="#DejaVuSans-74" x="593.994141"/>
      <use xlink:href="#DejaVuSans-20" x="633.203125"/>
      <use xlink:href="#DejaVuSans-28" x="664.990234"/>
      <use xlink:href="#DejaVuSans-49" x="704.003906"/>
      <use xlink:href="#DejaVuSans-4c" x="733.496094"/>
      <use xlink:href="#DejaVuSans-29" x="789.208984"/>
     </g>
    </g>
   </g>
  </g>
 </g>
 <defs>
  <clipPath id="pc9cd4133a3">
   <rect x="27.040625" y="16.870251" width="382.93" height="83.0048"/>
  </clipPath>
 </defs>
</svg>
